<mxfile host="Electron" modified="2023-06-03T21:56:41.632Z" agent="Mozilla/5.0 (Macintosh; Intel Mac OS X 10_15_7) AppleWebKit/537.36 (KHTML, like Gecko) draw.io/21.2.8 Chrome/112.0.5615.165 Electron/24.2.0 Safari/537.36" etag="rF9H1Ae594eHutGOChfK" version="21.2.8" type="device">
  <diagram id="07fea595-8f29-1299-0266-81d95cde20df" name="Page-1">
    <mxGraphModel dx="3607" dy="943" grid="1" gridSize="10" guides="1" tooltips="1" connect="1" arrows="1" fold="1" page="1" pageScale="1" pageWidth="1169" pageHeight="827" background="none" math="0" shadow="0">
      <root>
        <mxCell id="0" />
        <mxCell id="1" parent="0" />
        <mxCell id="698" value="" style="rounded=0;whiteSpace=wrap;html=1;shadow=0;labelBackgroundColor=none;strokeColor=none;strokeWidth=3;fillColor=#e8edf0;fontSize=60;fontColor=#2F5B7C;align=left;" parent="1" vertex="1">
          <mxGeometry x="-2290" y="32" width="2250" height="1598" as="geometry" />
        </mxCell>
        <mxCell id="699" value="&lt;div style=&quot;font-size: 26px&quot;&gt;&lt;font style=&quot;font-size: 26px&quot;&gt;Customer Relationships&lt;/font&gt;&lt;/div&gt;&lt;div&gt;&lt;br&gt;&lt;/div&gt;&lt;div&gt;What type of relationship does each of our Customer&lt;/div&gt;&lt;div&gt;Segments expect us to establish and maintain with them?&lt;/div&gt;&lt;div&gt;Which ones have we established?&lt;/div&gt;&lt;div&gt;How are they integrated with the rest of our business model?&lt;/div&gt;&lt;div&gt;How costly are they?&lt;/div&gt;&lt;div&gt;&lt;br&gt;&lt;/div&gt;&lt;div style=&quot;font-size: 10px&quot;&gt;&lt;font style=&quot;font-size: 10px&quot;&gt;&lt;b&gt;Examples&lt;/b&gt;&lt;/font&gt;&lt;/div&gt;&lt;div style=&quot;font-size: 10px&quot;&gt;&lt;font style=&quot;font-size: 10px&quot;&gt;Personal assistance&lt;/font&gt;&lt;/div&gt;&lt;div style=&quot;font-size: 10px&quot;&gt;&lt;font style=&quot;font-size: 10px&quot;&gt;Dedicated Personal Assistance&lt;/font&gt;&lt;/div&gt;&lt;div style=&quot;font-size: 10px&quot;&gt;&lt;font style=&quot;font-size: 10px&quot;&gt;Self-Service&lt;/font&gt;&lt;/div&gt;&lt;div style=&quot;font-size: 10px&quot;&gt;&lt;font style=&quot;font-size: 10px&quot;&gt;Automated Services&lt;/font&gt;&lt;/div&gt;&lt;div style=&quot;font-size: 10px&quot;&gt;&lt;font style=&quot;font-size: 10px&quot;&gt;Communities&lt;/font&gt;&lt;/div&gt;&lt;div style=&quot;font-size: 10px&quot;&gt;&lt;font style=&quot;font-size: 10px&quot;&gt;Co-creation&lt;/font&gt;&lt;/div&gt;" style="rounded=0;whiteSpace=wrap;html=1;shadow=0;labelBackgroundColor=none;strokeColor=#e8edf0;strokeWidth=5;fillColor=#ffffff;fontSize=12;fontColor=#2F5B7C;align=left;verticalAlign=top;spacing=30;" parent="1" vertex="1">
          <mxGeometry x="-950" y="220" width="420" height="450" as="geometry" />
        </mxCell>
        <mxCell id="700" value="&lt;font&gt;&lt;font style=&quot;font-size: 26px&quot;&gt;Key Partners&lt;/font&gt;&lt;br&gt;&lt;/font&gt;&lt;font style=&quot;font-size: 12px&quot;&gt;&lt;br style=&quot;font-size: 12px&quot;&gt;&lt;font style=&quot;font-size: 12px&quot;&gt;Who are our Key Partners?&lt;br style=&quot;font-size: 12px&quot;&gt;Who are our key suppliers?&lt;br style=&quot;font-size: 12px&quot;&gt;Which Key Resources are we acuariring from partners?&lt;br style=&quot;font-size: 12px&quot;&gt;&lt;/font&gt;&lt;br style=&quot;font-size: 12px&quot;&gt;&lt;/font&gt;&lt;div style=&quot;font-size: 10px&quot;&gt;&lt;font style=&quot;font-size: 10px&quot;&gt;&lt;b&gt;Motivations for partnerships&lt;/b&gt;&lt;/font&gt;&lt;/div&gt;&lt;div style=&quot;font-size: 10px&quot;&gt;&lt;font style=&quot;font-size: 10px&quot;&gt;Optimization and economy&lt;/font&gt;&lt;/div&gt;&lt;div style=&quot;font-size: 10px&quot;&gt;&lt;font style=&quot;font-size: 10px&quot;&gt;Reduction of risk and uncertainty&lt;/font&gt;&lt;/div&gt;&lt;div style=&quot;font-size: 10px&quot;&gt;&lt;font style=&quot;font-size: 10px&quot;&gt;Acquisition of particular resources and activities&lt;/font&gt;&lt;/div&gt;&lt;div style=&quot;font-size: 12px&quot;&gt;&lt;br style=&quot;font-size: 12px&quot;&gt;&lt;/div&gt;" style="rounded=0;whiteSpace=wrap;html=1;shadow=0;labelBackgroundColor=none;strokeColor=#e8edf0;strokeWidth=5;fillColor=#ffffff;fontSize=12;fontColor=#2F5B7C;align=left;verticalAlign=top;spacing=30;" parent="1" vertex="1">
          <mxGeometry x="-2210" y="220" width="420" height="900" as="geometry" />
        </mxCell>
        <mxCell id="701" value="&lt;font&gt;&lt;font style=&quot;font-size: 26px&quot;&gt;Key Activities&lt;/font&gt;&lt;br style=&quot;font-size: 12px&quot;&gt;&lt;/font&gt;&lt;font&gt;&lt;br style=&quot;font-size: 12px&quot;&gt;&lt;div&gt;What Key Activities do our Value Propositions require?&lt;/div&gt;&lt;div&gt;Our Distribution Channels?&lt;/div&gt;&lt;div&gt;Customer Relationships?&lt;/div&gt;&lt;div&gt;Revenue streams?&lt;/div&gt;&lt;div&gt;&lt;br&gt;&lt;/div&gt;&lt;/font&gt;&lt;div style=&quot;font-size: 10px&quot;&gt;&lt;div&gt;&lt;b&gt;Categories&lt;/b&gt;&lt;/div&gt;&lt;div&gt;Production&lt;/div&gt;&lt;div&gt;Problem Solving&lt;/div&gt;&lt;div&gt;Platform/Network&lt;/div&gt;&lt;/div&gt;&lt;div&gt;&lt;br&gt;&lt;/div&gt;" style="rounded=0;whiteSpace=wrap;html=1;shadow=0;labelBackgroundColor=none;strokeColor=#e8edf0;strokeWidth=5;fillColor=#ffffff;fontSize=12;fontColor=#2F5B7C;align=left;verticalAlign=top;spacing=30;" parent="1" vertex="1">
          <mxGeometry x="-1790" y="220" width="420" height="450" as="geometry" />
        </mxCell>
        <mxCell id="702" value="&lt;div&gt;&lt;font style=&quot;font-size: 26px&quot;&gt;Key Resources&lt;/font&gt;&lt;/div&gt;&lt;div&gt;&lt;br&gt;&lt;/div&gt;&lt;div&gt;What Key Resources do our Value Propositions require?&lt;/div&gt;&lt;div&gt;Our Distribution Channels? Customer Relationships?&lt;/div&gt;&lt;div&gt;Revenue Streams?&lt;/div&gt;&lt;div&gt;&lt;br&gt;&lt;/div&gt;&lt;div style=&quot;font-size: 10px&quot;&gt;&lt;font style=&quot;font-size: 10px&quot;&gt;&lt;b&gt;Types of resources&lt;/b&gt;&lt;/font&gt;&lt;/div&gt;&lt;div style=&quot;font-size: 10px&quot;&gt;&lt;font style=&quot;font-size: 10px&quot;&gt;Physical&lt;/font&gt;&lt;/div&gt;&lt;div style=&quot;font-size: 10px&quot;&gt;&lt;font style=&quot;font-size: 10px&quot;&gt;Intellectual (brand patents, copyrights, data)&lt;/font&gt;&lt;/div&gt;&lt;div style=&quot;font-size: 10px&quot;&gt;&lt;font style=&quot;font-size: 10px&quot;&gt;Human&lt;/font&gt;&lt;/div&gt;&lt;div style=&quot;font-size: 10px&quot;&gt;&lt;font style=&quot;font-size: 10px&quot;&gt;Financial&lt;/font&gt;&lt;/div&gt;" style="rounded=0;whiteSpace=wrap;html=1;shadow=0;labelBackgroundColor=none;strokeColor=#e8edf0;strokeWidth=5;fillColor=#ffffff;fontSize=12;fontColor=#2F5B7C;align=left;verticalAlign=top;spacing=30;" parent="1" vertex="1">
          <mxGeometry x="-1790" y="670" width="420" height="450" as="geometry" />
        </mxCell>
        <mxCell id="703" value="&lt;div style=&quot;font-size: 26px&quot;&gt;&lt;font style=&quot;font-size: 26px&quot;&gt;Value Propositions&lt;/font&gt;&lt;/div&gt;&lt;div&gt;&lt;br&gt;&lt;/div&gt;&lt;div&gt;What value do we deliver to the customer?&lt;/div&gt;&lt;div&gt;Which one of our customer’s problems are we helping to solve?&lt;/div&gt;&lt;div&gt;What bundles of products and services are we offering to each Customer Segment?&lt;/div&gt;&lt;div&gt;Which customer needs are we satisfying?&lt;/div&gt;&lt;div&gt;&lt;br&gt;&lt;/div&gt;&lt;div style=&quot;font-size: 10px&quot;&gt;&lt;font style=&quot;font-size: 10px&quot;&gt;&lt;b&gt;Characteristics&lt;/b&gt;&lt;/font&gt;&lt;/div&gt;&lt;div style=&quot;font-size: 10px&quot;&gt;&lt;font style=&quot;font-size: 10px&quot;&gt;Newness&lt;/font&gt;&lt;/div&gt;&lt;div style=&quot;font-size: 10px&quot;&gt;&lt;font style=&quot;font-size: 10px&quot;&gt;Performance&lt;/font&gt;&lt;/div&gt;&lt;div style=&quot;font-size: 10px&quot;&gt;&lt;font style=&quot;font-size: 10px&quot;&gt;Customization&lt;/font&gt;&lt;/div&gt;&lt;div style=&quot;font-size: 10px&quot;&gt;&lt;font style=&quot;font-size: 10px&quot;&gt;“Getting the Job Done”&lt;/font&gt;&lt;/div&gt;&lt;div style=&quot;font-size: 10px&quot;&gt;&lt;font style=&quot;font-size: 10px&quot;&gt;Design&lt;/font&gt;&lt;/div&gt;&lt;div style=&quot;font-size: 10px&quot;&gt;&lt;font style=&quot;font-size: 10px&quot;&gt;Brand/Status&lt;/font&gt;&lt;/div&gt;&lt;div style=&quot;font-size: 10px&quot;&gt;&lt;font style=&quot;font-size: 10px&quot;&gt;Price&lt;/font&gt;&lt;/div&gt;&lt;div style=&quot;font-size: 10px&quot;&gt;&lt;font style=&quot;font-size: 10px&quot;&gt;Cost Reduction&lt;/font&gt;&lt;/div&gt;&lt;div style=&quot;font-size: 10px&quot;&gt;&lt;font style=&quot;font-size: 10px&quot;&gt;Risk Reduction&lt;/font&gt;&lt;/div&gt;&lt;div style=&quot;font-size: 10px&quot;&gt;&lt;font style=&quot;font-size: 10px&quot;&gt;Accessibility&lt;/font&gt;&lt;/div&gt;&lt;div style=&quot;font-size: 10px&quot;&gt;&lt;font style=&quot;font-size: 10px&quot;&gt;Convenience/Usability&lt;/font&gt;&lt;/div&gt;&lt;div style=&quot;font-size: 10px&quot;&gt;&lt;br&gt;&lt;/div&gt;" style="rounded=0;whiteSpace=wrap;html=1;shadow=0;labelBackgroundColor=none;strokeColor=#e8edf0;strokeWidth=5;fillColor=#ffffff;fontSize=12;fontColor=#2F5B7C;align=left;verticalAlign=top;spacing=30;" parent="1" vertex="1">
          <mxGeometry x="-1370" y="220" width="420" height="900" as="geometry" />
        </mxCell>
        <mxCell id="704" value="&lt;div&gt;&lt;font style=&quot;font-size: 26px&quot;&gt;Customer Segments&lt;/font&gt;&lt;/div&gt;&lt;div&gt;&lt;br&gt;&lt;/div&gt;&lt;div&gt;For whom are we creating value?&lt;/div&gt;&lt;div&gt;Who are our most important customers?&lt;/div&gt;&lt;div&gt;&lt;br&gt;&lt;/div&gt;&lt;div style=&quot;font-size: 10px&quot;&gt;&lt;font style=&quot;font-size: 10px&quot;&gt;Mass Market&lt;/font&gt;&lt;/div&gt;&lt;div style=&quot;font-size: 10px&quot;&gt;&lt;font style=&quot;font-size: 10px&quot;&gt;Niche Market&lt;/font&gt;&lt;/div&gt;&lt;div style=&quot;font-size: 10px&quot;&gt;&lt;font style=&quot;font-size: 10px&quot;&gt;Segmented&lt;/font&gt;&lt;/div&gt;&lt;div style=&quot;font-size: 10px&quot;&gt;&lt;font style=&quot;font-size: 10px&quot;&gt;Diversified&lt;/font&gt;&lt;/div&gt;&lt;div style=&quot;font-size: 10px&quot;&gt;&lt;font style=&quot;font-size: 10px&quot;&gt;Multi-sided Platform&lt;/font&gt;&lt;/div&gt;" style="rounded=0;whiteSpace=wrap;html=1;shadow=0;labelBackgroundColor=none;strokeColor=#e8edf0;strokeWidth=5;fillColor=#ffffff;fontSize=12;fontColor=#2F5B7C;align=left;verticalAlign=top;spacing=30;" parent="1" vertex="1">
          <mxGeometry x="-530" y="220" width="420" height="900" as="geometry" />
        </mxCell>
        <mxCell id="705" value="&lt;div&gt;&lt;font style=&quot;font-size: 26px&quot;&gt;Channels&lt;/font&gt;&lt;/div&gt;&lt;div&gt;&lt;br&gt;&lt;/div&gt;&lt;div&gt;Through which Channels do our Customer Segments&lt;/div&gt;&lt;div&gt;want to be reached?&lt;/div&gt;&lt;div&gt;How are we reaching them now?&lt;/div&gt;&lt;div&gt;How are our Channels integrated?&lt;/div&gt;&lt;div&gt;Which ones work best?&lt;/div&gt;&lt;div&gt;Which ones are most cost-efficient?&lt;/div&gt;&lt;div&gt;How are we integrating them with customer routines?&lt;/div&gt;&lt;div&gt;&lt;br&gt;&lt;/div&gt;&lt;div style=&quot;font-size: 10px&quot;&gt;&lt;font style=&quot;font-size: 10px&quot;&gt;&lt;b&gt;Channel phases&lt;/b&gt;&lt;/font&gt;&lt;/div&gt;&lt;div style=&quot;font-size: 10px&quot;&gt;&lt;font style=&quot;font-size: 10px&quot;&gt;1. Awareness&lt;/font&gt;&lt;/div&gt;&lt;div style=&quot;font-size: 10px&quot;&gt;&lt;font style=&quot;font-size: 10px&quot;&gt;&amp;nbsp; &amp;nbsp; How do we raise awareness about our company’s products and services?&lt;/font&gt;&lt;/div&gt;&lt;div style=&quot;font-size: 10px&quot;&gt;&lt;font style=&quot;font-size: 10px&quot;&gt;2. Evaluation&lt;/font&gt;&lt;/div&gt;&lt;div style=&quot;font-size: 10px&quot;&gt;&lt;font style=&quot;font-size: 10px&quot;&gt;&amp;nbsp; &amp;nbsp; How do we help customers evaluate our organization’s Value Proposition?&lt;/font&gt;&lt;/div&gt;&lt;div style=&quot;font-size: 10px&quot;&gt;&lt;font style=&quot;font-size: 10px&quot;&gt;3. Purchase&lt;/font&gt;&lt;/div&gt;&lt;div style=&quot;font-size: 10px&quot;&gt;&lt;font style=&quot;font-size: 10px&quot;&gt;&amp;nbsp; &amp;nbsp; How do we allow customers to purchase specific products and services?&lt;/font&gt;&lt;/div&gt;&lt;div style=&quot;font-size: 10px&quot;&gt;&lt;font style=&quot;font-size: 10px&quot;&gt;4. Delivery&lt;/font&gt;&lt;/div&gt;&lt;div style=&quot;font-size: 10px&quot;&gt;&lt;font style=&quot;font-size: 10px&quot;&gt;&amp;nbsp; &amp;nbsp; How do we deliver a Value Proposition to customers?&lt;/font&gt;&lt;/div&gt;&lt;div style=&quot;font-size: 10px&quot;&gt;&lt;font style=&quot;font-size: 10px&quot;&gt;5. After sales&lt;/font&gt;&lt;/div&gt;&lt;div style=&quot;font-size: 10px&quot;&gt;&lt;font style=&quot;font-size: 10px&quot;&gt;&amp;nbsp; &amp;nbsp; How do we provide post-purchase customer support?&lt;/font&gt;&lt;/div&gt;&lt;div style=&quot;font-size: 10px&quot;&gt;&lt;br&gt;&lt;/div&gt;" style="rounded=0;whiteSpace=wrap;html=1;shadow=0;labelBackgroundColor=none;strokeColor=#e8edf0;strokeWidth=5;fillColor=#ffffff;fontSize=12;fontColor=#2F5B7C;align=left;verticalAlign=top;spacing=30;" parent="1" vertex="1">
          <mxGeometry x="-950" y="670" width="420" height="450" as="geometry" />
        </mxCell>
        <mxCell id="706" value="&lt;div style=&quot;font-size: 26px&quot;&gt;&lt;font style=&quot;font-size: 26px&quot;&gt;Cost Structure&lt;/font&gt;&lt;/div&gt;&lt;div&gt;&lt;br&gt;&lt;/div&gt;&lt;div&gt;What are the most important costs inherent in our business model?&lt;/div&gt;&lt;div&gt;Which Key Resources are most expensive?&lt;/div&gt;&lt;div&gt;Which Key Activities are most expensive?&lt;/div&gt;&lt;div&gt;&lt;br&gt;&lt;/div&gt;&lt;div style=&quot;font-size: 10px&quot;&gt;&lt;font style=&quot;font-size: 10px&quot;&gt;&lt;b&gt;Is your business more&lt;/b&gt;&lt;/font&gt;&lt;/div&gt;&lt;div style=&quot;font-size: 10px&quot;&gt;&lt;font style=&quot;font-size: 10px&quot;&gt;Cost Driven (leanest cost structure, low price value proposition, maximum automation, extensive outsourcing)&lt;/font&gt;&lt;/div&gt;&lt;div style=&quot;font-size: 10px&quot;&gt;&lt;font style=&quot;font-size: 10px&quot;&gt;Value Driven ( focused on value creation, premium value proposition)&lt;/font&gt;&lt;/div&gt;&lt;div style=&quot;font-size: 10px&quot;&gt;&lt;font style=&quot;font-size: 10px&quot;&gt;&lt;br&gt;&lt;/font&gt;&lt;/div&gt;&lt;div style=&quot;font-size: 10px&quot;&gt;&lt;font style=&quot;font-size: 10px&quot;&gt;&lt;b&gt;Sample characteristics&lt;/b&gt;&lt;/font&gt;&lt;/div&gt;&lt;div style=&quot;font-size: 10px&quot;&gt;&lt;font style=&quot;font-size: 10px&quot;&gt;Fixed Costs (salaries, rents, utilities)&lt;/font&gt;&lt;/div&gt;&lt;div style=&quot;font-size: 10px&quot;&gt;&lt;font style=&quot;font-size: 10px&quot;&gt;Variable costs&lt;/font&gt;&lt;/div&gt;&lt;div style=&quot;font-size: 10px&quot;&gt;&lt;font style=&quot;font-size: 10px&quot;&gt;Economies of scale&lt;/font&gt;&lt;/div&gt;&lt;div style=&quot;font-size: 10px&quot;&gt;&lt;font style=&quot;font-size: 10px&quot;&gt;Economies of scope&lt;/font&gt;&lt;/div&gt;" style="rounded=0;whiteSpace=wrap;html=1;shadow=0;labelBackgroundColor=none;strokeColor=#e8edf0;strokeWidth=5;fillColor=#ffffff;fontSize=12;fontColor=#2F5B7C;align=left;verticalAlign=top;spacing=30;" parent="1" vertex="1">
          <mxGeometry x="-2210" y="1120" width="1050" height="330" as="geometry" />
        </mxCell>
        <mxCell id="707" value="&lt;div style=&quot;font-size: 26px&quot;&gt;&lt;font style=&quot;font-size: 26px&quot;&gt;Revenue Streams&lt;/font&gt;&lt;/div&gt;&lt;div&gt;&lt;br&gt;&lt;/div&gt;&lt;div&gt;For what value are our customers really willing to pay?&lt;/div&gt;&lt;div&gt;For what do they currently pay?&lt;/div&gt;&lt;div&gt;How are they currently paying?&lt;/div&gt;&lt;div&gt;How would they prefer to pay?&lt;/div&gt;&lt;div&gt;How much does each Revenue Stream contribute to overall revenues?&lt;/div&gt;" style="rounded=0;whiteSpace=wrap;html=1;shadow=0;labelBackgroundColor=none;strokeColor=#e8edf0;strokeWidth=5;fillColor=#ffffff;fontSize=12;fontColor=#2F5B7C;align=left;verticalAlign=top;spacing=30;" parent="1" vertex="1">
          <mxGeometry x="-1160" y="1120" width="1050" height="330" as="geometry" />
        </mxCell>
        <mxCell id="708" value="&lt;font style=&quot;font-size: 14px;&quot;&gt;&lt;span&gt;arc42 Architecture Communication Canvas (ACC) &lt;/span&gt;&lt;span&gt;  &lt;/span&gt;  by  &lt;span&gt; Gernot Starke and arc42 contributors &lt;/span&gt;&lt;span&gt; is licensed under&lt;/span&gt;&lt;/font&gt;" style="text;html=1;resizable=0;points=[];autosize=1;align=left;verticalAlign=top;spacingTop=-4;fontSize=60;fontColor=#2F5B7C;" parent="1" vertex="1">
          <mxGeometry x="-2210" y="1470" width="690" height="80" as="geometry" />
        </mxCell>
        <mxCell id="709" value="" style="html=1;verticalLabelPosition=bottom;labelBackgroundColor=#ffffff;verticalAlign=top;shadow=0;dashed=0;strokeWidth=4;shape=mxgraph.ios7.misc.check;strokeColor=#2F5B7C;fillColor=#ffffff;gradientColor=none;fontSize=12;fontColor=#2F5B7C;align=left;" parent="1" vertex="1">
          <mxGeometry x="-1410" y="252" width="20" height="16" as="geometry" />
        </mxCell>
        <mxCell id="710" value="" style="shape=mxgraph.signs.travel.present;html=1;fillColor=#2F5B7C;strokeColor=none;verticalLabelPosition=bottom;verticalAlign=top;align=center;shadow=0;labelBackgroundColor=none;fontSize=12;fontColor=#2F5B7C;" parent="1" vertex="1">
          <mxGeometry x="-1000" y="235" width="31" height="40" as="geometry" />
        </mxCell>
        <mxCell id="711" value="" style="html=1;verticalLabelPosition=bottom;labelBackgroundColor=#ffffff;verticalAlign=top;strokeWidth=3;strokeColor=none;fillColor=#2F5B7C;shadow=0;dashed=0;shape=mxgraph.ios7.icons.heart;fontSize=12;fontColor=#2F5B7C;align=left;" parent="1" vertex="1">
          <mxGeometry x="-594.9999999999997" y="242" width="41" height="36" as="geometry" />
        </mxCell>
        <mxCell id="712" value="&lt;div style=&quot;font-size: 10px&quot;&gt;&lt;b&gt;Dynamic pricing&lt;/b&gt;&lt;/div&gt;&lt;div style=&quot;font-size: 10px&quot;&gt;Negotiation( bargaining)&lt;/div&gt;&lt;div style=&quot;font-size: 10px&quot;&gt;Yield Management&lt;/div&gt;&lt;div style=&quot;font-size: 10px&quot;&gt;Real-time-Market&lt;/div&gt;" style="text;html=1;resizable=0;points=[];autosize=1;align=left;verticalAlign=top;spacingTop=-4;fontSize=10;fontColor=#2F5B7C;" parent="1" vertex="1">
          <mxGeometry x="-805.5" y="1286" width="120" height="50" as="geometry" />
        </mxCell>
        <mxCell id="713" value="&lt;div style=&quot;font-size: 10px&quot;&gt;&lt;b&gt;Fixed pricing&lt;/b&gt;&lt;/div&gt;&lt;div style=&quot;font-size: 10px&quot;&gt;List Price&lt;/div&gt;&lt;div style=&quot;font-size: 10px&quot;&gt;Product feature dependent&lt;/div&gt;&lt;div style=&quot;font-size: 10px&quot;&gt;Customer segment dependent&lt;/div&gt;&lt;div style=&quot;font-size: 10px&quot;&gt;Volume dependent&lt;/div&gt;" style="text;html=1;resizable=0;points=[];autosize=1;align=left;verticalAlign=top;spacingTop=-4;fontSize=10;fontColor=#2F5B7C;" parent="1" vertex="1">
          <mxGeometry x="-984.5" y="1286" width="150" height="60" as="geometry" />
        </mxCell>
        <mxCell id="715" value="" style="shadow=0;dashed=0;html=1;strokeColor=none;labelPosition=center;verticalLabelPosition=bottom;verticalAlign=top;shape=mxgraph.mscae.cloud.data_factory;fillColor=#2F5B7C;labelBackgroundColor=none;fontSize=10;fontColor=#2F5B7C;align=left;" parent="1" vertex="1">
          <mxGeometry x="-1440" y="690" width="50" height="50" as="geometry" />
        </mxCell>
        <mxCell id="716" value="" style="shape=mxgraph.signs.transportation.truck_6;html=1;fillColor=#2F5B7C;strokeColor=none;verticalLabelPosition=bottom;verticalAlign=top;align=center;shadow=0;labelBackgroundColor=none;fontSize=10;fontColor=#2F5B7C;aspect=fixed;" parent="1" vertex="1">
          <mxGeometry x="-590" y="690" width="40" height="50" as="geometry" />
        </mxCell>
        <mxCell id="717" value="" style="shape=image;html=1;verticalAlign=top;verticalLabelPosition=bottom;labelBackgroundColor=#ffffff;imageAspect=0;aspect=fixed;image=https://cdn4.iconfinder.com/data/icons/evil-icons-user-interface/64/price-128.png;shadow=0;strokeColor=#e8edf0;strokeWidth=3;fillColor=#2F5B7C;gradientColor=none;fontSize=10;fontColor=#2F5B7C;align=left;" parent="1" vertex="1">
          <mxGeometry x="-1226" y="1140" width="58" height="58" as="geometry" />
        </mxCell>
        <mxCell id="718" value="" style="dashed=0;html=1;shape=mxgraph.aws3.checklist_cost;fillColor=#2F5B7C;gradientColor=none;shadow=0;labelBackgroundColor=none;strokeColor=none;strokeWidth=3;fontSize=10;fontColor=#2F5B7C;align=left;" parent="1" vertex="1">
          <mxGeometry x="-203.5" y="1131.5" width="67.5" height="75" as="geometry" />
        </mxCell>
        <mxCell id="719" value="" style="shadow=0;dashed=0;html=1;strokeColor=none;fillColor=#2F5B7C;labelPosition=center;verticalLabelPosition=bottom;verticalAlign=top;outlineConnect=0;shape=mxgraph.office.concepts.link;labelBackgroundColor=none;fontSize=10;fontColor=#000000;align=left;" parent="1" vertex="1">
          <mxGeometry x="-1871" y="241" width="61" height="21" as="geometry" />
        </mxCell>
        <mxCell id="720" value="" style="group" parent="1" vertex="1" connectable="0">
          <mxGeometry x="-203.5" y="245" width="69" height="50" as="geometry" />
        </mxCell>
        <mxCell id="721" value="" style="shadow=0;dashed=0;html=1;strokeColor=#FFFFFF;labelPosition=center;verticalLabelPosition=bottom;verticalAlign=top;outlineConnect=0;shape=mxgraph.office.users.user;fillColor=#2F5B7C;labelBackgroundColor=none;fontSize=10;fontColor=#000000;align=left;strokeWidth=2;" parent="720" vertex="1">
          <mxGeometry x="31" y="-5" width="46" height="50" as="geometry" />
        </mxCell>
        <mxCell id="722" value="" style="shadow=0;dashed=0;html=1;strokeColor=#FFFFFF;labelPosition=center;verticalLabelPosition=bottom;verticalAlign=top;outlineConnect=0;shape=mxgraph.office.users.user;fillColor=#2F5B7C;labelBackgroundColor=none;fontSize=10;fontColor=#000000;align=left;strokeWidth=2;" parent="720" vertex="1">
          <mxGeometry width="46" height="50" as="geometry" />
        </mxCell>
        <mxCell id="oz0HphpjMoNRiyryh3UB-722" value="" style="shape=image;verticalLabelPosition=bottom;labelBackgroundColor=default;verticalAlign=top;aspect=fixed;imageAspect=0;image=data:image/png,iVBORw0KGgoAAAANSUhEUgAAB4EAAAPBCAYAAADwK9wiAAAABGdBTUEAANbY1E9YMgAAAAlwSFlzAAALEwAACxMBAJqcGAAAAVlpVFh0WE1MOmNvbS5hZG9iZS54bXAAAAAAADx4OnhtcG1ldGEgeG1sbnM6eD0iYWRvYmU6bnM6bWV0YS8iIHg6eG1wdGs9IlhNUCBDb3JlIDUuNC4wIj4KICAgPHJkZjpSREYgeG1sbnM6cmRmPSJodHRwOi8vd3d3LnczLm9yZy8xOTk5LzAyLzIyLXJkZi1zeW50YXgtbnMjIj4KICAgICAgPHJkZjpEZXNjcmlwdGlvbiByZGY6YWJvdXQ9IiIKICAgICAgICAgICAgeG1sbnM6dGlmZj0iaHR0cDovL25zLmFkb2JlLmNvbS90aWZmLzEuMC8iPgogICAgICAgICA8dGlmZjpPcmllbnRhdGlvbj4xPC90aWZmOk9yaWVudGF0aW9uPgogICAgICA8L3JkZjpEZXNjcmlwdGlvbj4KICAgPC9yZGY6UkRGPgo8L3g6eG1wbWV0YT4KTMInWQAAQABJREFUeAHs3f2V2+b5JmDnnP3/x60g2ArMDowOMltBmAqsVJBxBXYqkF2B5QoEVaBxBYIrMFNB9n4cYkOPR9J8ECA+ruecRwBJEHjfC7DPoW6B/OILRYAAAQIECBAgQIAAAQIECBAgQIAAAQIECBAgQIAAAQIECBAgQIAAAQIECBAgQIAAAQIECBAgQIAAAQIECBAgQIAAAQIECBAgQIAAAQIECBAgQIAAAQIECBAgQIAAAQIECBAgQIAAAQIECBAgQIAAAQIECBAgQIAAAQIECBAgQIAAAQIECBAgQIAAAQIECBAgQIAAAQIECBAgQIAAAQIECBAgQIAAAQIECBAgQIAAAQIECBAgQIAAAQIECBAgQIAAAQIECBAgQIAAAQIECBAgQIAAAQIECBAgQIAAAQIECBAgQIAAAQIECBAgQIAAAQIECBAgQIAAAQIECBAgQIAAAQIECBAgQIAAAQIECBAgQIAAAQIECBAgQIAAAQIECBAgQIAAAQIECBAgQIAAAQIECBAgQIAAAQIECBAgQIAAAQIECBAgQIAAAQIECBAgQIAAAQIECBAgQIAAAQIECBAgQIAAAQIECBAgQIAAAQIECBAgQIAAAQIECBAgQIAAAQIECBAgQIAAAQIECBAgQIAAAQIECBAgQIAAAQIECBAgQIAAAQIECBAgQIAAAQIECBAgQIAAAQIECBAgQIAAAQIECBAgQIAAAQIECBAgQIAAAQIECBAgQIAAAQIECBAgQIAAAQIECBAgQIAAAQIECBAgQIAAAQIECBAgQIAAAQIECBAgQIAAAQIECBAgQIAAAQIECBAgQIAAAQIECBAgQIAAAQIECBAgQIAAAQIECBAgQIAAAQIECBAgQIAAAQIECBAgQIAAAQIECBAgQIAAAQIECBAgQIAAAQIECBAgQIAAAQIECBAgQIAAAQIECBAgQIAAAQIECBAgQIAAAQIECBAgQIAAAQIECBAgQIAAAQIECBAgQIAAAQIECBAgQIAAAQIECBAgQIAAAQIECBAgQIAAAQIECBAgQIAAAQIECBAgQIAAAQIECBAgQIAAAQIECBAgQIAAAQIECBAgQIAAAQIECBAgQIAAAQIECBAgQIAAAQIECBAgQIAAAQIECBAgQIAAAQIECBAgQIAAAQIECBAgQIAAAQIECBAgQIAAAQIECBAgQIAAAQIECBAgQIAAAQIECBAgQIAAAQIECBAgQIAAAQIECBAgQIAAAQIECBAgQIAAAQIECBAgQIAAAQIECBAgQIAAAQIECBAgQIAAAQIECBAgQIAAAQIECBAgQIAAAQIECBAgQIAAAQIECBAgQIAAAQIECBAgQIAAAQIECBAgQIAAAQIECBAgQIAAAQIECBAgQIAAAQIECBAgQIAAAQIECBAgQIAAAQIECBAgQIAAAQIECBAgQIAAAQIECBAgQIAAAQIECBAgQIAAAQIECBAgQIAAAQIECBAgQIAAAQIECBAgQIAAAQIECBAgQIAAAQIECBAgQIAAAQIECBAgQIAAAQIECBAgQIAAAQIECBAgQIAAAQIECBAgQIAAAQIECBAgQIAAAQIECBAgQIAAAQIECBAgQIAAAQIECBAgQIAAAQIECBAgQIAAAQIECBAgQIAAAQIECBAgQIAAAQIECBAgQIAAAQIECBAgQIAAAQIECBAgQIAAAQIECBAgQIAAAQIECBAgQIAAAQIECBAgQIAAAQIECBAgQIAAAQIECBAgQIAAAQIECBAgQIAAAQIECBAgQIAAAQIECBAgQIAAAQIECBAgQIAAAQIECBAgQIAAAQIECBAgQIAAAQIECBAgQIAAAQIECBAgQIAAAQIECBAgQIAAAQIECBAgQIAAAQIECBAgQIAAAQIECBAgQIAAAQIECBAgQIAAAQIECBAgQIAAAQIECBAgQIAAAQIECBAgQIAAAQIECBAgQIAAAQIECBAgQIAAAQIECBAgQIAAAQIECBAgQIAAAQIECBAgQIAAAQIECBAgQIAAAQIECBAgQIAAAQIECBAgQIAAAQIECBAgQIAAAQIECBAgQIAAAQIECBAgQIAAAQIECBAgQIAAAQIECBAgQIAAAQIECBAgQIAAAQIECBAgQIAAAQIECBAgQIAAAQIECBAgQIAAAQIECBAgQIAAAQIECBAgQIAAAQIECBAgQIAAAQIECBAgQIAAAQIECBAgQIAAAQIECBAgQIAAAQIECBAgQIAAAQIECBAgQIAAAQIECBAgQIAAAQIECBAgQIAAAQIECBAgQIAAAQIECBAgQIAAAQIECBAgQIAAAQIECBAgQIAAAQIECBAgQIAAAQIECBAgQIAAAQIECBAgQIAAAQIECBAgQIAAAQIECBAgQIAAAQIECBAgQIAAAQIECBAgQIAAAQIECBAgQIAAAQIECBAgQIAAAQIECBAgQIAAAQIECBAgQIAAAQIECBAgQIAAAQIECBAgQIAAAQIECBAgQIAAAQIECBAgQIAAAQIECBAgQIAAAQIECBAgQIAAAQIECBAgQIAAAQIECBAgQIAAAQIECBAgQIAAAQIECBAgQIAAAQIECBAgQIAAAQIECBAgQIAAAQIECBAgQIAAAQIECBAgQIAAAQIECBAgQIAAAQIECBAgQIAAAQIECBAgQIAAAQIECBAgQIAAAQIECBAgQIAAAQIECBAgQIAAAQIECBAgQIAAAQIECBAgQIAAAQIECBAgQIAAAQIECBAgQIAAAQIECBAgQIAAAQIECBAgQIAAAQIECBAgQIAAAQIECBAgQIAAAQIECBAgQIAAAQIECBAgQIAAAQIECBAgQIAAAQIECBAgQIAAAQIECBAgQIAAAQIECBAgQIAAAQIECBAgQIAAAQIECBAgQIAAAQIECBAgQIAAAQIECBAgQIAAAQIECBAgQIAAAQIECBAgQIAAAQIECBAgQIAAAQIECBAgQIAAAQIECBAgQIAAAQIECBAgQIAAAQIECBAgQIAAAQIECBAgQIAAAQIECBAgQIAAAQIECBAgQIAAAQIECBAgQIAAAQIECBAgQIAAAQIECBAgQIAAAQIECBAgQIAAAQIECBAgQIAAAQIECBAgQIAAAQIECBAgQIAAAQIECBAgQIAAAQIECBAgQIAAAQIECBAgQIAAAQIECBAgQIAAAQIECBAgQIAAAQIECBAgQIAAAQIECBAgQIAAAQIECBAgQIAAAQIECBAgQIAAAQIECBAgQIAAAQIECBAgQIAAAQIECBAgQIAAAQIECBAgQIAAAQIECBAgQIAAAQIECBAgQIAAAQIECBAgQIAAAQIECBAgQIAAAQIECBAgQIAAAQIECBAgQIAAAQIECBAgQIAAAQIECBAgQIAAAQIECBAgQIAAAQIECBAgQIAAAQIECBAgQIAAAQIECBAgQIAAAQIECBAgQIAAAQIECBAgQIAAAQIECBAgQIAAAQIECBAgQIAAAQIECBAgQIAAAQIECBAgQIAAAQIECBAgQIAAAQIECBAgQIAAAQIECBAgQIAAAQIECBAgQIAAAQIECBAgQIAAAQIECBAgQIAAAQIECBAgQIAAAQIECBAgQIAAAQIECBAgQIAAAQIECBAgQIAAAQIECBAgQIAAAQIECBAgQIAAAQIECBAgQIAAAQIECBAgQIAAAQIECBAgQIAAAQIECBAgQIAAAQIECBAgQIAAAQIECBAgQIAAAQIECBAgQIAAAQIECBAgQIAAAQIECBAgQIAAAQIECBAgQIAAAQIECBAgQIAAAQIECBAgQIAAAQIECBAgQIAAAQIECBAgQIAAAQIECBAgQIAAAQIECBAgQIAAAQIECBAgQIAAAQIECBAgQIAAAQIECBAgQIAAAQIECBAgQIAAAQIECBAgQIAAAQIECBAgQIAAAQIECBAgQIAAAQIECBAgQIAAAQIECBAgQIAAAQIECBAgQIAAAQIECBAgQIAAAQIECBAgQIAAAQIECBAgQIAAAQIECBAgQIAAAQIECBAgQIAAAQIECBAgQIAAAQIECBAgQIAAAQIECBAgQIAAAQIECBAgQIAAAQIECBAgQIAAAQIECBAgQIAAAQIECBAgQIAAAQIECBAgQIAAAQIECBAgQIAAAQIECBAgQIAAAQIECBAgQIAAAQIECBAgQIAAAQIECBAgQIAAAQIECBAgQIAAAQIECBAgQIAAAQIECBAgQIAAAQIECBAgQIAAAQIECBAgQIAAAQIECBAgQIAAAQIECBAgQIAAAQIECBAgQIAAAQIECBAgQIAAAQIECBAgQIAAAQIECBAgQIAAAQIECBAgQIAAAQIECBAgQIAAAQIECBAgQIAAAQIECBAgQIAAAQIECBAgQIAAAQIECBAgQIAAAQIECBAgQIAAAQILF/jTwsdv+AQIECBAgAABAgQIECBAgAABAgQIECBAgAABAgQeI9Bko+qxqhtrx/ZL4KkCQuCnitmeAAECBAgQIECAAAECBAgQIECAAAECBAgQILAMgV2GuX/CUNsnbDts+mVW6jjPraeO8bnHmeJ9fQ7yt3SXVgSuKiAEviq/gxMgQIAAAQIECBAgQIAAAQIECBAgQIAAAQIrE2gyn+qPVZMXqj9W/5MXPhfcrik4/ZjDkp/vMvgKg/u0InAVASHwVdgdlAABAgQIECBAgAABAgQIECBAgAABAgQIEJhQoMmxqu9XkyeqH6pP3eFaIW0FsYrApwS+y4vfpI+f2shrBMYQEAKPoWqfBAgQIECAAAECBAgQIECAAAECBAgQIECAwFMFHgpWK2it5+/Xn/NEc//JPH5oHw9s5ikCkwkcc6QKgr+b7IgORCACQmCXAQECBAgQIECAAAECBAgQIECAAAECBAgQIPAcgfaBNz303FeP3O6BzTxFYDUCfWbyt3SXVgRGFxACj07sAAQIECBAgAABAgQIECBAgAABAgQIECBAYDYCu4yk7pY9r3pczw/10G/S3t9m2NaSAIGnCXTZvMLgPq0IjCYgBB6N1o4JECBAgAABAgQIECBAgAABAgQIECBAgMDFBdp7e7z/+P7v2DbZvloRIDAvgW8ynO/Sx3kNy2jWIiAEXsuZNA8CBAgQIECAAAECBAgQIECAAAECBAgQWILA/Ttq23uDvv/Vyfdfv7e5hwQILFigAuC/p79f8BwMfaYCQuCZnhjDIkCAAAECBAgQIECAAAECBAgQIECAAIHZCjQZWfVQ58Hu/a9SbrJRtSJAgMDHBO7yQoXB3cc28DyBpwoIgZ8qZnsCBAgQIECAAAECBAgQIECAAAECBAgQWIvALhOpAHeodljJ8s/p5uxxe7ZulQABAmMIvMlOKwzux9i5fW5LQAi8rfNttgQIECBAgAABAgQIECBAgAABAgQIEFirQJOJVVfdD3fPv2K5Qt96XREgQGCuAt9kYN+lj3MdoHHNX0AIPP9zZIQECBAgQIAAAQIECBAgQIAAAQIECBDYokB7Nunz9S/z/BDi7s/Wzza3SoAAgcULVADs94IXfxqvNwEh8PXsHZkAAQIECBAgQIAAAQIECBAgQIAAAQJbEajQtgLbqvP189/PPX/+P1v6kwABAgTuQuD3gl0HTxYQAj+ZzBsIECBAgAABAgQIECBAgAABAgQIECBAIAIV6lZwW9X+9ud//jj/6uXz5882sUqAAAECTxT4PtvX10T3aUXgswJC4M8S2YAAAQIECBAgQIAAAQIECBAgQIAAAQKbEWhPMz2/K/fPea45PV/LYf30lAUBAgQITCRwzHH+mf4uXeuKwEcFhMAfpfECAQIECBAgQIAAAQIECBAgQIAAAQIEViGwzyx2p5m0p+X51zCfv3562YIAAQIEZizQZ2zfpL9PKwIPCgiBH2TxJAECBAgQIECAAAECBAgQIECAAAECBGYtUKFuhbdVzalrffgq5vPX63lFgAABAusT6DKlCoNrqQj8TkAI/DsODwgQIECAAAECBAgQIECAAAECBAgQIHBVgfPwtkLeeuyu3aueEgcnQIDA7AW+zwgrDO7TisBvAkJgFwIBAgQIECBAgAABAgQIECBAgAABAgTGFxDujm/sCAQIENiywDGT93vBW74C7s1dCHwPxEMCBAgQIECAAAECBAgQIECAAAECBAg8UWC4Y7fJ+6qrhq9lbrJerQgQIECAwBQCfQ7y9/SbKQ7mGPMVEALP99wYGQECBAgQIECAAAECBAgQIECAAAEC1xdoT0MYgt4/53Fzeq49LS0IECBAgMDcBLoMqMLgu7kNzHimERACT+PsKAQIECBAgAABAgQIECBAgAABAgQIzEtgl+FUsFvV/vbnF198mWU935w6C0WAAAECBBYt8H1GX2HwcdGzMPgnCwiBn0zmDQQIECBAgAABAgQIECBAgAABAgQILECgPY1xWAp4F3DSDJEAAQIERhGoALh+L/h2lL3b6SwFhMCzPC0GRYAAAQIECBAgQIAAAQIECBAgQIDAJwTqDt66Y3dYDl/RPDz3ibd6iQABAgQIbFagz8z9XvBGTr8QeCMn2jQJECBAgAABAgQIECBAgAABAgQILERgCHKHZQ37q9PY29PSggABAgQIEHi+QJe3+r3g5/st4p1C4EWcJoMkQIAAAQIECBAgQIAAAQIECBAgsBqBJjM57+Eu3uG5vKwIECBAgACBCQS+zzH8XvAE0Nc4hBD4GuqOSYAAAQIECBAgQIAAAQIECBAgQGC9AsNXNA/L4bd4h8frnbmZESBAgACB5QkcM+Rv0t8tb+hG/CkBIfCndLxGgAABAgQIECBAgAABAgQIECBAgMB9gSHMHZZC3vtCHhMgQIAAgeUJ9Bny39JdWq1AQAi8gpNoCgQIECBAgAABAgQIECBAgAABAgQuKDCEu8NSyHtBXLsiQIAAAQIzF+gyvgqD+7RasIAQeMEnz9AJECBAgAABAgQIECBAgAABAgQIPENgl/dUwNuc2m/yBkIRIECAAAECvxP4Lo++SR9/96wHixEQAi/mVBkoAQIECBAgQIAAAQIECBAgQIAAgUcLtKcta/k/6Qp9d6dlFooAAQIECBAg8FmBCoArCP7us1vaYHYCQuDZnRIDIkCAAAECBAgQIECAAAECBAgQIPBZgSHQbbJlta9sDoIiQIAAAQIERhHos9e/pbu0WoiAEHghJ8owCRAgQIAAAQIECBAgQIAAAQIENiewz4yHsLeWX5093hyGCRMgQIAAAQJXF+gyggqD+7SauYAQeOYnyPAIECBAgAABAgQIECBAgAABAgRWLdCeZlfL4Wubm6xXKwIECBAgQIDAHAW+y6C+SR/nODhj+o+AENiVQIAAAQIECBAgQIAAAQIECBAgQGBcgTa7H+7o/XPWm/T+9FwWigABAgQIECCwOIEKgP+e/n5xI9/IgIXAGznRpkmAAAECBAgQIECAAAECBAgQIDCqQJu9C3pHJbZzAgQIECBAYIYCdxlThcHdDMe26SEJgTd9+k2eAAECBAgQIECAAAECBAgQIEDgCQLD3btt3uOO3ifA2ZQAAQIECBBYvcCbzLDC4H71M13IBIXACzlRhkmAAAECBAgQIECAAAECBAgQIDCJQJOjVLdpv9EbBEWAAAECBAgQeILAN9n2u/TxCe+x6QgCQuARUO2SAAECBAgQIECAAAECBAgQIEBg1gK7jG5/6lr/Kj08l1VFgAABAgQIECDwAoFj3uv3gl8AeIm3CoEvoWgfBAgQIECAAAECBAgQIECAAAECcxRoM6gh3B2+vrmeUwQIECBAgAABAuML3OUQfi94fOcHjyAEfpDFkwQIECBAgAABAgQIECBAgAABAgsRaDLO6n26gt5aNqfOQhEgQIAAAQIECFxZ4E2O7/eCJz4JQuCJwR2OAAECBAgQIECAAAECBAgQIEDgWQJDuDuEvU320j5rT95EgAABAgQIECAwtcAxB/xn+rt0rauRBYTAIwPbPQECBAgQIECAAAECBAgQIECAwKMFdtlyn25OXb/VO6xnVREgQIAAAQIECCxcoM/4v0l/n1YjCgiBR8S1awIECBAgQIAAAQIECBAgQIAAgQcFmjxbXYHv8BXOtV4hsCJAgAABAgQIEFi/QJcpVhhcSzWCgBB4BFS7JECAAAECBAgQIECAAAECBAgQ+E2gyZ/VbbrC3ibdphUBAgQIECBAgACBEvg+XWFwn1YXFBACXxDTrggQIECAAAECBAgQIECAAAECGxUYvsJ5uLO3iUO7UQvTJkCAAAECBAgQeJrAMZv7veCnmX12ayHwZ4lsQIAAAQIECBAgQIAAAQIECBAgcBI4D3u/zHNNup5TBAgQIECAAAECBF4q0GcHdVfw92n1QgEh8AsBvZ0AAQIECBAgQIAAAQIECBAgsEIBYe8KT6opESBAgAABAgQWItBlnH9P3y1kvLMcphB4lqfFoAgQIECAAAECBAgQIECAAAECkwg0OUp1m/abvUFQBAgQIECAAAECsxH4PiOpMPg4mxEtaCBC4AWdLEMlQIAAAQIECBAgQIAAAQIECDxTYJf31d29bVrYGwRFgAABAgQIECCwCIEKgOv3gm8XMdoZDVIIPKOTYSgECBAgQIAAAQIECBAgQIAAgQsItNlHBb4V9tayepdWBAgQIECAAAECBJYq0GfgdVfwm6VOYOpxC4GnFnc8AgQIECBAgAABAgQIECBAgMBlBIaAt8nuvkrXsloRIECAAAECBAgQWKtAl4n5veBHnF0h8COQbEKAAAECBAgQIECAAAECBAgQuKJAk2NXt+kv0026AmBFgAABAgQIECBAYKsC32fifi/4E2dfCPwJHC8RIECAAAECBAgQIECAAAECBCYWaHO8Cnh9lfPE8A5HgAABAgQIECCwOIFjRuz3gj9y2oTAH4HxNAECBAgQIECAAAECBAgQIEBgRIEm+x6+zrnu7q31ek4RIECAAAECBAgQIPA0gT6b/y3dpdVJQAjsUiBAgAABAgQIECBAgAABAgQIjCvQZvfnd/fWY0WAAAECBAgQIECAwGUFuuzu/6brDuHNlxB485cAAAIECBAgQIAAAQIECBAgQOBCAk32U92m/XZvEBQBAgQIECBAgACBiQX+T47XT3zMWR7uf81yVAZFgAABAgQIECBAgAABAgQIEJi3wPBVzk2G+VW6Hu/SigABAgQIECBAgACB6wj0OWy1ioAQ2GVAgAABAgQIECBAgAABAgQIEPi0QJuXK+Qd7u6tx4oAAQIECBAgQIAAgXkJdPMaznVHIwS+rr+jEyBAgAABAgQIECBAgAABAvMRqDt5K+xt0xX41nqTVgQIECBAgAABAgQIzF/g3fyHON0I/zTdoRyJAAECBAgQIECAAAECBAgQIDAbgSYjqZC32tc5B0ERIECAAAECBAgQWLjA/874jwufw8WG707gi1HaEQECBAgQIECAAAECBAgQIDBTgSHsbTI+ge9MT5JhESBAgAABAgQITC5Qgend5Ef9T1D784WPW3OpVicBdwK7FAgQIECAAAECBAgQIECAAIE1Cewzmerh65zbNU3OXAgQIECAAAECBK4i0D3yqBVCPiXcrO3vHrnv+5t195/wmMC5gBD4XMM6AQIECBAgQIAAAQIECBAgsCSBCnurBb5LOmvGSoAAAQIECBB4nECFo8dPbPq533/t897qT1WfF6sVgdUJCIFXd0pNiAABAgQIECBAgAABAgQIrFKgzayGwLfJej1WBAgQIECAAAEC0wn0OVT1Q/WxQLZC3ApzH6pPvfbQ9p4jQOAJAkLgJ2DZlAABAgQIECBAgAABAgQIEJhEoMLe6uH3e2tdESBAgAABAgQIfFrgY6Fqn7f98sBb7/Jcved+fez5+9t5TIDAjAWEwDM+OYZGgAABAgQIECBAgAABAgQ2ILDPHKt9pfMGTrYpEiBAgAABAv9foMLXClvPq5576Pdku/ONTut9ltWKAAECDwoIgR9k8SQBAgQIECBAgAABAgQIECAwgkCFvdUC3xFw7ZIAAQIECBAYXaBC2rt7R6nH/7r3XHfv8UPvu7eJhwQIELisgBD4sp72RoAAAQIECBAgQIAAAQIECPxHoMlif+r6Wuc2rQgQIECAAAEC1xLo7h34fnj7UFBb29TzigABAosTEAIv7pQZMAECBAgQIECAAAECBAgQmJ3ALiNq0/v08Du+9ZwiQIAAAQIECFxCoM9OqoeqYPb8a5Pr8d3wYpb3H5+9ZJUAAQLbEBACb+M8myUBAgQIECBAgAABAgQIELikQJudVQ9f69xkXREgQIAAAQIEPiVQIW2Fs0O9G1ayvB/a3n98tqlVAgQIEHiMgBD4MUq2IUCAAAECBAgQIECAAAEC2xXYZ+ptegh867EiQIAAAQIEtinQZ9rVQ30qyO2zUbUiQIAAgSsICIGvgO6QBAgQIECAAAECBAgQIEBgpgJNxlUh7/CVzm3WFQECBAgQILA+gT5Tqh7qPMzt82T1UN2wYkmAAAECyxEQAi/nXBkpAQIECBAgQIAAAQIECBC4pMAuOzu/y7fN43pOESBAgAABAssSuMtwj6ch91n+clqv5+q1oc63G56zJECAAIGVCgiBV3piTYsAAQIECBAgQIAAAQIECNwT2Odxm/a1zvdgPCRAgAABAjMS6DOW6qoKcX/+be2Pv5nbnZ63IECAAAECDwoIgR9k8SQBAgQIECBAgAABAgQIEFi0QJPRV+hbXV/t3KYVAQIECBAgML3AXQ5ZYW5Vrf/rt7X/rJ8/P6yfXrYgQIAAAQIvExACv8zPuwkQIECAAAECBAgQIECAwBwE2gxinx5+y7fJuiJAgAABAgQuL1BB7hDY1rpQ9/LG9kiAAAECFxAQAl8A0S4IECBAgAABAgQIECBAgMCEAk2OdR74thMe26EIECBAgMAaBbrTpCrcHb5+uc96dVV/6lpXBAgQIEBgEQJC4EWcJoMkQIAAAQIECBAgQIAAgQ0LtJn7eejbbNjC1AkQIECAwGMEKsy9O23YZ/nLab2eq9equt/+9AcBAgQIEFipgBB4pSfWtAgQIECAAAECBAgQIEBgkQK7jLpND1/rXOuKAAECBAgQ+I9Ad4KoIHe4Y1ewe0KxIECAAAEC5wJC4HMN6wQIECBAgAABAgQIECBAYFqBfQ7Xpr88LZssFQECBAgQ2JJAn8lWV1WgW7+xWyFvrVfVsh4rAgQIECBA4AkCQuAnYNmUAAECBAgQIECAAAECBAi8QGCX9+7Tbbru9K2lIkCAAAECaxUYwtsKcIe7dvusV1d1v/3pDwIECBAgQGAUASHwKKx2SoAAAQIECBAgQIAAAQIEvmhi0KaHu3wrAFYECBAgQGDpAn0mUH0e7p4HvrWuCBAgQIAAgSsLCIGvfAIcngABAgQIECBAgAABAgRWI1Ahb5sefs+3yboiQIAAAQJLEahQdwhw350G3WdZXdX99qc/CBAgQIAAgUUICIEXcZoMkgABAgQIECBAgAABAgRmKNBmTNW+2jkIigABAgRmLVDhboW8ffqXdFX3259+c/fEYEGAAAECBNYlIARe1/k0GwIECBAgQIAAAQIECBAYR6DJbvfpIfCtdUWAAAECBOYg0J0GUUHvv9L9qbP4/0FvrSsCBAgQIEBgQwJC4A2dbFMlQIAAAQIECBAgQIAAgUcLNNmyTQ+hbz1WBAgQIEBgaoHudMD7Ae8xz9dzigABAgQIECDwoIAQ+EEWTxIgQIAAAQIECBAgQIDAxgT2mW+bHkLf3cbmb7oECBAgML1Adzpkhbnnd/Ae87ieUwQIECBAgACBZwsIgZ9N540ECBAgQIAAAQIECBAgsGCBNmOvrtB3n96lFQECBAgQuJRAhbjHdJ/+5bQ+PFdLRYAAAQIECBAYVUAIPCqvnRMgQIAAAQIECBAgQIDADAR2GcM+3aaHO32zqggQIECAwLMEjnnXEOS+O+2hOy3r+XpdESBAgAABAgSuKiAEviq/gxMgQIAAAQIECBAgQIDACAK77LNND4HvfoRj2CUBAgQIrFegz9SGrrt4h/UKd+/SigABAgQIECAwewEh8OxPkQESIECAAAECBAgQIECAwGcEhL6fAfIyAQIECPxOoILcIdCt3+I9f1zPKwIECBAgQIDA4gWEwIs/hSZAgAABAgQIECBAgACBzQk0mXGb/vK03GepCBAgQIDAINCdVt6dlsPjIew9PW1BgAABAgQIEFivgBB4vefWzAgQIECAAAECBAgQILAWgSYTadPD1zvXY0WAAAEC2xUYwtz7IW+3XRIzJ0CAAAECBAj8XkAI/HsPjwgQIECAAAECBAgQIEDg+gJNhtCmhb5BUAQIENigwBDy1tLXNW/wAjBlAgQIECBA4OUCQuCXG9oDAQIECBAgQIAAAQIECLxMoMnb27TQNwiKAAECGxDoM8ehfzlbH57LU4oAAQIECBAgQOAlAkLgl+h5LwECBAgQIECAAAECBAg8R6DJm9q00DcIigABAisV6E7zepflMX1+d+/pJQsCBAgQIECAAIGxBITAY8naLwECBAgQIECAAAECBAgMArustOkKfW/STVoRIECAwLIF+gx/6F+yfh7yHvNYESBAgAABAgQIXFFACHxFfIcmQIAAAQIECBAgQIDASgXOQ982c9yvdJ6mRYAAgbULDMHuu9NEuywr4K3nFQECBAgQIECAwIwFhMAzPjmGRoAAAQIECBAgQIAAgYUI7DLONj18vfN+IeM2TAIECBD44osuCBXs/pzu73UeKgIECBAgQIAAgSUKCIGXeNaMmQABAgQIECBAgAABAtcXaDOE6iH4zaoiQIAAgRkKVMB7l+7Tv5yWtV7P1WuKAAECBAgQIEBghQJC4BWeVFMiQIAAAQIECBAgQIDACAL77LNN/+W0zEIRIECAwEwEKsytULdPV9Bb6/Vcl1YECBAgQIAAAQIbFBACb/CkmzIBAgQIECBAgAABAgQeIbDPNm16uNN394j32IQAAQIExhOoUPcu3acFvUFQBAgQIECAAAECHxcQAn/cxisECBAgQIAAAQIECBDYkkCTybbpIfStx4oAAQIEphfocsgKfM9/o7eeUwQIECBAgAABAgQeLSAEfjSVDQkQIECAAAECBAgQILAqgbqzt01X6HuTbtKKAAECBKYRGO7oPQ9667njNId3FAIECBAgQIAAgbULCIHXfobNjwABAgQIECBAgAABAv8VaLNaXb/ru08rAgQIEBhPoM+uqyvc/eW0rMfVigABAgQIECBAgMCoAkLgUXntnAABAgQIECBAgAABAlcVqKC3TQ93+151MA5OgACBlQp0mVefPg96K/hVBAgQIECAAAECBK4mIAS+Gr0DEyBAgAABAgQIECBA4OICTfbYpv2ubxAUAQIELihQoe4x/S7dn3p4Lg8VAQIECBAgQIAAgXkJCIHndT6MhgABAgQIECBAgAABAk8VuMkbhtB3/9Q3254AAQIEfifQ5VGfrrt6u3QFvxX2KgIECBAgQIAAAQKLEhACL+p0GSwBAgQIECBAgAABAgR++y3fNg71u761VAQIECDwNIE+m1fXXb1DyFtBb60rAgQIECBAgAABAqsQEAKv4jSaBAECBAgQIECAAAECKxZoMrc2Pfyu7y7rigABAgQ+L1DBbp/+OT2EvF3WFQECBAgQIECAAIHVCwiBV3+KTZAAAQIECBAgQIAAgQUKtBnzcKfvfoHjN2QCBAhMKdDlYH36l3SXPqYr9FUECBAgQIAAAQIENisgBN7sqTdxAgQIECBAgAABAgRmJNBkLDfp4W7fGQ3NUAgQIDALgSHYrXC3wt5a9qfOQhEgQIAAAQIECBAgcC4gBD7XsE6AAAECBAgQIECAAIFpBHY5TJse7vZtsq4IECBA4L938Z6HvbV+hEOAAAECBAgQIECAwOMFhMCPt7IlAQIECBAgQIAAAQIEXiKwz5vb9BD8vmRf3kuAAIGlC1SoW+Fu9XBnb63X84oAAQIECBAgQIAAgRcKCIFfCOjtBAgQIECAAAECBAgQ+IjALs/fpIeveK7HigABAlsTqFD37tTC3q2dffMlQIAAAQIECBC4moAQ+Gr0DkyAAAECBAgQIECAwAoF9pnTTbru9q11RYAAga0IHDPRu1MLe7dy1s2TAAECBAgQIEBgtgJC4NmeGgMjQIAAAQIECBAgQGABAruM8Sbtbt8FnCxDJEDgYgJd9lSBr7D3YqR2RIAAAQIECBAgQOCyAkLgy3raGwECBAgQIECAAAEC6xfYZ4oV/Lrbd/3n2gwJbF2gC0CfrrC3S/enzkIRIECAAAECBAgQIDBnASHwnM+OsREgQIAAAQIECBAgMAeBXQZRoa+7fedwNoyBAIExBO6y0z79c3pYr6UiQIAAAQIECBAgQGChAkLghZ44wyZAgAABAgQIECBAYFSBffbeputu31oqAgQIrEHgmElUuPsu3Z+6y1IRIECAAAECBAgQILAyASHwyk6o6RAgQIAAAQIECBAg8CyBXd7VpofQt8m6IkCAwJIFugy+Tw9391b4WyGwIkCAAAECBAgQIEBgAwJC4A2cZFMkQIAAAQIECBAgQOBBgSbP3qSHr3l+cCNPEiBAYOYCfcZXAe8Q9g6P85QiQIAAAQIECBAgQGCrAkLgrZ558yZAgAABAgQIECCwTYE20667fSv8bdKKAAECSxLoMtgKfH85LeuxIkCAAAECBAgQIECAwB8EhMB/IPEEAQIECBAgQIAAAQIrEthlLhX4Dl/zXI8VAQIE5i7QZ4AV9g5399Z6PacIECBAgAABAgQIECDwKAEh8KOYbESAAAECBAgQIECAwIIE9hlrm/5rutYVAQIE5izQZXAV8rq7d85nydgIECBAgAABAgQILExACLywE2a4BAgQIECAAAECBAg8KHCTZ4ff9m0e3MKTBAgQuK7AMYevsPfdadmfllkoAgQIECBAgAABAgQIXFZACHxZT3sjQIAAAQIECBAgQGAagV0OU8Gvr3mexttRCBB4mkCFvdV1d293Wj9mqQgQIECAAAECBAgQIDCJgBB4EmYHIUCAAAECBAgQIEDgAgL77KNN+5rnC2DaBQECFxPosqch8K1lPVYECBAgQIAAAQIECBC4qoAQ+Kr8Dk6AAAECBAgQIECAwGcE2rxed/vepJu0IkCAwLUEjjlwhbzvTsv+tMxCESBAgAABAgQIECBAYF4CQuB5nQ+jIUCAAAECBAgQILB1gV0AKvAdft+3HisCBAhMLdDngBX4/nxa1nqfVgQIECBAgAABAgQIEFiEgBB4EafJIAkQIECAAAECBAisWqDJ7M6D31VP1uQIEJidQJ8RDYFvd1o/ZqkIECBAgAABAgQIECCwWAEh8GJPnYETIECAAAECBAgQWLTAPqOv4Le+6rnWFQECBKYQuMtBqoc7fLspDuoYBAgQIECAAAECBAgQmFpACDy1uOMRIECAAAECBAgQ2K5Ahb7D1zw322UwcwIEJhIQ+E4E7TAECBAgQIAAAQIECMxPQAg8v3NiRAQIECBAgAABAgTWIrDLRNp03e1bAXA9VgQIEBhDQOA7hqp9EiBAgAABAgQIECCwWAEh8GJPnYETIECAAAECBAgQmKVABb0V+A7B7ywHaVAECCxaQOC76NNn8AQIECBAgAABAgQITCEgBJ5C2TEIECBAgAABAgQIrFugyfQq+P1rep9WBAgQuJSAwPdSkvZDgAABAgQIECBAgMCmBITAmzrdJkuAAAECBAgQIEDgYgIV9lbwW3f8Cn4vxmpHBDYtIPDd9Ok3eQIECBAgQIAAAQIELikgBL6kpn0RIECAAAECBAgQWLdAhb11t2+Fv01aESBA4LkCfd5Yoe+707LLUhEgQIAAAQIECBAgQIDAhQSEwBeCtBsCBAgQIECAAAECKxWowLfu9m3TTVoRIEDgqQJ93lCB78/p7rR+zFIRIECAAAECBAgQIECAwEgCQuCRYO2WAAECBAgQIECAwIIFhuC3lrsFz8PQCRCYXqDC3bv0+R2+9ZwiQIAAAQIECBAgQIAAgQkFhMATYjsUAQIECBAgQIAAgZkKVNB7k/7qtKzHigABAo8R6LLRXXoIffusKwIECBAgQIAAAQIECBC4soAQ+MonwOEJECBAgAABAgQIXElgCH7rq54rAFYECBD4nECFveeBb60rAgQIECBAgAABAgQIEJihgBB4hifFkAgQIECAAAECBAiMJLDLfm/Sgt+RgO2WwIoE+sylQt7hd3y7rCsCBAgQIECAAAECBAgQWIiAEHghJ8owCRAgQIAAAQIECDxToMn7Kvgdvur5mbvxNgIEVixwzNwq8B2+0rnLej2nCBAgQIAAAQIECBAgQGChAkLghZ44wyZAgAABAgQIECDwCYEmr1Xw+9f0Pq0IECBwLlCBb5euu3xrvVoRIECAAAECBAgQIECAwIoEhMArOpmmQoAAAQIECBAgsGmBJrO/SQt+N30ZmDyBPwj0eaZCXl/r/AcaTxAgQIAAAQIECBAgQGC9AkLg9Z5bMyNAgAABAgQIEFi/QJMpCn7Xf57NkMBTBLpsXKHv8NXOfdYVAQIECBAgQIAAAQIECGxMQAi8sRNuugQIECBAgAABAosXaDIDwe/iT6MJELiIQJ+9nAe+3UX2aicECBAgQIAAAQIECBAgsHgBIfDiT6EJECBAgAABAgQIbECgyRwFvxs40aZI4DMCXV4f7vCt9WNaESBAgAABAgQIECBAgACBPwgIgf9A4gkCBAgQIECAAAECsxBoMgrB7yxOhUEQuIpAn6MOd/l2p/UsFAECBAgQIECAAAECBAgQ+LyAEPjzRrYgQIAAAQIECBAgMJVAkwMJfqfSdhwC8xLoMpwh9K1ln1YECBAgQIAAAQIECBAgQOBZAkLgZ7F5EwECBAgQIECAAIGLCeyypwp+v07vL7ZXOyJAYM4CxwyuS59/tfOcx2tsBAgQIECAAAECBAgQILAwASHwwk6Y4RIgQIAAAQIECKxCYAh+/5LZVACsCBBYt8Bdptelfz4t+ywVAQIECBAgQIAAAQIECBAYTUAIPBqtHRMgQIAAAQIECBD4nYDg93ccHhBYtUCX2dVdvrWsAPiYVgQIECBAgAABAgQIECBAYDIBIfBk1A5EgAABAgQIECCwQQHB7wZPuilvTqDPjCvoPQ99N4dgwgQIECBAgAABAgQIECAwLwEh8LzOh9EQIECAAAECBAisQ+Am0xi+6rmCYEWAwHoEKvDt0r7aeT3n1EwIECBAgAABAgQIECCwOgEh8OpOqQkRIECAAAECBAhcSUDweyV4hyUwskCX/Z/f5Xsc+Xh2T4AAAQIECBAgQIAAAQIEXiwgBH4xoR0QIECAAAECBAhsWGCfuf81fUjv0ooAgWULVMDbpSv0vTutZ6EIECBAgAABAgQIECBAgMCyBITAyzpfRkuAAAECBAgQIHB9gSH4vclQmusPxwgIEHiBQJ/3dukh9K3gVxEgQIAAAQIECBAgQIAAgcULCIEXfwpNgAABAgQIECBAYAKBJseo0Lfu+q0QWBEgsEyBCnm7tN/zXeb5M2oCBAgQIECAAAECBAgQeKSAEPiRUDYjQIAAAQIECBDYnMAuM67g9+u04Hdzp9+EVyLQZR4V/NadvrV+TCsCBAgQIECAAAECBAgQILB6ASHw6k+xCRIgQIAAAQIECDxBYJdtb9J/OS2f8FabEiAwA4EuYxgC31pXBAgQIECAAAECBAgQIEBgkwJC4E2edpMmQIAAAQIECBC4J3Ae/FYQrAgQmL/AMUPs0sNXO9e6IkCAAAECBAgQIECAAAECBCIgBHYZECBAgAABAgQIbFVgn4nXb/we0oLfICgCMxcYQt/hTt+7mY/X8AgQIECAAAECBAgQIECAwNUEhMBXo3dgAgQIECBAgACBKwg0OeYhXeFvk1YECMxXQOg733NjZAQIECBAgAABAgQIECAwcwEh8MxPkOERIECAAAECBAi8WKDu8r1Jf53ev3hvdkCAwFgCfXbcpYevd77LuiJAgAABAgQIECBAgAABAgSeISAEfgaatxAgQIAAAQIECCxCoILfuuO3looAgfkJ9BlSl353WvZZKgIECBAgQIAAAQIECBAgQOACAkLgCyDaBQECBAgQIECAwGwE6k7fuuO3gt/dbEZlIAQIlECf7tJC3yAoAgQIECBAgAABAgQIECAwpoAQeExd+yZAgAABAgQIEJhCoMlBDmm/8xsERWBGAn3G0qWFvkFQBAgQIECAAAECBAgQIEBgSgEh8JTajkWAAAECBAgQIHApgbrLt+729Tu/lxK1HwIvFzhmF136p9Oyz1IRIECAAAECBAgQIECAAAECVxAQAl8B3SEJECBAgAABAgSeLVDBr9/5fTafNxK4qMAQ+g53+t5ddO92RoAAAQIECBAgQIAAAQIECDxbQAj8bDpvJECAAAECBAgQmEhgn+NU8HtI79KKAIHrCAh9r+PuqAQIECBAgAABAgQIECBA4MkCQuAnk3kDAQIECBAgQIDABAJNjnGTrvC3QmBFgMB1BN7ksO70vY69oxIgQIAAAQIECBAgQIAAgWcLCIGfTeeNBAgQIECAAAECIwgcss+/pCsAVgQITC/Q5ZBD6FvrigABAgQIECBAgAABAgQIEFiggBB4gSfNkAkQIECAAAECKxOoO32/Tlfwu1vZ3EyHwNwF7jLALv3TaZmFIkCAAAECBAgQIECAAAECBJYuIARe+hk0fgIECBAgQIDAMgWaDLtC3wp/a10RIDCNwBD6Dnf7Hqc5rKMQIECAAAECBAgQIECAAAECUwoIgafUdiwCBAgQIECAAIEKfut3fmupCBAYX6DPIbr0EPrWY0WAAAECBAgQIECAAAECBAisXEAIvPITbHoECBAgQIAAgRkI7DOGCn4P6V1aESAwnsAxu+7SFfq+SfdpRYAAAQIECBAgQIAAAQIECGxMQAi8sRNuugQIECBAgACBiQQq7D2kK/zdpxUBAuMJdNn1EPrejXcYeyZAgAABAgQIECBAgAABAgSWIiAEXsqZMk4CBAgQIECAwDIEbjLMv6QPyxiuURJYpEAFvV16CH4XOQmDJkCAAAECBAgQIECAAAECBMYTEAKPZ2vPBAgQIECAAIGtCDSZ6CFdd/02aUWAwGUF+uyuSw+h7zHrigABAgQIECBAgAABAgQIECDwUQEh8EdpvECAAAECBAgQIPAZgUNer+C3TSsCBC4nUCFvl67Qt5Z1568iQIAAAQIECBAgQIAAAQIECDxaQAj8aCobEiBAgAABAgQIRGCf/jp9k96lFQEClxGooPendHfqLBQBAgQIECBAgAABAgQIECBA4HkCQuDnuXkXAQIECBAgQGBLAhX2Vuhb4e9+SxM3VwIjCvTZd5cegt9j1hUBAgQIECBAgAABAgQIECBA4CICQuCLMNoJAQIECBAgQGCVAm1mVV/3fEgrAgReJlAhb5eur3h+k+7TigABAgQIECBAgAABAgQIECAwioAQeBRWOyVAgAABAgQILFagychv0nXXb60rAgSeL3CXt3bp4W7f5+/JOwkQIECAAAECBAgQIECAAAECTxAQAj8By6YECBAgQIAAgRULVPBbd/3WUhEg8DyBY972Jj3c7VuPFQECBAgQIECAAAECBAgQIEBgcgEh8OTkDkiAAAECBAgQmI1Ak5Ec0hX+NmlFgMDTBbq8ZbjT9+7pb/cOAgQIECBAgAABAgQIECBAgMDlBYTAlze1RwIECBAgQIDA3AVuMkB3/c79LBnfXAX6DGy427fLurt9g6AIECBAgAABAgQIECBAgACBeQkIged1PoyGAAECBAgQIDCWQJMdH9Lu+g2CIvBEgSH0rWX/xPfanAABAgQIECBAgAABAgQIECAwuYAQeHJyByRAgAABAgQITCpwk6O563dScgdbgUCfOZwHvyuYkikQIECAAAECBAgQIECAAAECWxIQAm/pbJsrAQIECBAgsBWBJhM9pN31GwRF4JEC56Fv/8j32IwAAQIECBAgQIAAAQIECBAgMEsBIfAsT4tBESBAgAABAgSeJeCu32exedNGBfrM+zz43SiDaRMgQIAAAQIECBAgQIAAAQJrFBACr/GsmhMBAgQIECCwJYEmkz2k3fUbBEXgMwLnoW//mW29TIAAAQIECBAgQIAAAQIECBBYrIAQeLGnzsAJECBAgACBjQu463fjF4DpP0qgz1bnwe+j3mQjAgQIECBAgAABAgQIECBAgMDSBYTASz+Dxk+AAAECBAhsSWCXyb5Ku+t3S2fdXJ8qcB769k99s+0JECBAgAABAgQIECBAgAABAmsQEAKv4SyaAwECBAgQILB2gTYTrOD3kFYECPxeoM/DLv3TaXnMUhEgQIAAAQIECBAgQIAAAQIENi0gBN706Td5AgQIECBAYMYCddfvTfof6SatCBD4r8BdVn9Id+laVwQIECBAgAABAgQIECBAgAABAmcCQuAzDKsECBAgQIAAgRkI7DOGr9MVAO9mMB5DIDAHgWMG8Sb97rSsx4oAAQIECBAgQIAAAQIECBAgQOAjAkLgj8B4mgABAgQIECAwscAhx6uvfG7TigCBL77og1DB7/A1z0wIECBAgAABAgQIECBAgAABAgQeKSAEfiSUzQgQIECAAAECIwg02Wfd9XtI79KKwNYFzu/27beOYf4ECBAgQIAAAQIECBAgQIAAgecKCIGfK+d9BAgQIECAAIHnC7R56/CVz8/fi3cSWL5Afa3z+d2+9VgRIECAAAECBAgQIECAAAECBAi8UEAI/EJAbydAgAABAgQIPFJgl+0O6Qp/m7QisFWBu0y8S/+QrnVFgAABAgQIECBAgAABAgQIECBwYQEh8IVB7Y4AAQIECBAgcE9gn8fDXb8VBCsCWxR4k0m/S9eyTysCBAgQIECAAAECBAgQIECAAIERBYTAI+LaNQECBAgQILBpgUNm/9d0m1YEtiZwzIQr8P0p3aXrsSJAgAABAgQIECBAgAABAgQIEJhIQAg8EbTDECBAgAABApsQ2GWWr9IV/jZpRWBLAn0mex78bmnu5kqAAAECBAgQIECAAAECBAgQmJWAEHhWp8NgCBAgQIAAgYUKtBl3Bb+HtCKwJYG7TPaHdJeudUWAAAECBAgQIECAAAECBAgQIDADASHwDE6CIRAgQIAAAQKLFThk5PV7v/vFzsDACTxdYLjbt5bHp7/dOwgQIECAAAECBAgQIECAAAECBMYWEAKPLWz/BAgQIECAwNoEmkzokK7wd5dWBNYuUEFvBb71+761VAQIECBAgAABAgQIECBAgAABAjMXEALP/AQZHgECBAgQIDAbgTYj8ZXPszkdBjKyQJ/9D8FvN/Kx7J4AAQIECBAgQIAAAQIECBAgQODCAkLgC4PaHQECBAgQILA6gUNm5CufV3daTegBgbs890O6S9e6IkCAAAECBAgQIECAAAECBAgQWKiAEHihJ86wCRAgQIAAgVEFdtn7q3Td+dukFYG1CrzJxN6la9mnFQECBAgQIECAAAECBAgQIECAwAoEhMArOImmQIAAAQIECFxMYJ891V2/h4vt0Y4IzE+gAt/h932P8xueEREgQIAAAQIECBAgQIAAAQIECLxUQAj8UkHvJ0CAAAECBNYgcJNJVPjbrmEy5kDgnkAFvefB772XPSRAgAABAgQIECBAgAABAgQIEFibgBB4bWfUfAgQIECAAIHHCuyy4SFd4W+TVgTWJNBnMhX8vjsts1AECBAgQIAAAQIECBAgQIAAAQJbERACb+VMmycBAgQIECAwCDRZGb7yuYJgRWAtAn0mUsHvD+m7tCJAgAABAgQIECBAgAABAgQIENiogBB4oyfetAkQIECAwAYF2sy5wt+bDc7dlNcrUGFvhb5dWvAbBEWAAAECBAgQIECAAAECBAgQIPDFF0JgVwEBAgQIEFnAO+4AAEAASURBVCCwdoFDJljh737tEzW/zQgMwe+bzLjfzKxNlAABAgQIECBAgAABAgQIECBA4NECQuBHU9mQAAECBAgQWJDALmN9lf5rukkrAksX6DKBn9KC36WfSeMnQIAAAQIECBAgQIAAAQIECEwgIASeANkhCBAgQIAAgckEmhzpH+mbdAXBisCSBSrwHYLf45InYuwECBAgQIAAAQIECBAgQIAAAQLTCgiBp/V2NAIECBAgQGAcgTa7rbt+D2lFYMkCgt8lnz1jJ0CAAAECBAgQIECAAAECBAjMREAIPJMTYRgECBAgQIDAswQOeVeFv21aEViqgOB3qWfOuAkQIECAAAECBAgQIECAAAECMxUQAs/0xBgWAQIECBAg8FGBXV65SdfXPjdpRWCJAoLfJZ41YyZAgAABAgQIECBAgAABAgQILERACLyQE2WYBAgQIECAwG+B7yEOX6crCFYEliRwzGDPg98ljd1YCRAgQIAAAQIECBAgQIAAAQIECBAgQIAAAQIECFxUoMneXqf/rRks7Br49XTt3mSpCBAgQIAAAQIECBAgQIAAAQIECBAgQIAAAQIECGxeoI3A27Twl8GSrgHB7+b/1wWAAAECBAgQIECAAAECBAgQIHB9AV8Hff1zYAQECBAgQIDA7wUOefjXdJtWBJYg4Kuel3CWjJEAAQIECBAgQIAAAQIECBAgQIAAAQIECBAgQGBSgV2Odkh/SC/prk9j3fb5ep3r1Vc9B0ERIECAAAECBAgQIECAAAECBAjMS8CdwPM6H0ZDgAABAgS2JlDh76v01+laVwTmLvAmA/wpXcvj3AdrfAQIECBAgAABAgQIECBAgAABAgQIECBAgAABAgSmEmhyoLqLsn4/1d20DOZ+DfyY6/SQ9g8VgqAIECBAgAABAgQIECBAgAABAgQIECBAgAABAgQInAs0eVDh79xDP+NzjgS/5//lWidAgAABAgQIECBAgAABAgQIECBAgAABAgQIECBwT6DN47dp4SqDOV8Dgt97/+F6SIAAAQIECBAgQIAAAQIECBAgQIAAAQIECBAgQOC+wE2eEP4Kfucc/L7PNfoq3aQVAQIECBAgQIAAAQIECBAgQIAAAQIECBAgQIAAAQIfETjk+Q/pOYd/xrbd8yP4/ch/uJ4mQIAAAQIECBAgQIAAAQIECBAgQIAAAQIECBAgcC6wy4NDWvi73XB1zsF6XZe36SatCBAgQIAAAQIECBAgQIAAAQIECKxa4E+rnp3JESBAgAABAlMIVPhbX6f7dbrWFYG5CPQZyJv0D+m7tCJAgAABAgQIECBAgAABAgQIECBAgAABAgQIECBA4BMCFfjepn9Nz/kOUGPb1vmp6/F1ep9WBAgQIECAAAECBAgQIECAAAECBAgQIECAAAECBAg8QqDJNhWyCX+3Fa7OOUwfgt+bR1y/NiFAgAABAgQIECBAgAABAgQIECBAgAABAgQIECBA4CTQZFnh75zDQGPb1vn5MdfjIV13pSsCBAgQIECAAAECBAgQIECAAAECBAgQIECAAAECBB4p0GQ74e+2wtU5h+nvcz0e0oLfICgCBAgQIECAAAECBAgQIECAAAECBAgQIECAAAECTxFos/Hb9JwDQWPbxvmp4PdVukkrAgQIECBAgAABAgQIECBAgAABAgQIECBAgAABAgSeKNBme+HvNsLVOYfoH3IdfpvepxUBAgQIECBAgAABAgQIECBAgAABAgQIECBAgAABAs8QaPMe4a/w95rB8K+5Bl+n61pUBAgQIECAAAECBAgQIECAAAECBAgQIECAAAECBAg8U+Am7xP+Cn+vGf7+mGvw8Mzr19sIECBAgAABAgQIECBAgAABAgQIECBAgAABAgQIEDgJHLL8kL5m+OfY2/Wv3/mta3CXVgQIECBAgAABAgQIECBAgAABAgQIECBAgAABAgQIvEDgkPcKf7cbvl4zeK/r7jbdpBUBAgQIECBAgAABAgQIECBAgAABAgQIECBAgAABAi8UOOT9wl/h79Qh8PA7v/sXXr/eToAAAQIECBAgQIAAAQIECBAgQIAAAQIECBAgQIDASeCQpfBX+Dt1+Fu/81u/N60IECBAgAABAgQIECBAgAABAgQIECBAgAABAgQIELiQwCH7Ef4Kf6cMf+t3fl+l/c5vEBQBAgQIECBAgAABAgQIECBAgAABAgQIECBAgACBSwkcsiPhr/B3qvC3rrVv001aESBAgAABAgQIECBAgAABAgQIECBAgAABAgQIECBwQYFD9iX8Ff5OEf4Ov/Pr654v+B+wXREgQIAAAQIECBAgQIAAAQIECBAgQIAAAQIECBAYBA5ZEf4Kf6cIf9/mWqvrzdc9B0ERIECAAAECBAgQIECAAAECBAgQIECAAAECBAgQuLTAITsU/gp/xw5/6xq7TTdpRYAAAQIECBAgQIAAAQIECBAgQIAAAQIECBAgQIDACAKH7FP4K/wdM/wdvu65HeH6tUsCBAgQIECAAAECBAgQIECAAAECBAgQIECAAAECBE4ChyyFv8LfMcPft7nG6jrzdc9BUAQIECBAgAABAgQIECBAgAABAgQIECBAgAABAgTGEjhkx8Jf4e9Y4W9dW7fpJq0IECBAgAABAgQIECBAgAABAgQIECBAgAABAgQIEBhR4JB9C3+Fv2OFv69zfbVpRYAAAQIECBAgQIAAAQIECBAgQIAAAQIECBAgQIDAyAKH7F/4K/wdI/x9n2urri9f9xwERYAAAQIECBAgQIAAAQIECBAgQIAAAQIECBAgQGBsgTYHeJseI/yzz+26/ppr6tt0k1YECBAgQIAAAQIECBAgQIAAAQIECBAgQIAAAQIECEwg0OYYwt/thrRjBfQ/5rq6meD6dQgCBAgQIECAAAECBAgQIECAAAECBAgQIECAAAECBE4CbZbCX+HvJUPgD7mmXqWbtCJAgAABAgQIECBAgAABAgQIECBAgAABAgQIECBAYCKBfY4j/BX+Xir8ra97fp1u04oAAQIECBAgQIAAAQIECBAgQIAAAQIECBAgQIAAgQkFmhyrwrpLhX/2s23L97mWDuldWhEgQIAAAQIECBAgQIAAAQIECBAgQIAAAQIECBAgMKFAk2MJf7cd2F4qsK+7fr9N193kigABAgQIECBAgAABAgQIECBAgAABAgQIECBAgACBiQXqDk3hr/D3EgHw21xLh4mvX4cjQIAAAQIECBAgQIAAAQIECBAgQIAAAQIECBAgQOAkUOHvbbru2rxEAGgf23T8kOun7vpt0ooAAQIECBAgQIAAAQIECBAgQIAAAQIECBAgQIAAgSsICH+3GdZeOqT/MdfuzRWuX4ckQIAAAQIECBAgQIAAAQIECBAgQIAAAQIECBAgQOBM4JB1d/4KgZ8bCNddv7fpJq0IECBAgAABAgQIECBAgAABAgQIECBAgAABAgQIELiiwCHHrgDvueGf923bzl2/V/yP16EJECBAgAABAgQIECBAgAABAgQIECBAgAABAgQInAu0efA+LcRl8NRr4EOum9t0k1YECBAgQIAAAQIECBAgQIAAAQIECBAgQIAAAQIECFxZoM3x36afGvzZnpm7fq/8H6/DEyBAgAABAgQIECBAgAABAgQIECBAgAABAgQIEDgXaPKgQjxhLoOnXAMfcs3cppu0IkCAAAECBAgQIECAAAECBAgQIECAAAECBAgQIEBgBgJNxvA6/ZTgz7a83PU7g/94DYEAAQIECBAgQIAAAQIECBAgQIAAAQIECBAgQIDAucAuD27Tv6aFugwecw18OF0zTZaKAAECBAgQIECAAAECBAgQIECAAAECBAgQIECAAIEZCbzKWIS/gt/HBL+1zdv0zYyuX0MhQIAAAQIECBAgQIAAAQIECBAgQIAAAQIECBAgQOAkcMiy7uZ8bPhnu+1a1T8S+DbdpBUBAgQIECBAgAABAgQIECBAgAABAgQIECBAgAABAjMTaDOe92mhLoPPXQNvc50c0ooAAQIECBAgQIAAAQIECBAgQIAAAQIECBAgQIAAgRkKNBlThXqfC/68vm2juuv3dXqfVgQIECBAgAABAgQIECBAgAABAgQIECBAgAABAgQIzFCgyZgq1BPuMvjUNfAh18ghvUsrAgQIECBAgAABAgQIECBAgAABAgQIECBAgAABAgRmKFBh3m267uz8VPjntW37vM710aYVAQIECBAgQIAAAQIECBAgQIAAAQIECBAgQIAAAQIzFjhkbMLfbYe7nwr3P+T6uE03aUWAAAECBAgQIECAAAECBAgQIECAAIFFC/xp0aM3eAIECBAg8HmBNpvUnZ1NWhG4L9DliR/S36cVAQIECBAgQIAAAQIEPiWwz4vnPxfTfmrjj7x2zPN3Z6/df3z2klUCBAgQIECAwPMFhMDPt/NOAgQIEJi3wD7D+zbdznuYRncFgfpLljfpb9J9WhEgQIAAAQIECBAgQKA+Q+7S7Yniq9OyybJ6iupzkOr6zPLzaXmXZX/qLBQBAgQIECBA4HECQuDHOdmKAAECBJYj0GSo/0gf0orAuUCfBxX8vknXX6ooAgQIECBAgAABAgS2J9BkyvtTf5nl8Dirs68uI+zTv6S7dAXEPtsEQREgQIAAAQJ/FBAC/9HEMwQIECCwTIFdhv0q/XW61hWBQeBNVv6Z7oYnLAkQIECAAAECBAgQ2IRAfTZs0/t03dlby3puTdVnMnfpunO4O3UWigABAgQIECBAgAABAgQILF/gkCl8SP9bMzhdA79mWV8H3qQVAQIECBAgQIAAAQLbEKiA9yZdnwXep7f6GfHtyaAsFAECBAgQIECAAAECBAgQWJxAmxFv+YP9Vv9C41PzruvhkFYECBAgQIAAAQIECGxDYJ9p3qZ9Nvx46F2h8Kt0WSkCBAgQIECAAAECBAgQIDBbgSYj+zH9qTDQa9vyeZ3roU0rAgQIECBAgAABAgTWL1B3uNZngF/TPvs9zeBDzL5Nt2lFgAABAgQIECBAgAABAgRmIbDLKG7TPuQzqGug/sKnrocmrQgQIECAAAECBAgQWLeA4PfynwPrM9XrdNkqAgQIECBAgAABAgQIECBwFYFDjupfeV/+Q/8SA/X3uRbqelAECBAgQIAAAQIECKxboM30KqT0WXD8z4If4vxtep9WBAgQIECAAAECBAgQIEBgdIE2R6jQb4lhpTFf9rzVX/7U9aAIECBAgAABAgQIEFivQJOp3aYrlPSZ6joGwz+8rW/jUgQIECBAgAABAgQIECBA4KICTfb2Y9qH/m0b/Jpr4Nt0k1YECBAgQIAAAQIECKxXoM3UfAac1+e/+jxW/xjX3cFBUAQIECBAYGkCf1ragI2XAAECBFYvUP/S+FX6H6ufqQl+SqDPi9+k36SPaUWAAAECBAgQIECAwPoE6vPfTbo+/zXpudZdBlafS6p/Phtkn/Xqp9Q+G+/O3vDVab2eq9fmWl0G9kP6+7QiQIAAAQIEFiAgBF7ASTJEAgQIbEjgkLnWXZ/nH4g3NH1TjUCXrvC3looAAQIECBAgQIAAgXUK1Ge+V+mv03P4/HfMOO5O/a8su3RV99uf0/5RHvv0sPxz1pt0m55D9RnEP9Pfp49pRYAAAQIECBAgQIAAAQIEPirQ5pW36X/rTRoMXzHW5PwrAgQIECBAgAABAgTWK9Bkaq/T1/zs9yHH/zF9m27TFbYupZoM9CZ9m36brs9S17KsY9+ml+SX4SoCBAgQIECAAAECBAgQmEKgPiy+Tl/rQ6vjXtf+Q879bdpfGgRBESBAgAABAgQIEFixQJO5Xeuz3/sc+9t0hadr/OzRZF6HdPnWZ6x/T9zC4IArAgQIECBAgAABAgQIEPivwG1W68Pi1B9QHe/65vWXMIe0IkCAAAECBAgQIEBg3QJNpvc6PeXnsA853ppD30zvk9Xk1UO63Kf8zF3Huk2vMWjPtBQBAgQIECBAgAABAgQIfE6gzQb1oXzKvwRwrHl4/5jzXudfESBAgAABAgQIECCwboEKAm/TU4WQ73OsV+kmrX4vsM/D23QZTfHZuM55nQtFgAABAgQIECBAgAABAhsRaDLPt+kpPnQ6xnyc6y8AXqebtCJAgAABAgQIECBAYP0CFQDW54CxP5f9mGMc0ru0epxAk83q/LxPj31+PuQYN2lFgAABAgQIECBAgAABAisVqA/kt+mxP2Da/7yM6wN/nXd/IRMERYAAAQIECBAgQGADAm3mWJ8DxvxsVuFlhZhNWr1MoMnbb9Njn7O3OcY+rQgQIECAAAECBAgQIEBgRQI3mcvYHyjH/AsG+376X+DUX8ocVnQNmwoBAgQIECBAgAABAp8WaPJy3ZU71uenX7Pvb9OCxCCMVG32+zo91jms/dY53KUVAQIECBAgQIAAAQIECCxYoMnY36bH/ABp3/PyrfPdphUBAgQIECBAgAABAtsRuM1UK6Qd4/PZ++z3kFbTCVRI+yr9IT3GOa1r5SatCBAgQIAAAQIECBAgQGBhAvWBsf517xgfFu1znq6vc76btCJAgAABAgQIECBAYDsC+0y1QtoxPqfVZ4w2ra4rUGHt2/QY57j226QVAQIECBAgQIAAAQIECCxA4JAx1r/qHeMDon3Oy7XO8226Qn9FgAABAgQIECBAgMB2BMb6h7/1GePbdLMdysXMtAL/1+lLfy6vc/5qMQoGSoAAAQIECBAgQIAAgQ0K1AfCt+lLfyC0v/mZfsh5PqTrL34UAQIECBAgQIAAAQLbEqjPfvWZ4JKf1fwD0+VcQ02G+vrC57+upbfpJq0IECBAgAABAgQIECBAYCYCFQTWv9S+5F8A2Nc8Pd/nPB/SigABAgQIECBAgACBbQrcZtqX/Lwm/F3uddRk6K9HuB4O2aciQIAAAQIECBAgQIAAgSsL3OT4H9KX/EsA+5qf59uc4zatCBAgQIAAAQIECBDYpkCTadc/Cr3k57Xb7M+3CwVh4dVk/K/Tl7w2fsz+XBtBUAQIECBAgAABAgQIEJhaoMkBKxi85Ic8+5qf5+uc4zrXigABAgQIECBAgACB7QocMvW6Y/dSn9l8zljntbTPtN5e8Dr5kH3VPhUBAgQIECBAgAABAgQITCBQ/xL3Nn2pD//2Mz/L+sudb9NNWhEgQIAAAQIECBAgsF2B+vz3On2pz21vs682rdYtcJPpfUhf6rp5tW4usyNAgAABAgQIECBAgMD1BS79Qe5SHwjt5zIfriv8vU3XX/QoAgQIECBAgAABAgS2LdBk+u/Tl/i8VZ81Dmm1LYHbTLfO/SWuoR+zH59Vg6AIECBAgAABAgQIECBwSYEmO6sPXJf44GYf83P8kHN7SCsCBAgQIECAAAECBAiUQP0D4EuFd99mX8K7Ut1mNZn2pf4+oT677rfJaNYECBAgQIAAAQIECBC4vMBtdnmpD/8C4HkFwO9zbg9pRYAAAQIECBAgQIAAgUHgVVYu8dmtPm8I7AZVy5sQXOLvFmofB5wECBAgQIAAAQIE/h9792PdOG6vfTzJSQHqIEwFV6lguRVcpYLLreD1VrDcCjypQJMKPLcCOhXYqUBOBeNbwb7PM2snsteyCZAgAfCLc7CWJfz54QOIIkh5FgEEEIgXaFXVm/Y5Nv+0kZfjoHn1/JIQQAABBBBAAAEEEEAAgWeBnR4clefYv/XPjfITgTMBr7FrZdbYGQoPEUAAAQQQQAABBBBAAIGlBObclM2xsaONeTbIdrxRbpdaSPSDAAIIIIAAAggggAACxQh4HzjHl4Ddxr6YURPoWgKtOv6qPHW/f1QbXrskBBBAAAEEEEAAAQQQQACBDwQ6vT7HRmzqRo760zfD54beGDfKJAQQQAABBBBAAAEEEEDgtYBv2p6Uz/cQMY/71w3zOwLvCPjm7Y1yzFo7r+MvHnAj+B1oXkIAAQQQQAABBBBAAIFtCzQa/qB8vpHicfkeR82p55aEAAIIIIAAAggggAACCLwl4BvAU78I7PrtW43zHAIjBDqVmboGfSPYa5mEAAIIIIAAAggggAACCCBwJtDrMTd86zHw5tlzyjehhUBCAAEEEEAAAQQQQACBiwKdXpl68+1GbbD3uEjMCyMFfAPXN3KnXJvwWuZG8EhwiiGAAAIIIIAAAggggEDdAq2Gd1Kessmibj5+3vD2ylyAEQIJAQQQQAABBBBAAAEE3hXo9OrU/dzVuz3wIgJhAt7LHpWnrEtuBIeZUxoBBBBAAAEEEEAAAQQqE/DG6lp5ysaKuvn4nTSXvvjieSUhgAACCCCAAAIIIIAAAh8JdCowZU/nG22tMgmBFAKdGvUai12jrntQJiGAAAIIIIAAAggggAACmxLwRmjKZip2E0a9+A3sJbuT5rLb1OplsAgggAACCCCAAAIIIDBVoFMDl/YYY56/U32+gDp1Fqj/kcBeBbznHbMmL5XpPuqE1xFAAAEEEEAAAQQQQACBGgQaDWJQvrQ54vlybE6ax06ZhAACCCCAAAIIIIAAAgiECHQqPGXvd1R9bgCHiFN2ioDXmr90MGXNdlMCoC4CCCCAAAIIIIAAAgggkLvAlQLkr3+nbRynbDrnquvNb5f7YiM+BBBAAAEEEEAAAQQQyFKgU1RT9ibeV5IQWEPgqE6nrN1ujaDpEwEEEEAAAQQQQAABBBBIKbBX41O/NTtlo0XdaRvVZ79B89imXCi0jQACCCCAAAIIIIAAAlULdBrd8/4i5qfrkxBYU6BX5zFr97lOt2bw9I0AAggggAACCCCAAAIIzCnQq7HnzQ4/y7QYNIetMgkBBBBAAAEEEEAAAQQQiBXoVDF2T+h/UcpfLiYhkINApyBi17LrtcokBBBAAAEEEEAAAQQQQKBYgVaRn5SnbIyou67foPnzPJIQQAABBBBAAAEEEEAAgSkCnSrH7u+4ATxFnrqpBA5q2GszZl2zplPNCu0igAACCCCAAAIIIIBAUoGdWr9WjtkIUScPt0Hz1yqTEEAAAQQQQAABBBBAAIGpAp0aiN3r3amu95gkBHIU8F+ncyM4x5khJgQQQAABBBBAAAEEEJhdwN+EPSnHbvCpt67doLlrlUkIIIAAAggggAACCCCAwBwCU26ScQN4jhmgjdQCU9a4byA3qQOkfQQQQAABBBBAAAEEEEBgisBOlW+UuYlbpgE3f6esfuoigAACCCCAAAIIIIDAWwJTbo5xA/gtUZ7LVYC1nuvMEBcCCCCAAAIIIIAAAghMEjiotr+9yg3g8gyOmjdvVkkIIIAAAggggAACCCCAwJwCOzV2Uo7ZJ3IDeM6ZoK2lBKbeCF4qTvpBAAEEEEAAAQQQQAABBD4U8Kaev/6Nu6gRcyFkzjpHzV3z4QxTAAEEEEAAAQQQQAABBBAIF/Be0TdyY/Yw3AAO96ZGPgJTbgR7n05CAAEEEEAAAQQQQAABBFYXuFIEX5VjNvXUWc/Nm8pGmYQAAggggAACCCCAAAIIpBLwviNm38cN4FQzQrtLCky5EexrLSQEEEAAAQQQQAABBBBAYBWBRr0OyjEbeuqs53bUnHnuSAgggAACCCCAAAIIIIBASgHfxIrZ+3EDOOWs0PbSAlNuBB+WDpb+EEAAAQQQQAABBBBAAAFv5vnr37gLGjEXQeaoM2jOGpYuAggggAACCCCAAAIIILCAQKs+YvYx3mc2yiQEahKIvRHs94PrkhBAAAEEEEAAAQQQQACB5AKNevDNxJjNPHXWcfN8tcokBBBAAAEEEEAAAQQQQGAJgUadxHxpmBteS8wOfawl0KnjmOsid6q3Wyto+kUAAQQQQAABBBBAAIFtCPDXv3EbtphN3hx1uPm7jfclo0QAAQQQQAABBBBAICcB36zyTauYPQ1/8ZjTTBJLCoFOjca8N44pgqFNBBBAAAEEEEAAAQQQQKARgW8oxmxUqLO8m+eqVSYhgAACCCCAAAIIIIAAAksLHNVhzD6wWzpQ+kNgJYFr9RvzHvEX80kIIIAAAggggAACCCCAwGwC/PVv3OYsZkM3tc6gWW9nm3kaQgABBBBAAAEEEEAAAQTCBDoVj9nX9GHdUBqB4gWOGkHMe4W/li9+6hkAAggggAACCCCAAALrCzQKwTcVYzYl1FnWzfPUKpMQQAABBBBAAAEEEEAAgbUEGnXs/6dv6H7wuFbA9IvAigI79R3zz6a7juuSEEAAAQQQQAABBBBAAIEoAf76N/zCReiFjjnKD5rdNmqGqYQAAggggAACCCCAAAIIzCvADa15PWmtfgHfzOWLE/XPMyNEAAEEEEAAAQQQQCALgUZR+MbiHDcoaSOd40lz1CmTEEAAAQQQQAABBBBAAIEcBHoFEboH9M0v/qIxh9kjhjUF9uo89L3j8oc1g6ZvBBBAAAEEEEAAAQQQKEvAG4iYb6DGbFaoE7fJO2mOurKWFdEigAACCCCAAAIIIIBA5QKxN7Hayl0YHgJjBa5UMPQ6CV+iGKtLOQQQQAABBBBAAAEENiyw09hvlEM3HJRfzoybvxt+gzJ0BBBAAAEEEEAAAQQyFvB+0vuV0P2hb3qREEDgPwJHPQx9H/laDgkBBBBAAAEEEEAAAQQQeFPgoGf569/wjVboxiy2vOeGiyNvLl2eRAABBBBAAAEEEEAAgQwErhVD6H6HG1cZTBwhZCfgL1TcKYe+n3xdh4QAAggggAACCCCAAAII/FvAm4ujcujmgvLLmPnmb6/seSIhgAACCCCAAAIIIIAAAjkKtAoqdI/ovQ77nBxnk5hyENgrCN5TOcwEMSCAAAIIIIAAAgggUKhAq7hPyqEbC8qnN+Pmb6FvKsJGAAEEEEAAAQQQQGCDAjF/tdhu0IkhIxAicKXCoddfbkI6oCwCCCCAAAIIIIAAAgjUJ+BvW18rh24mKL+M2VFz0yiTEEAAAQQQQAABBBBAAIHcBXoFGLpXdB0SAgh8LDCoSOj76/Bxs5RAAAEEEEAAAQQQQACBGgX8TwrFfEs7dNNB+fCN2lFz09S46BgTAggggAACCCCAAAIIVCnQaFShez/vR0kIIDBOwF/i/6oc8j47qbzrkRBAAAEEEEAAAQQQQGBDAr3GGrJxoOwyXoPmpVEmIYAAAggggAACCCCAAAIlCXgvE7pv9BeTSQggMF7goKKh77N+fPOURAABBBBAAAEEEEAAgZIFGgXPX/+Gb5pCN1mh5QfNS6tMQgABBBBAAAEEEEAAAQRKE+DGVGkzRrwlC9wo+NBrDk3JAyZ2BBBAAAEEEEAAAQQQ+FjgSkVC/+mg0I0F5cM2YyfNSfvx1FECAQQQQAABBBBAAAEEEMhWwPuakL2gv5hMQgCBOIGdqoVe2xniuqIWAggggAACCCCAAAII5C7gDULMN0VDNvGUDbvocdKcdLkvHOJDAAEEEEAAAQQQQAABBD4Q6PV66H5w/0GbvIwAAu8LdHo59H3Xvt8kryKAAAIIIJCXwO/zCodoEEAAgSwFWkXlG8C+EUxaX+BRIfxNuV8/FCJAAAEEEEAAAQQQQAABBCYJeJ/pL7iG7Dc/qfyPk3rNs/JeYR2UH5W/KD8ok5YVaJ+681zsPuj69un1B/10LjENCroNCPxBZf8cUJ6iCCCAAAIIIIAAAgggkKmANzzXyqHfDKV8GjP/U0298kcbURUhIYAAAggggAACCCCAAAJFCBwVZcge8qTyNe6J9hqX93znFrZplUnzC3gNHZR75UH5tf35PIx9fKd2PGdXyp7PElKjIMeO77lcV8LAiBEBBBBAAAEEEEAAAQQuC3jD4g3M80k+P9e1OGouGmUSAggggAACCCCAAAIIIFCLQKOBhO41feOuxvTe/tuvdTUOeuExNerPN2jfsw5dj++V/6q+vJfPfc32ivG9cbx+zePaKZMQQAABBBBAAAEEEECgQAFvil6f5PP7OiaD5qIpcA0RMgIIIIAAAggggAACCCDwkcBRBUL2mt4f1ZjG7sF98+1auakRIdGYfLOyU75TDllrc5fNee5sdAr06VWehAACCCCAAAIIIIAAAgUJ+MTfm+q5Nzu0F27qeWiVSQgggAACCCCAAAIIIIBAjQJ7DSp0r9hUCOF9uG8QhlrcqE6rTHpbwK69coxt6FyElj8qrkY5p9QpmJBx2NXGJAQQQAABBBBAAAEEEChA4KAYc9wchWxCaih70jx0BawXQkQAAQQQQAABBBBAAAEEpggMqhyyhztO6SzjuteBDq/NTqrfKXNDTghPDr1+lnB9w2s6p3kbFM/r9fXe73YmIYAAAggggAACCCCAQMYC3nBM3XS+tyngtXGbKG9Q+4zXCaEhgAACCCCAAAIIIIAAAnMJtGooZK/o/VJON8vmctgHOrxnZiPv7RvlraaDBm6H95xye83xOu4cUqsgQnwce43vyxzmghgQQAABBBBAAAEEEJgs4A3nnXLIST5l5/fqNQdsnIRAQgABBBBAAAEEEEAAgU0I3GiUIXvLvlKVIdBhjJlvzHmvv6Xk/XQKyzHec5U5agw5XBdwHCFj6lWehAACCCCAAAIIIIAAApkJXCkebw5DTu4pO6+XN1eNMgkBBBBAAAEEEEAAAQQQ2IpAo4GG7C29b83h5tjc83MIdAgxG+YONuP27FjLtY07jWXttd4ohpC1Vuv7UwwkBBBAAAEEEEAAAQTKE/CG4kY55KSesvN6eUPeKpMQQAABBBBAAAEEEEAAga0JHDXgkD1mVyGQ9+WnQIcQs6FCs7eGdJ3QMMR7zrK+qbp/a7ALPncMdO0XjI2uEEAAAQQQQAABBBBA4IJAq+e9oZhzg0Jb4z1Psj8okxBAAAEEEEAAAQQQQACBLQo0GnTIHtJ7qBpTr0GFOISWdfs1J99EPyqHupRSfu0bwU2g7UnlSQgggAACCCCAAAIIILCiQK++S9nw1BanN3D2JyGAAAIIIIAAAggggAACWxa41uBD9ntdhViNxpTyy9lu2zdJa00e251yyDoqsazHuOY8HgONO5UnIYAAAggggAACCCCAwMICjfoblEvc9NQQ87Xs19y4qXsSAggggAACCCCAAAIIILC6gPdFvkE5dp93Wj3iNAHcBBiMtTov16UJO4tWt3ID+Hk+fSN4rdSo4+c4xvxcM9a1jOgXAQQQQAABBBBAAIFVBQ7qPWSTPebEnjLjNkKD7JtVZ5/OEUAAAQQQQAABBBBAAIF8BK4USsh+ss8n9NkiadVSiEFoWe9Da01buwH8PPfXK07oUX0/xzHmZ7tirHSNAAIIIIAAAggggMCmBLxRGHOSTpl5nfzt13ZTK43BIoAAAggggAACCCCAAAIfC5xUZOz+019m9k2/2pL3i2MNYsq1tYGdjecmsV2M91J11prXJtD8qPIkBBBAAAEEEEAAAQQQSCjQqO3UG8ulNjol9eOLFJ0yCQEEEEAAAQQQQAABBBBA4KVAq19D9nf9y+pV/Bb6l9AhXi57rELp7UF4bKEeNZU/vc2yyLOhN9+bRaKiEwQQQAABBBBAAAEENihw0Jh9M7KmzU4JY+llXuO31DUsEgIIIIAAAggggAACCCAwWSD0RlJt+yuPJ+Ve3W03k2cpzwY6hVXCdYHUMfYrTU8b6L9WnCvx0C0CCCCAAAIIIIAAAssIXKub1JsO2n9p7AsZzTLTSy8IIIAAAggggAACCCCAQJECjaIO2Useixzl+0F7TCEGoWX797sv9tW9Ik958zzUec3ydljryxF36nvs2E/FrjYCRwABBBBAAAEEEEAgQ4FGMYWckI89cafc5U2OvVtlEgIIIIAAAggggAACCCCAwPsCV3o5ZH/pG381JY8nZPyhZU9qf62bg6nniWsdL9dOnxr8Qvudng9Zl4cL7fA0AggggAACCCCAAAIIBAh0KvtVOeRknLLxXra2OQkBBBBAAAEEEEAAAQQQQGCcgG9Sjt2HDuOaLKqUxzR2/DHluqI0xgfbq2iMR811fE1ijeQvGYRcezquESR9IoAAAggggAACCCBQk8C1BlPz5ia3sdm71m9X1/S+YCwIIIAAAggggAACCCCQj8BeoYTs7bp8Qp8lEo8nZPyhZYdZosyvkSaxW6hzTuW7laYr9BoU109Wmii6RQABBBBAAAEEEChboFH4d8o5bUJqjmWQtc1JCCCAAAIIIIAAAggggAACYQJHFR+7X/wa1nT2pX0T7BQw/rFO5+Xa7BXiArxJ7HZuWNrjIY50cq0mcE66yT3SAAIIIIAAAggggAACGxM4aLzeGJe2SSkx3pOcW2USAggggAACCCCAAAIIIIBAnEDI/vUY10W2tXpFlnIvXJvX80S2id0uzYnXqm8+98rtU27008l/0d4q+5pMr3ynfKmdJZ5v1P8aKWTcwxoB0icCCCCAAAIIIIAAAqUKXCvwJTYTW+/jq5z7UhcJcSOAAAIIIIAAAggggAACmQj4hlnI/tI32mpJjQYSMvbQst63uo8a06BBhXpMKe/+vFZD004VemXPxZT+Y+peqc81UqdOQ+Jt1giSPhFAAAEEEEAAAQQQKEnAG4s75ZATbcrGeR3l3CiTEEAAAQQQQAABBBBAAAEEpgl4fzV2b3qa1lV2tW8Cxj7W6Lxcn92I5wmoVTPn40z5+KS+3N/U9HwzOGWsr9v2+lojeayvY3nv97VuVq9hQ58IIIAAAggggAACCAQLtKqxxrdK3zuJr/E132S3NQkBBBBAAAEEEEAAAQQQQGAegZC9bE03i1rxpdw3n+aZnixb8c3NlHbPbR/Vj29ozplaNRay5p9jif05Z+whbdlubMy+1kJCAAEEEEAAAQQQQACBNwR6PTf2xJpycVbeoNV0seGNZcRTCCCAAAIIIIAAAggggMDiAgf1GLJPbRaPMF2Hp8Cxhzi5rG1rTI0GFWoRUz7lNYC9xrDUjeBWfa2RtvzeXsObPhFAAAEEEEAAAQQqE9hpPDfKMZsZ6ox3u5axrUkIIIAAAggggAACCCCAAALzChzV3Nj96d28Xa/aWh8w7rE+5+WGVUeXtvOrxHZ27NMO4VvroTdJz+c35LG91kohN7q7tYKkXwQQQAABBBBAAAEEchPYK6CTcsiJP2XDvAb52pmEAAIIIIAAAggggAACCCCQRiBkX7vmzaw5R79TYyE3x2L28jXvZf1lgBiTsXWOc072B225r7FxxZZbcjyvhxsyvpvXlfkdAQQQQAABBBBAAIEtCnQadOoNY+zmooZ6trUxCQEEEEAAAQQQQAABBBBAIJ2Ab1SG7CGbdKEs2nLIjbEQn+eybr/W1Ghgz+NM8fOk9n2Tfqm0xBcChqUG80Y/Bz0XMk9vNMFTCCCAAAIIIIAAAghsR+CooYacQFM2zOtavktu+LazchkpAggggAACCCCAAAIIIPBS4Eq/jt2z3r2sWuxvbcCYx9qcl/OXmmve03aJ/Vq1v3Q6qsPzOUzxeOkxnffnNTl2TL5pTEIAAQQQQAABBBBAYHMCjUbsTe/YE2fKhVkNst0rkxBAAAEEEEAAAQQQQAABBJYR8D5s7N61Xyak5L2EjHmszXm5WpwuTcS1Xjgf75yPj5c6Tfy8r0XMOY632ko8hHebvwkYn+eXhAACCCCAAAIIIIDApgRajfar8lsn8jw3zcWunTIJAQQQQAABBBBAAAEEEEBgOQH/tWrIfraGL+12gWMO8XHZk3LtadAAQ13Glm9WxPPcjY0zply74ti6gLHZgYQAAggggAACCCCAwGYErjTSmBN86nzs5m+Y+sIDCQEEEEAAAQQQQAABBBBAYFmBg7obu2+t4caQ956pv9xt09rToAGOXTch5Y4rw7n/kHhDy7Yrjq8JHJvLkxBAAAEEEFhc4A+L90iHCCCwZQFvEL0J8I1K0rwC92ruL8o/Kj/O2zStIYAAAggggAACCCCAAAIIjBD4bkSZ5yK3zw8K/nml2L3PT5Vu1fCXVI1voN2fVx7jP1fuP2X3D2r8PqCDNqAsRRFAAAEEEEAAAQQQKE5gr4jvlEO/2Un59838reur4lYDASOAAAIIIIAAAggggAAC9QmE7Hm7woffKP7U+3VfR9hC6jXIuS2PGcC1CcZ17nRYeYz+A4fzeN57nMN8rMxF9wgggAACCCCAAAK1CvjE3Dcr3zsh5rVwH28idrUuGsaFAAIIIIAAAggggAACCBQk4L1ZyL629L3cEDjeEBuXPRY091ND9VqY27OdGtQM9fdqI3TeQ8r3M8Q4pYlWlcfGe5rSEXURQAABBBBAAAEEEMhVoFdgY0+KKTfOypuHVpmEAAIIIIAAAggggAACCCCQh0CrMMbuaf0XwyWnVsGPHWtMOX+JvPSb5DHza9ej8tQv0ee0vmLmf2ydXlZrp7GxutwW1/Ta80P/CCCAAAIIIIAAAokEfHJ7VA45Iabs+17eCPbKJAQQQAABBBBAAAEEEEAAgbwEeoUzdk97nVfowdGcAsY61uS8XB8cUV0VfD2lU/bN3HOXsY9dN5c0NuaYcn0GgxwUw9jYDxnESwgIIIAAAggggAACCEwWaNRC7GZl7Mnz1sp5Y2FXEgIIIIAAAggggAACCCCAQH4C3rON3ad2+YU/OqJeJceOM6bcaXQk2yjYaJj+0sBX5TGeufmNiTm2TC+TtVOvAMbG77IkBBBAAAEEEEAAAQSKFmgV/djNydgT5S2XsyXfFi36LUHwCCCAAAIIIIAAAgggsAGBkH1wU6iH4w4ZZ8xevi3UZomwfW3gRvk9126JQAL6eC/Wqa9dBcSRqqjnZOw4hlRB0C4CCCCAAAIIIIAAAksI+AR87Mkv5T62upbnbomJow8EEEAAAQQQQAABBBBAAIFogUY1x+5xT9G9rF/xGDDOsR7n5Yb1h1hEBI2i9PWXk/K531G/55R8PeM8vrkftxkMNmSM/gIFCQEEEEAAAQQQQACBIgW82Zj7hH6r7d3Jsi1yFRA0AggggAACCCCAAAIIILA9gYOGPHb/6r/kLDG1CnrsGGPLNSXCrByz116vfLVyHG913+rJ2LUwpp7bzyGdFMSYeF2mySFgYkAAAQQQ2I7AH7czVEaKAAKJBPytx0F5n6j9LTX7qMH+Tbnf0qAZKwIIIIAAAggggAACCCBQuEDIfvifhY7V/1JVyvRJjT+k7KDStr9oXM45pl2OQSWI6V5tNiPb3avcw8iyFEMAAQQQQAABBBBAYFUBn7z6n7MZ+41Hyl228o30RpmEAAIIIIAAAggggAACCCBQloD3c2P3u21ZQ/sWbaf/jh1fTDlfV9jKDcNvoBv5T69xxqyHsXVyWTMh43RZEgIIIIAAAggggAAC2Qt0ipAbwNM3NDY8ZD/bBIgAAggggAACCCCAAAIIIHBJ4KQXSrtxdWksr5/3jbbUe/+r153yexUCg0Yx9n0RUy4XpDZgnDe5BE0cCCCAAAIIIIAAAghcErjWCzEn6NR56XaUYy7fXL001zyPAAIIIIAAAggggAACCCDwvsDYva5vppaWUu//T6WBEO9ogbHvi5hyOa0bX9cZO4a70XoURAABBBBAAAEEEEBgYQGf2N4ojz25pdzbVt6stMokBBBAAAEEEEAAAQQQQACBsgVahT927zsUNtQmYGxjDV6XawszIdxxAgcVez3Xc/4+jAtjsVL+gsfY8S0WFB0hgAACCCDwBwgQQACBkQKNyvkk2yfypHiBn1X1L8q38U1QEwEEEEAAAQQQQAABBBBAIBMBf1l6bLofWzCTcsfEcdyqfWdSfQL/nXhI/0jcfmjzIe/tfWjjlEcAAQQQQCBWgJvAsXLUQ2BbAj5B9T9Zw4lq/Lx7Q+Cbv73yozIJAQQQQAABBBBAAAEEEECgfIGQffK/ChruQbG2ieP9IXH7NL+OwE7dev2kTPcpG49oOyQe+5AQQAABBBBYRICbwIsw0wkCRQt0it43gDlJjZvGR1X7Udk3gEM2BXG9UQsBBBBAAAEEEEAAAQQQQGBJgT8FdFbKntD7/+uAccUU/aRKDzEVqZO9wEEReg2lTPcpG49o+/8C6rQBZSmKAAIIIIAAAggggEAygV4tj/1/mlDut1aD/BplEgIIIIAAAggggAACCCCAQJ0C3veN3Q83hRD0AWMaO/bzcl/VfuqbhIVQVxnmKfH6cfu5pVYBna/x9x73uQVPPAgggAACCCCAAALbEvBm7Kj83kkrr1328Yb2altLhtEigAACCCCAAAIIIIAAApsUOGnUY/fHJQA1CtJ72rFjiinHfrmElRAXY5d47Xi9HeNCS1prHzDuIWkkNI4AAggggAACCCCAwDsCvgF8pxyzkaPO7353IzsbkhBAAAEEEEAAAQQQQAABBOoXGLsP9j67hOQ97dgxxZQ7lYBAjFECvhbi+Y1ZFyF1DlHRpa80dgxD+lDoAQEEEEAAgV8F/ggEAgggcCaw12Nv+Jqz53g4TuBRxX5Q/jKuOKUQQAABBBBAAAEEEEAAAQQKF9gFxO89Y+6pVYCHxEF63xyaWlVw/k55SvqHKt8+5SntUPdtgSs93bz90qzP3s7a2vKN7Zfvkh4RQAABBBBAAAEEti7gjd5X5bHfXKTcf6x843y39QXE+BFAAAEEEEAAAQQQQACBjQm0Gu/YvfGxAJu7gPGMHfd5uSHCwNcqztuY47HbJM0rsFdzc8zNR234+kuuaVBgH8X//HquYyAuBBBAAAEEEEAAgQoFOo3p+USUn+MtfNOczWOFbwiGhAACCCCAAAIIIIAAAgiMEGhVZuweuh/R3ppFrgLGMnbMr8s1EQMcEsR1jIiDKpcFdnop9RcIntdSztdgQtaqzUgIIIAAAggggAACCCQX8Obn+WSan+Mt7MZJe/LlSQcIIIAAAggggAACCCCAQLYCnSIbu4/usx3Fr3tbf8l57FhiysWOP0VcQ8ZzUWJox8Rr53m9nTLHCXFoMx8L4SGAAAIIVCLA/xO4kolkGAhECPgGpk9Qc/4WZcSwkld5UA/+fxjdKpMQQAABBBBAAAEEEEAAAQS2K9AEDP0+oOzSRX9Shym/5Pyo9j9FDiplXJEhUe1MoNNj5yXS35foZEIf/5pQl6oIIIAAAggkEeAmcBJWGkUgewFvogblffaR5hWgN60/Kz/mFRbRIIAAAggggAACCCCAAAIIZC6Q6z7S1wWuEtv9qPZzHX/ioVfdvNeO/7hgieT182mJjugDAQQQQACBmgT+UNNgGAsCCIwS8Em6/18t/kkaJ/CgYt8rs3Ed50UpBBBAAAEEEEAAAQQQQACBMgSuE4d5r/Y/R/bRRtajWnoBX1PyHxcslf6mjh6X6iyyn4eAem1AWYoigAACCCAQLcBN4Gg6KiJQpMDzSXpTZPTrBP1J3f5F+Xad7ukVAQQQQAABBBBAAAEEEEAgU4HvAuJ6CCi7VNGDOmoTd+YvU5PqEthpOL4B7J9LpEd18mmJjib28TCxPtURQAABBBCYXYB/Dnp2UhpEIFuBTpEt9c/0ZIsQENiDyv6gfKtMQgABBBBAAAEEEEAAAQQQQGCKwMOUygnq+gZe6r8C/qI+bifE3kyoS9U0Al43S94A9ihK+CvgNNq0igACCCCAwEQB/hJ4IiDVEShE4EpxcgN4/GR5o8pf/473oiQCCCCAAAIIIIAAAggggEBZAr5O0CQOeepfAaeOL/Hwq2v++QbwfsGRPaivfsH+6AoBBBBAAIGqBLgJXNV0MhgE3hTwzd/U3+59s+MCn3xUzH99yn5MQgABBBBAAAEEEEAAAQQQQKA2gUYD+inxoH5W+w+J+6D55QR849d/AbzkDWCPzv9CGwkBBBBAAAEEEEAAAQReCez0+43yL+RRBrayGQkBBBBAAAEEEEAAAQQQQACBMQK+KTZ2zz2mvaXKpL5W8FUDmWN/nSpOzxtpvIBv/HpOx671ucpdjw8xi5JNgBFrMIspIwgEEEAAAQQQQKBMAW+27pTnOvGuuR1vZA5lTjNRI4AAAggggAACCCCAAAIIrCjgGzlj98srhvmi6zYg5rFje12ue9Fj/C8hvq9jeO93t0saJ7DWDWBf0/K1rdLSe+vu/DXWYGkzS7wIIIAAAggggEAmAj5B5wbwuI24T7pL3FRkstQIAwEEEEAAAQQQQAABBBDYtID3lOc3dt57nAvUKSDm98Zz6TVfj5grpbq2McwVYOXtdBrfpXlO+fxX9etrWyWmsS6swRJnl5gRQACBAgX+WGDMhIwAApcFfJLsE0lubF428iuPyv7/E33yLyQEEEAgQKBRWefYdBtbkXoIbFzA5zg+v/Fn+P3GLXIZvudjPyKY2xFlKILA0gJeu17DY9ODCjqTEChd4EoDaBIP4scZ2x/zOTNjdzR1JtDr8U9nvy/50GvofskO6QsBBBBAAIFaBbgJXOvMMq4tCrQa9I1yyMWMLTrdatA/KD8okxBAAIH2iaDRT2en73798e2/vvCU8rj6qPbvz/rz4/97+v326aefczkSAlsUuNKg/59yczb4Bz32xcEvZ8/xMI3ATs3ulVvlPyk3yv7dz4emR1W4f6r0D/18eMq3+klCYA6B9qmR55//pd+f1+r+7PFTsUk/bp9qP+jnv5T909lr/FGZhECOAn4/pL6p90V93OY4eGIaLeB1cq3cja4xb8FPau7zvE3SGgIIIIAAAtsV+P12h87IEahKoNNojlWNKM1gflazfZqmaRUBBDIV2CsuX8hon+J7vsH7/PvT00X8uFeUj8r+6RvFt8oPT1k/SAhUJdBqND63aZQvpc96wTeD/b4gzSPQqJlW2cdK/2yUl0gP6uRW+Z9PP32cIyHwlsBOT+6f8p/OHvv5nNKtgnlQ/pfyrbLX9KMyqT6BQUNqRw7r9yPLpSrmz9UuVeNP7f5ZPx9m6sPv9buZ2nrdzK2e+P71k/z+bd/kNW37NdJndfrDGh3P2OcvI9u6VTnW4EgsiiGAAAIIIIAAAlsW6DR4n2SSLxt447jWJkZdkxBAYAGBVn10yr2yL1yclLd0XPSY/Y39K+VWmYRAqQI7BX5UHvv+9We865DiBXyO1Cvbcqx76nJfFYvXQafM/Aphw6nV2HvlG+WTcuq1l7J9x+9xXCm3yqQ6BAYNY+y6WXPEPtaPjTO2XD/zANuEMXveSC8FvEb8+Rs7/1Pr3anvGj7zxzqwBl+uP35DAAEEEEAAAQQQeEPgqOfGnmButdz1G248hQAC5Qo0Cv2g3Cv7QupJeavHt4/GPcjGx0B7NcokBHIXaBVgzHvaFw1JYQK+yHqlbLuPjiU5vO7jfadMqlvA69KfWf7sKmVtTn1/DBprr9wqk8oU8ByOXQdrjjAkzrHjOS930uD8Hp4ztWrsvI85Hw9zBlpBW11C6zHz5mP+3OtnrWkZM16XYQ2uNUP0iwACCCCAAAIIFCJwVJxjTy63WO4kn7aQuSRMBBB4W6DR074Y3CsPyl+Vt3g8m2vMPi76wrpNa7nIoqGQKhDwevTanLLWjxU4LDGEVp3Yaor1mnX9OdArN8qkOgT2GsaV8qC85trKpW872MMupDIEQtbuWiPq1HHqNe4+5k69GkwVt+eN9KvAUT9SOY9p90797yqZDI9jzJhdZqhkzAwDAQQQQAABBBBAYGYBn1QelceeWG6x3I18atlEzLx8aA6BrAVaRXel7PfwSXmLx68lxzw8eTf6SUJgLYGDOvaNvTnWvtsivS1gG7/n53DOpY1rjWf39nB5NnOBVvF5/k7KuaynHOOwz1GZY5sQMk6DYhu7ftYYho+TXktjY4wpNyQaWJ8w7lQxJ6JI0qzXxl1C4zFryf3X9FneBnj2KktCAAEEEEAAAQQQQOCFQA4n6WNO5Ncq81Vahxdi/IIAArkK+Hjm92uv7Iswax036PdXe1+AuVJulEkILCHQqJMb5Tnfgz4P8LGF9B8BH2dPynM659QW537/mevcH+0V4LWy5yynNVRKLHa7Ue6UOc4JIaM0KJax62hjVtWpAABAAElEQVSNsPuA+MaO43W5NtHAjgljHxLFXEqzPiavfTy+Uwy1Hc9ajen1++PS773KkhBAAAEEEEAAAQQQ+LeAT459knzpBHLrzw+yaZRJCCCQr8BBoV0rcyzL+1ju+emUa7sooyGRMhG4UhxflVOcu9xkMsa1w2gVgM+NUhjn2OZxbXD6f1Og0bO98kk5x3VTckw+1nXKpPUFBoUwdi0tHW0TENvYMbwud0w4qCFh/G57q6nTwF/P49K/HyvFbwNs+0oNGBYCCCCAAAIIIIBAhMBedXxRfukT81L66yNMqYIAAukFfOzqlQflUo4nxPlyro6au1aZhMAcAj4mLHE8aOcIttA2GsXtm0NbPJZdFzpnNYZ92PA6XPq991XWfFav+y4K+VxrFg41JLaYtev1l3JMKeN321tMRw06Zq7nrOMYak2tBjbWqq8VgXEhgAACCCCAAAIIhAn4gqk3V2NPJLdU7iQX+5AQQCAPgZ3C6JSPyhy36jpu3z3NrX6QEIgS6FVrqXMUnx9sMfUa9NaPve0WJz6TMfscoFf2+2+p9zr9vLS2veegUSYtJ3CtrsauxXa5sL59iW9sXLHl+sTjiY1rTL0hcey5Ne9jtM/nx9ikLNPlBjNzPIcA437mvmkOAQQQQAABBBBAoECBvWLe+sW8SxuQo2y8kSEhgMC6Aj5OXSnncFHh0vGC5+e74HN6mm+Ov+u+70rqvVWwXjdLvw879bmV5OMwx+Bf19hxK5Oe0TgbxWJ39izLH+feO67eaE4OyqT0Ar26eG8uzl9r04fz7x5OAXGdxzj2sdtPfT44NpaYcsO/pep/4PMEz1eM01x1/BnRKteeeg1wrBnH6NpXA+NDAAEEEEAAAQQ+EPCJOhdTfnsCbRNOlj9YPLyMQGIBH5+ulde+mDB2g0253x5Lp5r4WNwr75RJCLwl4LXh48TUtRZb//RWUBU+169oHDs3KesNFc5xrkNqFNhROeV80vZ035PmqFdulElpBHo1O3attmlC+E2rvZ4ZG1Nsue43vc77hM8jYmMbU2+YN9xsWzsoMp+3jzFJVeZO/e+zFZo3sF7NjXVs5+2a1hBAAAEEEEAAAQRKEugU7NgTxy2VG+TSKJMQQGB5AW/cfUPnpLyl4w5jfX++fVGpUyYhcC6QwwVHv3e786Aqe+xjsi+qcox6aeDPKVJagUbNH5VZe+UZeN5aZdK8Aldqbuz7oZ+36zdb2+lZn5+NjSmm3PBmz/M+2VYwhnlFwlvrEhuOWTs3isFrcivJ5yFjXFym3QoK40QAAQQQQAABBBB4KdDp17EnjVsq179k4jcEEFhAwDcZvJE9KW/peMNYw+fba6RVJm1bwBf5fLEvl/eQ12WNqdOgvirn4pxTHI1cSGkEGjV7VM5pvoklbj4GzWOnTJpHoFUzY9diP0+X77ZyDIhnbNyvy7XvRjDPi+7jdb9z/j7ME2a2rYTcjJzT9bytPluddIF5XZ0bvPe4SRcGLSOAAAIIIIAAAgjkKtApsPdOErf42kkmvhFFQgCBZQQadXOlfKe8xWMOY542774B2CiTtifg40aONya7iqbCN9mPyhyn3jYYKprrnIbiddcrs+7qMzhpXjtl0jSBVtXHvj+O07r6sHZILGNjfl0u9RieB+nzitd9z/n78NxRhT89R3Nahbbl88G2QtcxQ/K6Gus1pj3KIIAAAggggAACCFQk0GksY08Wt1LONxN84YmEAALpBQ7qwu+5rRxfGGe6ufaFH1+4I21DoNEwB+Vc31OnSqbBzncZO+cw/618SPMKdGrOx/Qc5pcY0s2Dj5O9MvsuIUQku41dn0NE+yFV3P7YWGLK+XjQhAQ0oWyvujExjq0zTIgt56rHxG4f+fpcpckZKHFsIZ+ZiUOheQQQQAABBBBAAIGcBK4VzEcn01t63SfOXU4TRCwIVCrQaFy98kl5S8cYxrrMfA9aV40yqV6BXkMr4f3UFj4Fjj/komIJczJ3jKfC5zi38PcKaFCee55oL29TH2d6ZW4GCyEwjV3bd4HthhRvVXhsHLHl+pCAJpa9TjyeYWJ8uVX3+/YmsdlH6+aYG8oK8Xxk9Pz6sEJsdIkAAggggAACCCCwkoBPlJ9PBPn561+5+MITCQEE0gm0appjD8feJT5zfEG5UybVJdBqOL6QvcQamqMPXxQtNXUKfA6D2tvoS53gzOL2TYRr5drXC+N7f4792d0rk8YL2GzsuhrfaljJNiCGsbGelzup/SW/IDAkHo/bryml9vpFWJey139XE2bkWHwd65LR6+eHyD6ohgACCCCAAAIIIFCYwFHxvj4Z3PLvvui05MaysOVCuAhMFujUwp3ylo8zjH2d+T9q3XF8F0LhyXPoz+oS30dNgfZ+35RovUbMHF+mL/CDmjix5njPna0Br4dOmfSxwKAiY499qY5XbUAMY2M9L+djxJIpxPQ8zrGP3X4t6aiBjB333OVO6ntfC+TEcbSqP9bX59MkBBBAAAEEEEAAgcoFjhrf2BPE2st9lcXSm8rKlxfDQ+CFQKffTsq1H0sYX95z7C8gcJFICIUmz50/r0t9n5V0sW0n52PB1kuvEVuR4gW83m6Ul543+ivH/KT1cYhfYpuo6ePQ2DXdJhJxu2NjCC03JIr5vWZPCcfj8a8xpvfGG/vaMbGTrS5lG/ozhPSrwJV+XLJ6/XwPGgIIIIAAAggggEDdAkcN7/VJ4FZ/902Bpu7pZnQIrCbQqeeT8laPL4w7v7n3TUQuJAuhsLRXvJ67kt9TPhaWkHwx1edGJVsvHbvXJylOoFU1vzeWnjP6K9N80Frh/SaEN1Kv58au6+6N+nM81aqRsTGElltj3kNjDC0/zIG+cht9wjn/yPN65bHn2L1NPnJ7fr3NcQDEhAACCCBQp8Af6xwWo0Iga4GjouuyjnC54D6pqx+X646eENiMQKuR+ljTKJMQyElgp2BulH9Q/qxMyl/AczYo+2fJqVHwB+UvGQ/i2XqfcYy5hXavgJxJ4QK+WH0VXo0aGxZoNfY75c/K3sM9KpN+FXgIgGgCyuZQ1PPs40Vtaa8B+fwmNP1dFT6HVkpQvlObPyVo96MmvR78/v/8UcENvu41NTbZkYQAAggggAACCCBQoYBvyvxC/vbXRIcK55chIbC2QKMAfDGD4wwGJayB49pvGPofJeB5KmE9jYnRX0DINe0UmG+ujBkHZf7j1OU6oRnH1Sg21tp/1hDvpziLr1pHVxmv86VDa9Xh2LU0JAouJIaxsVLu7XndJ5rDsc26f78Hl54f97n22McarVEuZE7WiI8+EUAAAQQQQAABBBIK7NS2N3tLn6Tn2N+dHBplEgIIzCtwpeZCNp45Hh+IaXufE8d53wa0NrOAz19qO654TLmlvQKqzXmJ47nNSGECBxVnrW3vszbl+/FOa6oNW4bVlh7rfEok4HkYGwPlpln1ieZwTLM+j/EaWnoO/V7P8RxqjNkSZWwzdk48fyQEEEAAAQQWE/jDYj3REQLbFfDJ4KDcbpfg3yP/pEd/UX749zM8QACBqQLPx5hrNeTHJARKEugU7LGkgDcWa6vx1nZc6TKbw73i8Xlibc5LMH9eopOK+vB5wo0ya62iSc1gKM/HMM5Dx+9xG96HGazcckPwe61ZOPxb9fe98uPC/ZbUnY+FY9PD2IKUQwABBBBAYA4BbgLPoUgbCFwW8EUWX9gLOSG83Fq5r3iz8Fdl/79jSAggMJ+Ajy0n5Xa+JmkJgcUFOvXIjeDF2Ud1WOP5y/+MGvkyhezr88TdMt1V18vfqhtRmgF5fXmdXaVpnlYR+Cbg9XWn3H77bZv/eQgY9j6gLEUReBY46EH3/MtCPz+rH24Af4wd8p7+x8fNUQIBBBBAAIH5BLgJPJ8lLSHwWmCnJ3zBJeRk8HUbNfx+r0H4r3+/1DAYxoBARgI+tnDzIKMJIZRJAp1qHye1QGUExgn42NmMK5q0FMfwabw+r3yY1sQmanudbf3G3CYmOpNBNorD56Zb/avgkBs7fm+SEAgR2Knw0ufKn9XnDyFBbrjsfwWM/SGgLEURQAABBBCYLMBN4MmENIDAmwI+QfcGeOubu08y8A3gB2USAgjMJ+Bji48xPtaQEKhFoNNAfOGYlI/AbT6hzBrJYdbWwhvzsZtjeLjbeQ3+Cvhc4+3HrZ72OmuUSQgsKXClzvzlg/2SnWbQ10NADN8FlKUoAhb4SdnnD0ulz+qIG8DjtUOOd/fjm6UkAggggAACCCCAQI4CPjH3pveXDeevGnunTEIAgTQCWz/GbPn4uoWxd2neNrQaKeDP9NrWnY+hayXOE6evp9Nak1dQv51ire19y3jKnNO+oPfN1FB9E2jsOk1xHGsD+h8bJ+XentNe1kumRp0tORfHJQdXQV8+twuZnwqGzBAQQAABBEoS4C+BS5otYi1BwCd/g7I3gFtN9xr498qftwrAuBFILNCp/S0fYxLz0nwGAr7w1GYQByH8KvClQggfQ5sVxrVTn1s/T5yDnb8Cfl+x18s+jpIQyEHgJwXh456Pf7Wn+4ABNiq7BZMAEoq+I+D30VLpszriL4DDtPcBxW8DylIUAQQQQACBWQS4CTwLI40g8E3AmzhvcENOAGuj+6wB+QbwfW0DYzwIZCTwXUaxEAoCqQRu1HCTqnHaDRKo9YbbIUhhemHOE6cbuoVH5c9+QHpT4Khnl7xZ8GYQPInAK4FWv/tfYNi/er7GX28DBtUGlKXodgUaDb1baPi36ocbwOHYbUCV+4CyFEUAAQQQQGAWAW4Cz8JIIwh8+xbv1m8A/6h14A2DL86REEAgnQDvsXS2tJyPwE6h+Eawf5LWFbhX9861pf9ZeEC+ObdfuM8au/uiQT3WOLAZxuQ11s3QDk0gkEKgUaPeL3fKNad/BAzuu4CyFN2uwE8LDd3nen9dqK/augl5L4ccI2pzYjwIIIAAAisJcBN4JXi6rUpgp9F4Q7uvalTjB+MLcX9R/jS+CiURQGCCwP9NqEtVBEoS8OfqUhe+SnJZI9a/rdFp4j69vprEfTw3f9SDw/Mv/Jwk8POk2vVW9hrr6h0eI6tEYKdxeK32lYznrWHcv/XkhefaC8/zNALPAn7PdM+/JP75g9p/TNxHrc23AQMLOUYENEtRBBBAAAEELgtwE/iyDa8gMEbAJ+WD8n5M4QrL3GpMf1bmRLbCyWVICCCAQAYCV4rhkEEcWw/hswAeK0RoFxjTtfroFuhnC13capAPWxho4Bi5ARwIRvHVBX5SBF63NabbgEHtVXYXUJ6i2xO4WmjIP6qf+4X6qq2bNmBADyrrTEIAAQQQQGBRAW4CL8pNZxUKbPkG8CfN5/fKjxXOK0NCIGcBNug5zw6xpRDwheJdioZpM0igxr8G/u8ggfDCnapchVejxgWBv194fstP+/jYbRmAsRcr4HVb441g741DztVblSchcEng/116YcbnvV4/zdje1ppqAwZ8G1CWoggggAACCMwmwE3g2ShpaIMC3rTuNzjuR435r8r+tigJAQSWF/BGnYTAlgR2GmyNF4pLm8NPCtjnADWlQ8LBuG3W7XzAD2rq83zNVdGS11dXxUgYxFYFvH5rPE7eBkzodwFlKbotgU7D3S0wZK7rTEMO+ULhP6Z1RW0EEEAAAQTiBLgJHOdGLQS2etHlXlPvv/79whJAAIHVBB7UszMJgS0J+IaaM2k9gUd1XeNfA6dYV3tZ1XhjY73V97vf8VfAL/W3uhd5qcBvNQh0GkRfw0DOxhByoyfFZ9BZKDwsWCDk5mLsMO9V8Ta2MvW+3aT3Od/YdDu2IOUQQAABBBCYU4CbwHNq0tZWBLZ60eWLJtg3gL1RICGAwLoCfj+SENiagD9/d1sbdGbj/aR4HjOLaWo4301t4FV9r9FBmbX6Cmbir157pF8FtroXYf7rFfhJQztUNLzbgLE0KutMQuBcwOcQS7wnavxy37lj6schc/SgYJxJCCCAAAIILC7ATeDFyemwcIGtXnTxPxH0V+XHwueP8BGoRYC/iKplJhlHiIAviPlCMWk9AZ8H1HbBMOQC3kfyXqODsn+S5hP4rKa89ki/+921EDogEKhQwPvsWo6dPl7dB8zRIaAsRbchsNSa+LINzmSj/C6g5duAshRFAAEEEEAAAQQQWEnAG9NfNpa/arytMgkBBPITuFNIWzsmMV7m3Gugye/tuKmIdhqtzw9qej82M83gTWUuucxxO9P8lN5MpwHkMifEwVykWAPXpb9Jz+LvA96vPqefK6WYF9r87fv9aq4Ju9DOEucTc667C8Oo/umvGuHY98dSN/arR2eACCCAAAIIIIBAKoGjGh57cldLOW8KmlSgtIsAApMFfPGhluMN42AuQ9bAMPndQwNTBWo7/sxxMfeaY3KSzyQuUv/6bvXF45DjJGXxKnEN+IZKLWmvgYTMwW6mgfeB/YbESNlf53SQ8VzzdWna/V5I7e3zFlK8QOjncuo1Ez8SaiKAAAIIVC/w++pHyAARmC7gk+Or6c0U1cJnRet/AvqxqKgJFoFtCXgjWdPFsm3NHqOdKvC9Grid2gj1JwmcVLuZ1EI+lb8oFP9vL2JTp4rH2MrUe1fgB736+d0S9b+41xCXuOlQvyQjLEHgLwryvoRAR8To83Sfr49Jcx/r2jGdZl7Gx72UyevM1zxC0oMKO6dMPubfpezgqW2P/dMC/dTaRch1wlsheO9CQgABBBBAAAEEEMhQoFNMv2wsX2U4D4SEAAJvC9zo6a0doxgvc+41MLz9luDZBQU69VXL+9EX6mOTL9bW4pDbOKbMS+x85lZvp4DskNvcEA9zkmoN+JhaSzpqIGOdfE5Peikw1i623PCyu2x+6xRJ7JhC6rXZjLjMQE4B88Q1tjLnmKgRQACBagT+UM1IGAgC8wt0avI4f7PZtvioyPxXMJ+yjZDAEEDgtcD/vn6C3xHYiECrcTqT1hP4rK5v1+t+1p53am0f0WKjOkNEPaqME/g8rljVpby+vD5JCGxB4EGDvK9ooCHn6QeNm/d6RZM/YSj/NaFuSNWHkMKUfSHg92vz4pn3f/ny/su8igACCCCAQFqBP6ZtntYRKFagU+RbugF8r/H6n6DyTxICCJQj4A3ltfKunJCJFIHZBH5SS7eztUZDMQI/q1IbUzHDOh5HyHmQj7v+yy2Ov0JIlP6WqN1SmvVeZF9KsMSJwAwCf5+hjZya+BIYTKfynwLrULw+gaWO+6Ve77rXlP9L+bPyo/Ia6b8DOnW8DwHlKYoAAggggMDsAr+fvUUaRKB8gU5DKPWEOEb/iyr9oLzWCXRMzNRBAIH/CPh41f3nVx4FCnhj/nz8e9BjX1R4nc7LnL/W6Bfn1+m7syfas8c8nF/gezV5O3+ztBggMKhsG1A+16JfFJj/RZSxyTeAD2MLUy5YIHQ+gjvIvMKV4vOXvEhpBB7V7P1T0378zze6uX3jufbVc8+f93s9v3v1Gr+GCXge/qzsnzWlkM+Kew38LzUNfuJYfplY/6Pqtyrg88jcUupx5zbe2HjWfL98VdC7kYH/qHKfRpalGAIIIIAAAkkE+EvgJKw0WrDAXrEfC44/NHSfjPqklIQAAuUK/K9C78oNP3nkt+rhQflfTz/9+FH5XnnJ1KgzZ3/O7JR94bh5yvpBihT4H9W7jaxLtXkE/q5m2nmaWrWVkDH45txh1Wjr79zraqvJnxPcAJ4++w9qwvkfyo/K98oPT1k/otLtB7Vavd48ZX/Oey53yqSPBT6riOeptuTz9MPIQXm9NMoPyqRtCnC8GD/vfr8434+vMkvJTq2EzNOXWXqlEQQQQAABBBBAAIFZBHwC6W/0/bKB7HF2yiQEEKhD4KRhbOHY9d4YBxn4ovmVcqscsjlX8dWS42yVe2WP4b0x8trbPo3cSOsKnNR9DevT54IfpU4FahhrzmPwetpq8meCx5/z/OQYm/c2N8q9cquc0zmAjytXyo7Pcebol0NMjWxqTSHzfl0rQsS4Uq/LISKm1FVadZB63DW1b6+lk4/lYw3vlg6O/hBAAAEEEEAAAQQuC3hzHrI5G3vSl2M5j9PjJSGAQD0C1xpKjsebVDF5Q31U7pRrPJ61Gpfn1ONMZVhTu72cSOsKdOq+hjXlGzXvJR9vahhn7mP4aB7em6PSX7thjY1+j9nKa8Xvy5KS4+Uz/uWx9FjSBEbE6vGNPe6eItqvtcpYs9hyQ4Zwh4C1Ejvumuq1C89hEzg//owiIYAAAggggAACCGQg0CiGr8o1nQxfGsudxrlTJiGAQF0CvqB46X1fw/ODxtcr+8LI1o5hjcZ8pXxSrmEuU4zBNqR1Bfy+rOFc6uYdxlrGmOI9OGebXkdbO84/Lzsf6+e0rK0tr42j8uEZrIKfjcbQK5+Ua5uvsePxvDbKNSev2bEeLlfTGp8yryFmMWWHKcElqtur3ZixbLVOm2geLjXb64UQ6+ZSQzyPAAIIIIAAAgggsJzATl3dKYecyJVa9qhxerwkBBCoU6CmY9lJU3St7ItgHLf+s15bPfSxvNTPoZRxe62Q1hWoYW2eLhD6OFTTMfa996LH6bm8Um6fsn78O7V69Jx7PXbZOW3c3hbTXoN+b162/NqNbLoNLAqvAa//r8pbmu9e491COmmQY+d12ALIiDGO9Yotl6NzH7BOYsddU712xDqas8gpYH782UVCAAEEEEAAAQQQWFlgSxf0+pWt6R4BBNIL+IJ9yZt6b5Q9hkaZ9L5Ao5d75a1dKH5vfR/lQVpXwDcw3pujUl5r3mD08amU+GPi9Pg65UY5Nvm8+qB8VJ5ybGpUf2vJdnfKMXNXa52TPHrlRnlryeuhU7ZBrfP7PC4fKzzeLaRrDfJ53GN+NltA+WCMY5ymlBk+6H+Nl4/qdMqYtla3XXCSusC5cXkSAggggAACCCCAwMoCW7jY4o11t7Iz3SOAwDICjbopaePv49ONcqe8lQuAGuqsyW5cLPrPumcdzbq8oho7qVZJx6G3Yj28Gvl1BWN6a5w+BvfKjXKKZMej8lt9X3ruLkUgBbRZ6xq7NM/vPX/SfHUFzNlSIbbqaFB+z6zk13qNbSup0UBD5uq4FZh3xhniFVN2eKfvtV5yTDFj2WqddsGJCpkbn2OREEAAAQQQQAABBFYWOKr/2k+UfeK5X9mZ7hFAYFmBG3WX+7HNMb6+ybKsUn29NRpSyIWJ3NdIbHxdfVNb3IiuFHHs/OVSrz9T7yoYz2tXnx/2yjvlJVKjTq6V3e/rWF7/3qnM1lKrAb922OLvJzl0yqS3BVo9PSjXtDY850sdh9RVFilkDn3M3JrP60lKvd49H7mlkDWS2qeE9tuFJnCvfkI8fN5DQgABBBBAAAEEEFhR4Ki+Q07gSix7pzFufdO44hKjawRWE+jUc47HrEFxOTaOS0JImK7U9pgbLTmukTliukloS9PjBBoVm2Mu12xjeBpqW8FYzh19bOiV1zoOu1/3f+kYdafXtpZsclI+n6etPfb4O2XSOIFWxQblGtZJp3FsLXUacMjc9VsDejXeEKuYssOr/nL41THFjGWrddqFJu0YOC/NQnHRDQIIIIAAAggggMAbAr5AXvsJsk9Q17rA9wY5TyGAwIICfu9fusC+9LHvpFh65UaZtJxAo658M2Xp+c6lPz7/lltrl3oqff35GLpXzuVYOsd760bjaZRzSH6P9sr+jHgemx/bfGvpWgN+NtjaT7+/+q1N+IzjbdXWoFzqujnNaFFaUx772HnbspPndaxTbLkhw8UTO5at1msXmMNGfYT45riuFmCiCwQQQAABBBBAIA+BTmGEnLyVWNYXk0gIILBtgaOGv+bxy/23256CLEa/9jpYaw0estDfdhBXGv5a8z9Xv75BNVdba7bjceT8nmgU3xZv/mrY3z4n11wba/Z9o/E3RiBNFvD7+6S85nzG9J3zcWnypHzQQB84X90H7dX8cszaCqkzZIgXEj9ll9lz+hpbiPWWj28ZvqUICQEEEEAAAQS2JOATsZATtxLLdluaUMaKAAIXBdY43p0UzZXy7mJUvLCGgOekxM+zKTEf14CmzxcC+w2uuylrNlVd32jjmPxiaWb1y2mD75Pcv5SQ1QIJDKZXefumOp7M2e4QOLbaivu4HOJ5qg0gYDwhTjFlh4BYlioaM44t12kTT4zfryHH1lPieGgeAQQQQAABBBBA4IKAL0aGnLiVdhLtsbUXxs7TCCCwTYGljnmDeA/bJC5m1J0iLe1zbUq8Xvuk9QVOCmHKPFJ3mt/V+kuACN4R6PXa1tb4oDH7YjopnUCjpm+Uc19brWLcejoKIGSeuo2ChRjFlB0ydI0Zx5brtInnsFf7Ib6cfyWeEJpHAAEEEEAAAQTeEtjryaVuhoScHM5V9qTxeYwkBBBA4FzgWr/MdZx53Y6PqUflRplUhkCnMF/PY82/87m4/rr0MaLmNZbr2E5yZ/2vv/7fi6DRi7mun1Rx9e+B8NrsAge1mOv+d5h9tGU22CjskPfbqcxhTo46xCim7DA5wvkbiBnHluu080/Bv1vc6VHIsdRlXYeEAAIIIIAAAgggsKCAT8DulGs9KfbYOMlccEHRFQIFCewV69zHvpPa7JU57gihwNQp5rnXRK7tXRU4P7WFfNjQesvlfTDInONz/u8kz1MuayZ1HL4g3uY/JVVG6GPBtXLqOQ5tf1+ldtyghsD56eK6KbpW6PoKLe85yC2FjmHr5duEE9ir7RBflychgAACCCCAAAIILCjgjW/NN4CPGh8X+hZcUHSFQIECJ8UcsnG9VNbtdAWOn5B/K3DUU5fmuabnb347dJ5ZWMDnKDWtqdzHclx4fukuTuCwofeF92FNHBO1ZhRo1dZJOYdjGMeplxPruQmZF8/j1lKIT0zZIUPQmHFsuU6baA4btftVeayty3J9TggkBBBAAAEEEEBgSYGjOht7wlZaOY+NhAACCHwkcKUCU45vg+r7gjWpLgHP65R1UUJdX4ghrS/gm0AlrJfSY+zWn2oiGClwUrnS19uY+P3e52L4yEWxQDHPxY3ymLlLWaZZYKyldTEEzktX2gAnxptyPbpt++eWUo+5tvbbRBN4VLshVi5PQgABBBBAAAEEEFhQIPSELeTkbu2y3YKOdIUAAmULNAo/5pjlC4WtMqlOAV8M/qocszZKqrOvc/qKGtX1BtbZ2u+JrqgVse1gew1/7fWyRP/HbU9z1qPvFN1an/+si7eXRqunQ96Xnr8tfcEixCam7PD2tKz6bMw4tlynTTBbjdoMNXUdEgIIIIAAAggggMBCAp36CT1hK6G8N3weGwkBBBAIETiq8NhjnMs2IY1TtliBgyIfuy5KLdcVOzv1BL6FdbbW+8PnhXzRoZz3im/arHXzbck1eixnSjYbaaOR3ykvuS689v0eIL0tMOjpkPno326mymdDXGLK2j63FDOOLddpE0yg10WI6TFBDDSJAAIIIIAAAgggcEGg0/MhJ2ullOVC34UJ52kEEPhQwBfd3rvY5+NLr9wok7YlcKPhlvI5GBPncVvTmeVom8rXWMy6nKMO54VZLvd3g/LxaI65z7kNj5FUjsC1Ql1qPfXlsKwSaateQ+bCnwGN8hZSiEtM2SFDxJhxbLnO3F8wabUmQj2bDNcRISGAAAIIIIAAAlUK7DUqb4hCT9hyL3/SmDw2EgIIIBAr4M1xr+zjiY95PlbeKB+USdsVaDT0Gj83nz/X77Y7tVmN/Pm48zwv/Jx2rur3LOeFWS3xD4NpVKL2dX/8UIECOQp0Cir1eYDb93ko6X2BQS+HHCdu3m+umldDTGLK2j235JhixrLFOscEk3cK9O8TxECTCCCAAAIIzC7w+9lbpEEElhdo1OWdcm0bzHuN6XvlR2USAggggAACcwv0avCnuRvNqD3Oc9efDF+oPqwfRhUR+HzQ54U+PySVI+CL1F054QZHeqsaXpekMgX2Cttr1D9TpJ/VaJ+i4crabDWeIXBMft/dBtYprfgviQO2X27Hr51i8vuxVSa9LXCrpx+V799+OfrZK9W8DqjtGP6s7J8kBBBAAAEEEEAAgYQCO7XtG8DeINSUvQn02EgIIIAAAgikEvDnzFflmj4/z8eyTwVHu6MFepU8nxMex3n4fcp6Hr3ssinYKpKa17z3YOxXsllu0YF4DgfludfqKTqibVY8Bs7BFnznXpOv27M5CQEL+DgYuifqXZGEAAIIIIAAAgggkF5gUBevT+ZL/53NSPp1Qw8IIIAAAr8K9PpR+ufmpfgPTPLqAm3F6+vSupv7eW4Ar76MowMYKl7/XpfcAI5eGllWvJ55vXZZjjLfoBqFFvr50ec7nFkiu4kwCTHsZomSRmoQCF1rJw2az8AaZp4xIIAAAhsR+P1Gxskw6xQ4alhdZUP7pPH8WNmYGA4CCCCAQL4CvoBR64WMnzW2Pl/6TUTWaJReX6Q4gUdV8z9VeR9XnVorCrTqe1ix/9Rd/0UdsC5TKy/ffqcuvceemh7UgP+ZVFKYQK/iPwVU8WeE34sPAXVKKrpTsJ3yf88ctN3+V/nzzO3SXJkCrcIO/bz+QXU+K5MQQAABBBBAAAEEEgp0avuXyrLHREIAAQQQQGBpgbn/+ieXz2d/q5+0vkAu66G0OL5q6vbrTx8RRAoMqlfamhsbbxdpQrUyBHzc8fFn7Hp4q9yhjKFmF+Uuwn7IbhQEhEA5An7PnZTfOo5deo73XDnzS6QIIIAAAgggULBAq9gvnZCV+nxX8HwQOgIIIIBA2QKNwi/18/O9uO/KnpZqoh8qXV/vrb05XvONGFKZAq3CnmMN5NjGscwpIepAAR9//BkaswaHwL4o/lKg06+h7lcvm+A3BBAYKXCtcqHvt3Zk2xRDAAEEEEAAAQQQiBTwhnTqN5NDT/JSlvdY2kgLqiGAAAIIIDCXwKCGUn7erdX2XD60Ey9wrHRtpVzTXTw3NTMQGBRDyvWxVtsnjWuXgS8hLCPguY65EdwuE17VvYQeQ3xNoalahMEhML9AqyZDP0+P84dBiwgggAACCCCAAALnAt6I+uJD6IlaruW9WfNNbRICCCCAAAJrC3QKINfPyylxccNi7ZX16/+Xecocbq2u34ukcgUahV7rmmXfUu66jI3cn6E3AWt6iO2Iei8E/F4LPY5g/4KQXxB4V8DHtpNyyPvM1+9cj4QAAggggAACCCCQUOBObYecpOVclhvACRcKTSOAAAIIBAv4okbOn5uxsbXBElSYW+CgBmPnb2v1+rnxaW9xgaN6rHHd9otL0mFOAmPX9T6noAuP5Vrxhx5LrgofM+EjsJTA2GPa+XuwWyo4+kEAAQQQQAABBLYqEHOSdn7CltNj38z2xXYSAggggAACOQncKJicPi/niMU3IEnrCrTqfo65rL2N47rTRO8zCDRqo8Z16r0LCYFeBO+tb9+0JM0n4OsFJ+X3zN96bT9fCLSEQJUC3hu89d5577mhSgkGhQACCCCAAAIIZCTQKZb3TshKeo0bwBktLEJBAAEEEHghcKXfSvpMHRNr/2KE/LKWwJi52nIZfwGDVL6Ab4LVuI65qVT+2pxrBN2FNf5Vz+/m6oR2/i0Qc7OK6w3/5uMBAr8RaPSMj1chn9Uu73okBBBAAAEEEEAAgUQCrdoNOUHLuSwbskSLhGYRQAABBGYRaNRKzp+jMbH1s8jQyFSBmLnbSh3OD6eurjzq+wZY6IXlEtb4dR68RJGRgG9Mvl7rfo6URuBGzYYeK45pQqFVBIoXuNMIQt9PV8WPmgEggAACCCCAAAIZCzSK7fUGM/SELZfybMQyXmiEhgACCCDwb4GTHuXy2TlHHL54SlpfIOai2xzzn3sbPs/1zUNS+QK+SJz7eguNj/VZ/rpMNYK9Gvbn66B8SNUJ7X4T8GeE34uh79/uW23+gwACzwLXehD6PvIxjoQAAggggAACCCCQSMCbnTvl0JO0HMsfExnRLAIIIIAAAnML+DMrx8/S2JiGuYFoL0rA8xA7h7XW80V930gh1SFw0jBqW6tdHVPDKBAoXsA32kOPL3zGFD/tDGBGgdj3UDNjDDSFAAIIIIAAAggg8ErgqN9DNzo5lvc4SAgggAACCJQicKVAc/w8jY1pKAW+8jhvKltXsevxvJ4vSJLqEIi5uHy+FnJ8fKpjahgFAtUIXGskoceKO9XZVSPAQBCIE9irmr8UEfr+uYrrjloIIIAAAggggAACYwR6FQo9QcuxvDdqJAQQQAABBEoS8IWSHD9TY2PyRR/S+gK9QoidwxrrcWFx/TU5ZwRDheu7nROIthBAYLLATi2clEM/E28m90wDCJQr4PfNnXLo+8af6yQEEEAAAQQQQACBRAIHtRt6gpZj+S6RD80igAACCCCQWiDHz9UpMaX2ov2PBXoVmTKHNdU9fsxFiYIEGsVa0/r0WIaC/AkVgS0J7DXYmOMNX07f0iphrOcC/hJE6Hvmq+r45jEJAQQQQAABBBBAIIGANzU+4Qo9ScutfJfAhiYRQAABBBBYSmBQR7l9tk6JZyk3+rkscFXZmopdj35vkeoS8M2V2PWQa722riliNAhUJRD7edpVpcBgEPhYIPbzuf24aUoggAACCCCAAAIIxAj4m3Z3yrleDBkbVxczeOoggAACCCCQkcBRsYz93CuhXEa0mw2lrWxNxaz7kwx8vkuqS6CGL7Cer+ehrulhNAhUKXCjUZ2/b8c+3lepwaAQ+K1Ap6fGvi/Oy/W/bYpnEEAAAQQQQAABBOYSOKqh85OvEh93c2HQDgIIIIAAAisK9Oq7xM/hSzE3K1rS9a8CrX5cmp8tPO8bhVx8/3Ut1PTfQ4Xruq1pghgLApUK+AtFJ+XQz08+iypdEAzrhUDsZ/PwohV+QQABBBBAAAEEEJhV4EqthW5gcivfzSpCYwgggAACCKwn0Krr3D5np8Tj8ZDWFWjV/ZQ5LL2uL0iS6hOI/Wu8XNfzXX1TxIgQqFZgr5HFHEtOqrerVoWBbV3A7wt/2SH0veE6vC+2vnoYPwIIIIAAAggkE2jVcugJWk7lfbLoE00SAggggAACtQi0GkhOn7VTY/F4SOsKtOp+6jyWWv9qXXp6TyTQqN1S1+SluLtEVjSLAAJpBDo1e+n9/N7z/sIHN7zSzAmtrifg63IxN4D9XuGa3nrzRs8IIIAAAgggULmANx6xJ2nvbWqWeo0bwJUvUIaHAAIIbFhgqc/SJfppNzyPuQy9USBLzHVufRxzmQDimF3gqrI1fZpdiAYRQGAJAX/OxHz2cSN4idmhj6UEplxb7JYKkn4QQAABBBBAAIEtCnjjEbNhyaEON4C3uGIZMwIIILAdgRw+a+eKod3OtGU90rnms5R2uMCe9XKcHFzJ+5i33kP9ZBEaQACBtQQGdfzW+/qj53wcIyFQuoBvAMd+Jh9LHzzxI4AAAggggAACOQtcK7iPNiW5vv5Vse9zxiU2BBBAAAEEJgoMqp/r53BoXO1EC6rPIxA6byWX97miL0qS6hTwPqDk9flW7E2dU8WoENiEADfBNjHNDPINgSlrf3ijPZ5CAAEEEEAAAQQQmEmgUztvXXwo4TluAM+0CGgGAQQQQCBrAV8YKeFzeUyMbdbS2wluzFzVUsY3CUn1CpT8Zda33mM39U4VI0NgMwL+3PG1irfe4x89d9yMEgOtSWDKDeA7Qbg+CQEEEEAAAQQQQCCBwJTNyUebl9Sve1Pl+EkIIIAAAgjULuALgqk/V5dqv619sgoZ31LzvXY/XSHzQZjxAidVXXudzdn/IZ6CmgggkJHAlGstx4zGQSgIfCSwUwHfyI35LPR1vUaZhAACCCCAAAIIIJBAYMqJWszJ3Zx1uAGcYEHQJAIIIIBAtgK9Ipvzc3TNttpslbcV2JprYKm+r7c1pZscrW+yLLWelujntMlZZNAI1CvQaWixxw7fVPM1GxICOQtMua7Idb2cZ5bYEEAAAQQQQKAKgaNGEbshWbMeJ4pVLD8GgQACCCAQINCr7JqfvXP23QaMm6LpBOac0xzbuklHR8sZCVwrlhzXX2xMHg8JAQTqEug0nNhjwp3qciO4rvVQ02j8RayTcuz6dn0SAggggAACCCCAQCKBTu3GnqitWe+r4uZEMdGioFkEEEAAgWwFekW25ufvnH232SpvK7A55zS3trhovp21fNJQc1t/U+Jhn7OdtctItyXQa7ixxwY+07a1VkoZrT+vfH0udl13pQyUOBFAAAEEEEAAgRIFpp6sxZ7kTa3HDeASVxsxI4AAAgjMIdCqkamfo7nU91hI6wvksh7mjsPni836vESwgID3NHOvnzXbOy1gRhcIILCewFFdxx5jfHzgSyLrzR09vxSYek2xe9kcvyGAAAIIIIAAAgjMKbBTY/4maezmY6163ACecxXQFgIIIIBAaQKtAl7rM3jufj0W0voCc89rLu1xkXz9tbVUBNfqKJd1N0ccV0vB0Q8CCKwmcFTPsccLromsNm10fCbQ6XHsGnY91ychgAACCCCAAAIIJBSYsumYcqI3pS6bnYQLgqYRQAABBIoQaBXllM/SnOp6LKT1BXJaE3PF0q3PSgQLCpzU11xrJ4d2mgXt6AoBBNYTOKrrKcecbr3Q6XnjAr3Gz9rd+CJg+AgggAACCCCQt0Cn8KacsK1RlxvAea8pokMAAQQQWEagVTdrfA6n6NNjIa0vkGJu12yzX5+UCBYUaNTXmutt7r5PC9rRFQIIrC9wVAhTjiP9+kMggg0J+F8UnLpmuw15MVQEEEAAAQQQQGAVAf/TeL6hOmWjsXRdbgCvslToFAEEEEAgQ4FWMS39OZyqP4+FtL5Aqvldo93j+pxEsLCA/+nkNdZaqj6vF/ajOwQQWF/An11Tjik3qu+bcyQEUgo0avxOecpa7VSfhAACCCCAAAIIIJBQwBuDqSdtU074Yup+Vcy+cU1CAAEEEEAAgd/9rhVCzOdpjnU8FtL6AjmujZiYhvUpiWAFAc97zHrJtQ77nhUWEV0ikIHAUTFMOS75Og/HjwwmstIQWo3L1+amrNFO9UkIIIAAAggggAACiQWu1f6Uk7al63IDOPGCoHkEEEAAgeIEWkW89Odxqv48FtL6Aqnmd+l2+/UpiWBhAX/Bdel1lrI/731ICCCwXYGp12t8DDlsl4+RJxK4UrtTP/u6RLHRLAIIIIAAAggggMCZgDcDU0/clq7PBuZsAnmIAAIIIICABFrlpT+PU/XnsZDWF0g1v0u3269PSQQLC5S4v3nvfXFc2I/uEEAgP4FOIb13nBjzmm8mkxCYKrBTAzfKY9bcpTJ8MWHqLFAfAQQQQAABBBAYKdConE++Lp2Y5fh8p3hJCCCAAAIIIPBSoNWvOX5ux8TksZDWF4iZuxzr9OtTEsHCAkf1l+NajI2pW9iP7hBAIE+BTmHFHkee692pjX2ewyOqAgRaxTj1GqLrswYLmGxCRAABBBBAAIE6BAYN43kzUMLPrg52RoEAAggggMDsAq1aLOGzfEyMHgtpfYExc1VCmX59SiJYWOCk/kpYm2NjbBb2ozsEEMhXwDfP5rgJd5XvEIksU4FecY393LpUji8hZDq5hIUAAggggAACdQr0GtalE7Mcn+/qnAZGhQACCCCAwCwCrVrJ8fM7JiaPhbS+QMzc5VinX5+SCBYU8A2SHNdhbEynBe3oCgEEyhDwcc7HhtjjynO9G7WxK2PIRLmigNebb94+r5vYn26D9bbiRNI1AggggEA5An8oJ1QizVjAJ3E/ZRzf69B+0BOfXz/J7wgggAACCCCAAAIIIIDAmUB79riGh19qGARjQACBWQXu1dpflP1zSjqo8knZP0kIvCXQ68k5/nr3s9rxmn1UJiGAAAIIIIAAAggkFtipfZ/ox357b+l6V4k9aB4BBBBAAIEaBFoNYunP6FT9eSyk9QVSze/S7fbrUxLBggL+y7al11jK/rg5s+DioSsEChQ4KuY5jkGD2mkKHD8hpxHYq9k5/vrXa5NremnmiFYRQAABBBBAAIGLAnNtEubYaHzUhmMlIYAAAggggMDHAq2KfPS5WsrrHgtpfYFS1stHcfbrUxLBggJf1ddHa6Kk15sF7egKAQTKFOgU9hzHNR8/uWFX5hqYK+qdGrpWnms9tXMFRjsIIIAAAggggAAC4wQOKjbHydwSbRzHDYlSCCCAAAIIICCBVnmJz+cl+vBYSOsLLDHXS/TRr09JBAsJ7NXPEmtqqT5OC7nRDQIIlC/g499cX4K5U1tt+SSMIFDA1wv9uTPHZ5zXUKNMQgABBBBAAIEIAf6fwBFoVPkmsNN/j4VYfFac/v8AkxBAAAEEEEAAAQQQQACBMQLtmEIFlbktKFZCRQCBdQXu1f2flW9nCMM3lAdlXz9qlEl1CzzP942G2cww1M9q43vlB2USAggggAACCEQIcBM4Ao0q3wR8QucbwbmnWwX4Q+5BEh8CCCCAAAIIIIAAAghkJfBdVtFMD+af05ugBQQQ2JDAo8bqm28/zzTmTu34Lzp75RKuJSlMUoCA59Q3+j3HrfLU5PXna3nOfkxCAAEEEEAAAQQQWFDgSn39UkD2yadPREkIIIAAAgggECbQqngJn/VjYvRYSOsLjJmrEsr061MSwUICX9VPCWtybIz7hdzoBgEE6hNoNaST8tjjzUflfHztlEnlC/iaW68852emr+U1yiQEEEAAAQQQQACBFQQa9Tnnyd1Hm4PY133SyA3gFRYIXSKAAAIIVCHQahSxn8G51fNYSOsL5LYuYuPp16ckggUEfMM0do3kWm8BNrpAAIGKBXx95UZ5zmPcSe11yqTyBFLc/PXa6sujIGIEEEAAAQQQQKAuAd9cnfOkP0Vb3khwA7iudcdoEEAAAQSWFWjVXYrP6DXa9FhI6wusMfcp+uzXpySCBQQ69ZFi/azV5rCAGV0ggMA2BA4a5tx/GHBSm902+IofZaqbv14D++J1GAACCCCAAAIZCvD/BM5wUjIOqVdsuZ+UPSrGvyr7JwkBBBBAAAEEEEAAAQQQCBX4LrRC5uXvM4+P8BBAoByBLwr1z8r+OVdq1NBR+flm8G6uhmlnNgHPSa/sOfpJec45+qT2/qJ8r0xCAAEEEEAAAQQQWElgr35/yTz726iOk4QAAggggAAC0wRaVc/9c39sfB4LaX2BsfOVe7l+fUoiWECghH/9KOS9crWAGV0ggMD2BA4a8tx/Fexjm9vslRtl0roCjbo/Kod85owt68/aVpmEAAIIIIAAAgggkIFACRdC2gycCAEBBBBAAIEaBFoNYuwFnNzLeSyk9QVyXydj4+vXpySCxAI7tT92PZRSrk1sRvMIILBdAR8zr5VTHQ+PartVJi0r4Bv8g3KKeX2+yb/siOgNAQQQQAABBBBA4KJAr1dSnPjN2WZ3MXpeQAABBBBAAIFQgVYV5vycXrMtj4W0vsCaa2DOvvv1KYkgsUCr9udcMzm0lZiM5hFAAIFvN2pT/vHAScZXyr7pTEoj0KjZXtnWqT67BrXdKJMQQAABBBBAAAEEMhHYK45UJ39ztdtlYkUYCCCAAAII1CLQaiBzfU6v3Y7HQlpfYO11MFf//fqURJBYwHM813rJoZ1TYi+aRwABBM4FfKPWf+mZ8vh3o/YP553yOFrAN9U75UE55Zz5s6hVJiGAAAIIIIAAAghkJpDym5xznGAeM/MiHAQQQAABBGoQaDWIOT6nc2jDYyGtL5DDWpgjhn59SiJILOCbC3OslVzaGBJ70TwCCCDwWsA3Fq+VUx8Hv6qPozI3hIUQkJ5v/C7xeec56gNioygCCCCAAAIIIIDAggK9+kp90j6lfZ/skxBAAAEEEEBgfoFWTU75jM6prsdCWl8gpzUxJZZ+fUoiSCxwUvtT1khudfvEXjSPAAIIXBJo9MJReYnj4vkNYd/kJL0UWPLG7/N8XysE5uLlPPAbAggggAACCCCQjcBekTyfuOX48y4bKQJBAAEEEECgPoFWQ8rx8z8mJo+FtL5AzNzlWKdfn5IIEgr4YnWO625KTF1CL5pGAAEExgi0KjQoTzmWhdZ1f1fKvra11dRq4L2yr5+F+k0pf1R/jTIJAQQQQAABBBBAIGOBpU8SQ04wHZsv0JAQQAABBBBAII1Aq2ZDPptzLuuxkNYXyHmNhMTWr09JBAkFWrUdsh5KKOsxkRBAAIEcBFoFMSgvfez8qj5vlGu/KdxqjL2yx+oxL+18VJ+NMgkBBBBAAAEEEEAgc4Fe8S19sji2P5/INsokBBBAAAEEEEgn0KrpsZ/NuZfzWEjrC+S+TsbG169PSQQJBXyDYOxaKKUcX55NuGBoGgEEogRa1RqU1zyOuv9e+aDcKJeW9gq4U75WXtvyqBgaZRICCCCAAAIIZCjwxwxjIqR1BXwi+dO6IVzs/VGvfK/8cLEELyCAAAIIIIAAAggggAACcQL/FVct61reQ5EQQACBnARuFYyzrz/9P+VOeenUqkPn83SrXx6U/6V8q+x0++2/6/2nVdc7ZVv5M6p5eqwfqyZ/tnxW/pvygzIJAQQQQAABBDIV4CZwphOzYlj+Bl+u6QcFdp9rcMSFAAIIIIAAAggggAACRQs0RUf/2+Bvf/sUzyCAAALZCPj6jq/z/Kz8fDN4t2J07Vnfr/844vbpNcf8f2ePH58eP//w66+fe36t0QPn89ToF2enPyk3fqDUfvtvfv95UEh/V/6kfGmceomEAAIIIIAAAgggkKPAlYL6JdPc5QhGTAgggAACCFQq0GpcuZ4ThMblsZDWFwidt1zL9+tTEkFCgVzXXWxcNwmtaBoBBBCYW2CnBjvlO+XY4x710tgNT3OjHyQEEEAAAQQQKEmAvwQuabbSxtqo+Z/SdhHd+mfVdCYhgAACCCCAQLhAoyrOb6W9nvQFt9fpT6+f4HcEEECgcoGmwvH9s8IxMSQEEKhX4FFD+/yUfY7qvw4+KL91rqqnSYkFnueDf/I5MTTNI4AAAgggkFKAm8Apdctq+6hwczyx/qK4fiiLkmgRQAABBBCYVaA9a22vx+ef19+dveaHzVP2YxICCCCAwHiBZnzRYko+FhMpgSKAAAIvBe71q68F/ah8UP4f5VaZlF7gi7r4u7J/khBAAAEEEECgcAFuAhc+gTOF36mddqa25mzm+aR/zjZpCwEEEEAAgRwE9gpi95T92Om/lP2cU/vtv/wHAQQQQGApgXapjhbs537BvugKAQQQSCHwqEY/P+VGPw/KviG8VybNJ/BFTf2vsn8+ztcsLSGAAAIIIIDA2gLcBF57Btbvf6cQrtcP4zcR+KTze2VOPn9DwxMIIIAAAgUItE8xPv98/ovd59+fXuYHAggggEAmAn/KJA7CQAABBBB4W+BBT396yo1+HpS5ISyEyPRF9bjxG4lHNQQQQAABBEoR4CZwKTOVLk7fAN6laz6q5UfV4gZwFB2VEEAAAQQWFNirr0bZP33z4Plxbp+rCo2EAAIIIPCBQPPB6yW+fFti0MSMAAIIjBB4UJlPT9nn3gdlf+nSP/076bcCD3rqVvn5xq8ekhBAAAEEEECgdgFuAtc+w++Pr9XL3ftFVnnV/8+X+1V6plMEEEAAAQR+K7DXU86Nsi8u+aczCQEEEECgHgEf50kIIIAAAuUJPCrkz0/5B/308bxV9nm7f+6Ut5jscqv8D+Uvyg/KJAQQQAABBBDYmAA3gTc24a+Ge3z1ew6//qwgPucQCDEggAACCGxSoNWofeHI/39e/3QmIYAAAgjULbDT8JxrSvc1DYaxIIAAAgECPv45f3qqs9fPVtnn9/7ZKNeYnsftm77Pj2scJ2NCAAEEEEAAgQABbgIHYFVWtNd4mszG9Fnx9JnFRDgIIIAAAvUKnF8Q8mNnEgIIIIDA9gRqPP4/bm8aGTECCCDwzyjIYwAAQABJREFUpsC9nnV+Tjs92Cu3yn9SbpRb5ZLSrYJ9UP6nssd2q0xCAAEEEEAAAQR+I8BN4N+QbOKJRqP8KbOR+qTV/ww0CQEEEEAAgRQC5xd7nv9puBT90CYCCCCAQHkCTXkhfxjx44clKIAAAghsU8DHx9unfC7Q6BfnvbL3Dt4zOLXf/rvsfxzjvbJ/+kbv8+/Pz+kpEgIIIIAAAggg8LEAN4E/NqqxxDGzQflk9ntl/yQhgAACCCAwh8BOjbTKzzd893M0ShsIIIAAAlUKNBWOyjcNSAgggAAC4wUeVNT5Vvmt1OhJZyfvNd7aXzzfOP5W6I3//OON527PnrvX48ez33mIAAIIIIAAAghMEuAm8CS+IisfFHWbWeTcAM5sQggHAQQQKFTAF2L8Ofd847fQYRA2AggggMDCAn9auD+6QwABBBAoT+BBITs/py/PD/iJAAIIIIAAAgjkKsBN4FxnJk1cOzV7nabp6FZ/UM376NpURAABBBDYsoA/1w7Kvunrn/6dhAACCCCAQKhAE1qhgPIPBcRIiAgggAACCCCAAAIIIIAAAgkFuAmcEDfDpq8UU5NRXJ8Uy+eM4iEUBBBAAIH8BRqF6Bu+/6O8VyYhgAACCCAwVaCZ2kCG9R8yjImQEEAAAQQQQAABBBBAAAEEFhTgJvCC2Ct31aj/n1aO4bz7W/3y4/kTPEYAAQQQQOCCgG/2+sbvfytz4/cCEk8jgAACCEQLNNE1qYgAAggggAACCCCAAAIIIIBApgLcBM50YhKEdUzQZmyTD6r419jK1EMAAQQQ2IRAo1H6xi9/8buJ6WaQCCCAwGoCzWo9p+34MW3ztI4AAggggAACCCCAAAIIIJC7ADeBc5+heeLzRfR2nqYmt+KLEb4BzEWJyZQ08P/bu//rNm60UcDZ79z/P90KdlJBtBWEqWC1FYSpIEoFoSuwUoGYCqytQEwFVioQt4LoVrD3fWM5li2RGpLzC5gH58CkhhjgxQNYwxlwKAIECFQncBY9ymPWj5HPq+udDhEgQIDAFAWaKQbVQUx3HdShCgIECBAgQIAAAQIECBAoWMAicMGD1zL0vKD+tmXZIYrlV0C7IDGEtDYIECBQjsBFhJpf9bwsJ2SREiBAgEAlAnm+JBEgQIAAAQIECBAgQIAAgeoELAJXN6TPOnQZW5pnW8fZcBXNrsdpWqsECBAgMDGBvOiex6j8uucmskSAAAECBMYQOB+jUW0SIECAAAECBAgQIECAAIG+BSwC9y08bv1NNJ9fqTmFtIkg8i5giQABAgTmLbCI7ufC7zKyRIAAAQIECHQvsO2+SjUSIECAAAECBAgQIECAQGkCFoFLG7HD4s2vgc47rcZODxFA/h1giQABAgTmK7CMrucHk9xxNd85oOcECBCYosA3UwzqxJi2J+5vdwIECBAgQIAAAQIECBCoQMAicAWDuKMLi9h+seO1oTd/Fw3mQrBEgAABAvMSOIvuXkb2lc/zGne9JUCAQEkCeaySCBAgQIAAAQIECBAgQIBAdQIWgasb0r86lHcBTyHlV0DfTSEQMRAgQIDAYAIfF3/zzl8X1wdj1xABAgQIHCHgOHUEml0IECBAgAABAgQIECBAYPoCFoGnP0bHRLiMnc6P2bHjfdZR31XHdaqOAAECBKYrkBfSLyNb/J3uGImMAAECBD4XmMJ50+cR+YkAAQIECBAgQIAAAQIECHQgYBG4A8SJVZEX4KdwF/BdxJF3AUsECBAgUL9AHnsuI1v8rX+s9ZAAAQIEpi/w2/RDFCEBAgQIECBAgAABAgQI9C1gEbhv4eHrz4vweTF+zPQQjf8QOR8lAgQIEKhbYBXds/hb9xjrHQECBGoVGPu8qVZX/SJAgAABAgQIECBAgACBCQhYBJ7AIHQYQhN15YX4sZO/Azz2CGifAAEC/Qsso4mfIzeRJQIECBAgUKLAeYlBi5kAAQIECBAgQIAAAQIECLQRsAjcRqmcMnkxfuxPs68jhswSAQIECNQpkBfM888OLOrsnl4RIECAAAECBAgQIECAAAECBAgQIECgfAGLwOWP4cce5EX55ccfRnq8i3b9HeCR8DVLgACBngXyQ0a5+LvsuR3VEyBAgAABAgQIECBAgAABAgQIECBAgMCJAv9z4v52n45AXpgfMz1E4/4O8JgjoG0CBAj0J7CMqu8j56NEgAABAgRqEVjU0hH9IECAAAECBAgQIECAAAECXwq4E/hLkTJ/XkTYmcdM/g7wmPraJkCAQD8CTVR7HXkRWSJAgAABAgTKENiWEaYoCRAgQIAAAQIECBAgQKBPAXcC96k7XN15gX7MtI7GM0sECBAgUI/AZXTlfeRFPV3SEwIECBAgMAuB7Sx6qZMECBAgQIAAAQIECBAgsFfAncB7eYp4cRlRNiNG6u8Aj4ivaQIECPQg0ESd7v7tAVaVBAgQIECAAAECBAgQIECAAAECBAgQGErAncBDSffXzs/9Vf1qzf4O8KtEChAgQKAogWVE6+7fooZMsAQIECBwgsC3J+xrVwIECBAgQIAAAQIECBAgMGkBdwJPenheDS6/qrN5tVR/Bd5E1XknsESAAAECZQucRfhvIy/L7oboCRAgQIAAAQIECBAgQIAAAQIECBAgQCAFLAKXOw/ygv2YdwHfRPtX5fKJnAABAgQeBc7j8V3k5vFnDwQIECBAgAABAgQIECBAgAABAgQIECBQuICvgy53AC8j9LORwt9Guz+M1LZmCRAgQKA7gWVUdRu5iSwRIECAAAECBAgQIECAAAECBAgQIECAQCUC7gQucyBz8ffHEUPPBeCHEdvXNAECBAicLnAdVSxPr0YNBAgQIECAAAECBAgQIECAAAECBAgQIDA1AYvAUxuRdvGMeRfwmwhx0y5MpQgQIEBgggL5QaL8+ufFBGMTEgECBAgQGFJgMWRj2iJAgAABAgQIECBAgAABAkMK+DroIbW7aauJasa6C/gu2l5FlggQIECgTIHzCDu//nlRZviiJkCAAAECBAgQIECAAAECBAgQIECAAIE2Au4EbqM0rTI/Rzh5F9fQ6SEa/NfQjWqPAAECBDoT+LgAPMYxpLNOqIgAAQIECBAgQIAAAQIECBAgQIAAAQIEXhdwJ/DrRlMq0UQwy5ECyq+B3o7UtmYJECBA4DSBZeyedwBbAD7N0d4ECBAgQIAAAQIECBAgQIAAAQIECBAoQsCdwEUM019B5l3AY6SbaPRqjIa1SYAAAQInCyyjhuuTa1EBAQIECBAgQIAAAQIECBAgQIAAAQIECBQjYBG4mKH6qolQlyOE+xBt/jBCu5okQIAAgdMFllGFBeDTHWurYdOiQ3nX+HmLcooQIECAAAECBAgQIECAAAECBAgQIDBBAYvAExyUHSGNdRdwLgDnQrBEgAABAmUJLCNcC8Bljdm+aLfxYuZMeVz+/c9nH/7Jn++e/JxPt485nx+TFrHT7TE72ocAAQIECBAgQIAAAQIECBAgQIAAgfEFLAKPPwZtImii0LJNwY7LrKO+m47rVB0BAgQI9C+wjCYsAPfv3EULHxdw8/Hjwu7mseKPr3XRjjoIECBAgAABAgQIECBAgAABAgQIEJiRgEXgMgZ7jLuAt0HzUxk8oiRAgACBJwLLeG4B+AnIBJ7eRQy5oPvb4+PHn/NRIkCAAIFxBBbjNKtVAgQIECBAgAABAgQIECAwjIBF4GGcT2mliZ2Xp1Rw5L6+BvpIOLsRIEBgRIFltG0BeLwB2EbTubCbd/Tm4/bxMR4kAgQIECBAgAABAgQIECBAgAABAgQIDCdgEXg462NbGuMu4KsIdnNswPYjQIAAgVEEFtGqBeDh6HOR9+mC72a4prVEgAABAgQIECBAgAABAgQIECBAgACB/QIWgff7jP1qEwEsBw5iG+29GbhNzREgQIDAaQLnsfu706qw9ysCm3g9v845H3Px9yGyRIAAAQIECBAgQIAAAQIECBAgQIAAgUkKWASe5LD8FdQYdwH7Gui/+D0hQIBAEQJnEeVt5HyUuhPYRFUfF33zuUSAAAECBAgQIECAAAECBAgQIECAAIFiBCwCT3eo8mL+xcDhXUV7m4Hb1BwBAgQIHC+QxwoLwMf7Pd1zGz/cRM6F33yUCBAgQIAAAQIECBAgQIAAAQIECBAgUKyAReDpDt1lhJYX94dK22jozVCNaYcAAQIEOhF4G7Wcd1LTPCu5i27/Gvkm8jayRIAAAQIECBAgQIAAAQIECBAgQIAAgSoELAJPcxhz8ffHgUP7Idp7GLhNzREgQIDA8QKXsevy+N1nu+dd9NzC72yHX8cJECBAgAABAgQIECBAgAABAgQIzEPAIvA0xzkv7J8NGNpVtLUZsD1NESBAgMBpAovYPe8CltoJbKNYLvyuI28jSwQIECBAgAABAgQIECBAgAABAgQIEKhawCLwNId3yLuAH4LgzTQZREWAAAECLwjkh4TevbDdpucC69iUi7+byBIBAgQIEJiLwHl0dDOXzuonAQIECBAgQIAAAQIECLwsYBH4ZZcxty6j8bzAP1T6IRrKhWCJAAECBMoQuI4whzxOlKHyKcptPM2F36vIjm+BIBEgQIDA7AS8T5jdkOswAQIECBAgQIAAAQIEngtYBH5uMvaWnwcM4CbayiwRIECAQBkClxHmRRmhDh7lJlrMxd91ZIkAAQIECBAgQIAAAQIECBAgQIAAAQKzFrAIPK3hX0Y4zUAhPUQ7eRewRIAAAQJlCDQR5pAfFCpD5cPXXb6JYDelBCxOAgQIECBAgAABAgQIECBAgAABAgQI9C1gEbhv4cPq//6w4ieVzgvmuRAsESBAgEAZAr4G+vNx2sSPFn8/N/ETAQIECLQXcC7U3kpJAgQIECBAgAABAgQIEChQwCLwdAZtEaFkHiJtopGrIRrSBgECBAh0InAZtSw6qan8Su6iCz9F3pTfFT0gQIAAgREF8ngiESBAgAABAgQIECBAgACBagUsAk9naH8cMBRfAz0gtqYIECBwosBZ7O9roD98e0Uu/q5P9LQ7AQIECBAgQIAAAQIECBAgQIAAAQIEqhf4n+p7WEYHmwjzYqBQ86sztwO1pRkCBAgQOF3A10B/+PaKr4NyfTqnGggQIECAQPUC31bfQx0kQIAAAQIECBAgQIAAgVcF3An8KtEgBYa6w2sbvVkN0iONECBAgEAXAouoZKgPCXURb9d15Fd15rdX5KNEgAABAgQIECBAgAABAgQIECBAgAABAi0F3AncEqrHYmdR91AX+H0NdI8DqWoCBAj0IPC2hzpLqTK/ueIfkS0AlzJi4iRAgAABAgQIECBAgAABAgQIECBAYDIC7gQefyiWEUIuBPedbqKBTd+NqJ8AAQIEOhNYRk3nndVWTkW56Ovu33LGS6QECBAgQIAAAQIECBAgQIAAAQIECExQwJ3A4w/KjwOE8BBtuAt4AGhNECBAoCOBs6hnjncBX0W/v4ucC8ESAQIECBAgcJxAc9xu9iJAgAABAgQIECBAgACBmgQsAo87mstovhkghDfRRi4ESwQIECBQhsBlhHlWRqidRJnHqPyw0k+RHa86IVUJAQIECLQQuGtRpsQiTYlBi5kAAQIECBAgQIAAAQIEuhXwddDdeh5a2/eH7nBE+bywcXXEfnYhQIAAgXEEzqLZIb4lYpzePW91G5v+FbnWC/HPe2wLAQIECExF4GEqgYiDAAECBAgQIECAAAECBAh0LWARuGvR9vWdR9FF++JHl8y7qiQCBAgQKEfgMkI9KyfckyK9i73z658fTqrFzgQIECBAgAABAgQIECBAgAABAgQIECDwmYCvg/6MY9AfhrjLax092gzaK40RIECAwCkCufg7xPHhlBi72ncdFVkA7kpTPQQIECBA4HOB889/9BMBAgQIECBAgAABAgQIzE3AncDjjHhe5L/ouemHqD//FrBEgAABAuUILCPUPEbUntbRwfwbwBIBAgQIEBhTIM+Zak1zeD9R69jpFwECBAgQIECAAAECBDoRcCdwJ4wHV7KMPfo+Kf8l2thGlggQIECgHIE53AW8juGwAFzOnBQpAQIEahb4vebO6RsBAgQIECBAgAABAgQIzFvAIvA449/3Rf5tdGs1Tte0SoAAAQJHCixjv+bIfUvZbR2BWgAuZbTESYAAAQIlCzQlBy92AgQIECBAgAABAgQIEDhdwCLw6YaH1rCIHZpDdzqw/E8HllecAAECBMYX+H78EHqNYB21WwDulVjlBAgQIEDgL4Hmr2eeECBAgAABAgQIECBAgMAsBSwCDz/sfV/k30SXbobvlhYJECBA4ASB89h3ccL+U9/1LgK0ADz1URIfAQIE5iewnV+X9ZgAAQIECBAgQIAAAQIE5iJgEXjYkc6/A7zsuUkX2XsGVj0BAgR6EOj7zwT0EHLrKnMB+LvWpRUkQIAAAQLDCWyHa2rwlr4ZvEUNEiBAgAABAgQIECBAgMCkBCwCDzsclz03t476tz23oXoCBAgQ6F7govsqJ1HjQ0SRH07KR4kAAQIECBAYTuBsuKa0RIAAAQIECBAgQIAAAQJTFLAIPOyo9PlV0HmB3d8CHnY8tUaAAIEuBJZRSa0XanMB+K4LJHUQIECAAIEeBLY91DmVKmt9bzEVX3EQIECAAAECBAgQIEBg8gIWgYcbokU01fTY3C9Rdy4ESwQIECBQlsA/ywq3dbRXUfKmdWkFCRAgQIDA8ALb4ZscrMXzwVrSEAECBAgQIECAAAECBAhMUsAi8HDD0uddwNvoxmq4rmiJAAECBDoSOIt6Ljqqa0rV3EUwvp1iSiMiFgIECBAgQIAAAQIECBAgQIAAAQIEZiVgEXiY4c6L/Msem3rTY92qJkCAAIH+BGpcAE6t/BpoiQABAgQIlCCQH1yqNZ3X2jH9IkCAAAECBAgQIECAAIHXBSwCv27URYllF5XsqGMT29c7XrOZAAECBKYtUONXQecHk2q+oD7tGSU6AgQIEDhU4OHQHQoqf1ZQrEIlQIAAAQIECBAgQIAAgY4FLAJ3DLqjuj6/CtpdwDvQbSZAgMDEBfLC7MXEYzw0vG3scHXoTsoTIECAAIERBR5GbLvvps/7bkD9BAgQIECAAAECBAgQIDBdAYvA/Y9Nnnj3dfK9ibozSwQIECBQnsBFeSG/GnH+HeCHV0spQIAAAQIEpiPw+3RC6TySs85rVCEBAgQIECBAgAABAgQIFCNgEbj/oerzLmB/c7H/8dMCAQIE+hL4tq+KR6p3E+3ejNS2ZgkQIECAAIHnAt8832QLAQIECBAgQIAAAQIECMxFwCJw/yO97KmJddS77alu1RIgQIBA/wK13QnszxP0P2e0QIAAAQLdC2y6r3IyNboTeDJDIRACBAgQIECAAAECBAgML2ARuF/zvMDf14m3i+39jp3aCRAg0KfAeVTe1/Ghz7h31b2JFzJLBAgQIECAwHQE8v2GRIAAAQIECBAgQIAAAQIzFbAI3O/A9/VV0FcR9rbf0NVOgAABAj0KLHqse4yqfTBpDHVtEiBAgEAXApsuKploHTV94GyixMIiQIAAAQIECBAgQIDAdAUsAvc3NnnCfdFD9Q9Rp4vtPcCqkgABAgMK/HPAtvpuahMNZJYIECBAgACB6QkspheSiAgQIECAAAECBAgQIEBgCAGLwP0p97EAnNH+EjkXgiUCBAgQKFfgvNzQn0X+67MtNhAgQIAAgbIENmWFe1C0ZweVVpgAAQIECBAgQIAAAQIEqhGwCNzfUP7YQ9W5+HvVQ72qJECAAIHhBHIBuJYLsnlcWg9HpyUCBAgQIEDgQIF83yERIECAAAECBAgQIECAwAwFLAL3M+hNVNvHyba7gPsZL7USIEBgSIHFkI313Na65/pVT4AAAQIEhhD4bYhGRmrjm5Ha1SwBAgQIECBAgAABAgQIjCxgEbifAbjoodq82+qqh3pVSYAAAQLDCtR0MdZXQQ87d7RGgAABAv0I5LlWramptWP6RYAAAQIECBAgQIAAAQL7BSwC7/c59tXvj91xz37uAt6D4yUCBAgUJHBeUKz7Qt3Gi3f7CniNAAECBAgUIlDz8ayW9x2FTCVhEiBAgAABAgQIECBAYDoCFoG7H4s8ye76RPsh6rzqPlQ1EiBAgMAIAl0fI0bowp9N3ozVsHYJECBAgEDHAncd1ze16mp57zE1V/EQIECAAAECBAgQIEBg0gIWgbsfHncBd2+qRgIECNQisKilI9EPXwVd0WDqCgECBGYu8FB5/y0CVz7AukeAAAECBAgQIECAAIGXBCwCv6Ry2raL03Z/tndekLh6ttUGAgQIEChRoCkx6BdizmPT3QvbbSJAgAABAqUKbEoNvEXcTYsyihAgQIAAAQIECBAgQIBAZQIWgbsd0POorum2yq/8LeCOQVVHgACBEQWaEdvusulNl5WpiwABAgQITEBgO4EY+grh274qVi8BAgQIECBAgAABAgQITFfAInC3Y9P1V0HnnVZX3YaoNgIECBAYUaCWi7C/jWioaQIECBAg0IfAf/qodCJ15oeVJQIECBAgQIAAAQIECBCYmYBF4G4H/KLb6twF3LGn6ggQIDC2wNnYAXTU/qajelRDgAABAgSmIrCZSiA9xJHvP5oe6lUlAQIECBAgQIAAAQIECExYwCJwd4OTn65uuqvuq4eo66rD+lRFgAABAuML5LGihnRXQyf0gQABAgQIPBGo/dhWy3uQJ0PmKQECBAgQIECAAAECBAjsE7AIvE/nsNe6/ipofwv4MH+lCRAgMHWBs6kH2DK+TctyihEgQIAAgZIEHiLYzLWmWv4kRa3jo18ECBAgQIAAAQIECBDoXMAicHeki+6q+rOmq47rUx0BAgQIjCtwPm7znbW+7awmFREgQIAAgWkJ3E0rnE6jqeV9SKcoKiNAgAABAgQIECBAgEDNAhaBuxndJqrp8qR6HfU9RJYIECBAoB6Bs0q68p9K+qEbBAgQIEDgS4HfvtxQ0c+LivqiKwQIECBAgAABAgQIECDQQsAicAukFkUuWpQ5pMibQworS4AAAQJFCHT5YaExO7wZs3FtEyBAgACBHgXueqx7ClUvphCEGAgQIECAAAECBAgQIEBgGAGLwN04d/n3gNcR0rabsNRCgAABAgQIECBAgAABAi0FLAK3hFKMAAECBAgQIECAAAECBKYvYBH49DE6iyq6vLvrl9NDUgMBAgQITFDg7xOM6ZiQNsfsZB8CBAgQIFCAwDZifCggzmND/PbYHe1HgAABAgQIECBAgAABAuUJWAQ+fcwuTq/irxo28ezur588IUCAAIGaBJqaOqMvBAgQIECgUoFNpf3Kbi0q7puuESBAgAABAgQIECBAgMAXAhaBvwA54sd/HrHPrl38LeBdMrYTIECAwBQEtlMIQgwECBAgQKBHgd97rHsKVS+mEIQYCBAgQIAAAQIECBAgQKB/AYvApxt3dSfwNkLZnB6OGggQIECAQG8C295qVjGB/gTO+qtazQQIVCiwqbBPT7u0ePqD5wQIECBAgAABAgQIECBQr4BF4NPGtqsF4IzCXcCnjYW9CRAgMHWBxdQDFB+BSgXOK+2XbhEg0I/App9qJ1Nrl99kNZlOCYQAAQIECBAgQIAAAQIEngtYBH5ucsiWrk6gH6LR9SENK0uAAAECBAgQIECAAAECvQjc9VLrNCrND8acTSMUURAgQIAAAQIECBAgQIBAnwIWgU/TXZy2+197//LXM08IECBAgAABAgQIECBAYEyBzZiND9D2xQBtaIIAAQIECBAgQIAAAQIERhawCHz8AOQnqJvjd/9sz6vPfvIDAQIECBAgQIAAAQIECIwl8NtYDQ/UblffaDVQuJohQIAAAQIECBAgQIAAgWMELAIfo/Zhn8Xxu3625zp+evhsix8IECBAgAABAgQIECBAYCyBzVgND9TuYqB2NEOAAAECBAgQIECAAAECIwpYBD4ev6tPT/sq6OPHwJ4ECBAgQIAAAQIECBDoWiA/pHvXdaUTqu8sYrmYUDxCIUCAAAECBAgQIECAAIEeBCwCH4eaJ82L43b9bK+8sJBZIkCAAAECBAgQIECAAIHpCGymE0ovkXT1oeZeglMpAQIECBAgQIAAAQIECJwuYBH4OMPFcbs928tdwM9IbCBAgAABAgQIECBAgMDoArX/XWB3Ao8+xQRAgAABAgQIECBAgACBfgUsAh/n++1xu32210P8tP5six8IECBAgAABAgQIECBAYAoCN1MIoscYzqJuC8E9AquaAAECBAgQIECAAAECYwtYBD5uBLo4WV4f17S9CBAgQIAAAQIECBAgQGAAgc0AbYzZhK+EHlNf2wQIECBAgAABAgQIEOhZwCLw4cBN7JL51OSroE8VtD8BAgQIDC2wGLpB7REgQIAAgREF/j1i20M0nR9uzjuCJQIECBAgQIAAAQIECBCoUMAi8OGDujh8l2d73MSW7bOtNhAgQIAAAQIECHQt0MWf8eg6JvURIFCGwKaMMI+OMheAcyFYIkCAAAECBAgQIECAAIEKBSwCHz6oXVxI/PXwZu1BgAABAgQmIeCOoUkMgyAIECBAYACBu2hjO0A7Yzbx/ZiNa5sAAQIECBAgQIAAAQIE+hOwCHy47eLwXT7bYxs/3Xy2xQ8ECBAgQKAcgfNyQhUpAQIECBA4WaD2c7dFCDUnK6mAAAECBAgQIECAAAECBCYnYBH4sCHJC9/NYbs8K+0u4GckNhAgQIBAQQJnBcUqVAIECBAgcKrAb6dWUMD+PxYQoxAJECBAgAABAgQIECBA4EABi8CHgS0OK/5i6fWLW20kQIAAAQJlCLgTuIxxEiUBAgQIdCOQdwI/dFPVZGtZRmQ+5DXZ4REYAQIECBAgQIAAAQIEjhOwCHyY26l/DzgvIGwPa1JpAgQIECAwKYFvJhWNYAi8LmBh43UjJQgQ2C+Q53E1p/w9eVFzB/WNAAECBAgQIECAAAECcxSwCHzYqC8OK/6s9L+fbbGBAAECBOYicFdJR5tK+qEb8xE4n09X9ZQAgZ4E5nAe93NPdqolQIAAAQIECBAgQIAAgZEELAK3h2+iaH5C+tj0EDuuj93ZfgQIECBQvEAeB2pIFtRqGEV9IECAAIFDBG6icC3H8V39buKF5a4XbSdAgAABAgQIECBAgACB8gQsArcfs0X7oi+WXL+41UYCBAgQIFCewKK8kEVMgAABAgROEsiF4NrT97V3UP8IECBAgAABAgQIECAwJwGLwO1H+9S/B/xr+6aUJECAAIEKBWq6g+i8wvHRpU8CTTx9++nHKp6dVdELnSBAYEyBOXwl9CKAM0sECBAgQIAAAQIECBAgUIGAReD2g7hoX/RZybvYklkiQIAAgfkK/F5R17+pqC+68rlALvC/j5yPNaXa+lPT2OgLgVIEbiLQh1KCPSFOfxv4BDy7EiBAgAABAgQIECBAYEoCFoHbjUYTxTIfm9wFfKyc/QgQIEBgigKLKQYlppMFcqH0NvLZyTWpgAABAnUKrOvs1me9WsRPmSUCBAgQIECAAAECBAgQKFzAInC7AcyLoqekm1N2ti8BAgQIVCGwraIXHzrRxENmqR4BC8D1jKWeECDQn8BcPtxb258E6G9GqJkAAQIECBAgQIAAAQITFrAI3G5wTvl7wLkAvG3XjFIECBAgULHAtrK+XVTWnzl3ZxGdr/0O4OyjRIAAgVMF7qKC7amVFLB/fjBoWUCcQiRAgAABAgQIECBAgACBPQIWgffgPHkpT4KPTf8+dkf7ESBAgEBVAg9V9earr075gFRlFEV3ZxnR174AXPQACZ4AgckJ/DK5iPoJ6Oeo9qyfqtVKgAABAgQIECBAgAABAgSmI/DfCOXY7MR5OuMoEgIECIwtcOyxZKr7OcaNPaNOa38Zu091bnUd1/VpVPbuQKDrMR2rvlUHFqooWyCPfWPNv6HbXZU9VKInQIAAAQIECBAgQIDAvAXcCfz6+C9eL7KzxDpeedj5qhcIECBAYG4CtR0TLuY2gBX1dxl9ua6oP691pXmtgNcJECDQUiCP5euWZUsv9nN0oCm9E+InQIAAAQIECBAgQIDAXAUsAr8+8uevF9lZwldB76TxAgECBGYpcFdZr/9ZWX/m0p1c/J3TAnCO69lcBlc/CRAYRODXQVqZRiNzO15MQ10UBAgQIECAAAECBAgQ6EDAIvDriN+8XuTFEvkJ8ZsXX7GRAAECBOYqsK2s4xfRH4trZQ1qXsxflhVyJ9Ged1KLSggQIPBBYBMP2w9Pq/93ET28rL6XOkiAAAECBAgQIECAAIEKBSwCvz6oi9eLvFji5sWtNhIgQIDAnAX+U2HnLyrsU41dOotOvYu8rLFzLfuUBhIBAgS6Evilq4oKqOfniLEpIE4hjiOQ7wUvIzfjNK9VAgQIECBAgAABAgQIHCeQFwv/e2TOEyGJAAECBAg8FVjED8ceV6a63/unHfR8kgL5fibHaapzaKi4FpMcnfkENdQ4993Oaj5DpqevCOTv1j8i9z3nplL/7SseXp6fwDK6fB/56Rx1HWR+80CPCRAgQIAAAQIECBQrsIjIn57QtH2eFwMkAgQIECDwpUATG9oeS0oqt/iyo36ejMB5RGIB+MP/u8vJjMo8Aynpd9q+WFfzHD693iFwHdv3zZfaXvN7dMdEmNnmRfR313uLvBZyNjMP3SVAgAABAgQIECAwWQFfB71/aBb7X9756s3OV7xAgAABAnMW2Fba+e8r7Vfp3TqPDtxGzkfpq6/+DoEAAQIdC7zpuL6pV/c2AnRMmfoo9RdfE1W/i7zvvcVZvJ7zRCJAgAABAgQIECBAgMDkBfIE579H5IvJ90yABAgQIDCWQF44O+bYMvV9mrFAtfuiwDK2Tn3ODB3f7YtSNg4lMPR499Xeaigw7RQjcOw5Y19ztO9672NkcqFPmo9Ajvcq8iFzaxHlJQIECBAgQIAAAQIECExaIE9wDznRybJ/TLpHgiNAgACBsQXy7ohDjy0llL8eG1b7fwms4lkJc2boGL1H+2uKjPJk6PHuq738/yUReCqwiB/6mm9Trff2KYDnVQsso3f3kQ+di9dVq+gcAQIECBAgQIAAAQLFC+SnXQ890cnyTnaKH3odIECAQK8Cy6j9mONLCfs0vcqp/DWBfO+S70NKmCtjxdi8huj13gTGGvOu2131JqTikgVuI/iu59rU67suecDE/qrAeZQ4dV7n+xKJAAECBAgQIECAAIERBfxN4N34edJzTPr3MTvZhwABAgRmI3BXcU9/rrhvU+9aEwHmxdplZGm3wLHv73bX6BUCBAh89dXc/jZwjvnyMedzqR6BXLjNBf73kReRT0nLU3a2LwECBAgQIECAAAECBPoUuIzK/3tEzpMmiQABAgQI7BPIr6U95hhTwj6LfR33Wi8CaV7znOpy3r/tZQRU2kagy3Ecs65Vm84qM0uB2+j1mHNzrLaXsxzt+jqd1zFWkbt8P3FfH5MeESBAgAABAgQIECBQi8B1dOTQE+l3tXRePwgQIECgV4E8Xhx6jCml/G2vcir/UuDYD62VMp+6jtP8/HIGDfdz12M5Vn2r4ci0VJjAIuIda16O3e6ysLES7ucCOX73kfuYR4uoVyJAgAABAgQIECBAgMDkBG4jokNPgpaT64WACBAgQGCKArUv3GX/pH4F8o6dmj9McOh7sEPK9zsyat8lcMgYTbnsalcHbScQAreRpzx/+4xtaQYUJ7CIiO8j9zkvrotTETABAgQIECBAgAABArMQOOZEqJmFjE4SIECAwKkC51HBMceZUvbJrxLMRUqpH4GcP+8jlzIfphbnop9hUesrAlObB8fGs3qln16et8Aiun/s3Kphv+W8h7+Y3i8i0tvIQ8w57wmLmRYCJUCAAAECBAgQIDAfgSa6eugJUV6MlQgQIECAQFuBvCh26LGmpPK3bSGUO0jgMkrXPnf6nuerg8QV7kqg73Edqn7zp6sZUW89efwbaj5OsZ1lvUNbfM8W0YMx5ueyeDkdIECAAAECBAgQIECgKoGL6M2hJ9SrqgR0hgABAgT6FngXDRx6rCmtfC5YSt0InEU1c5gzQ8zx990MiVoOFBhibIdoY3VgvxWfn8AiujzEXJxyG47/05r3OSdvR5yXjrvTmg+iIUCAAAECBAgQIDB7gVUIHHpSfT57NQAECBAgcIjAMgofeqwpsbzj4yGz4uWyi9j8R+QSx3+qMeeiujSswFTnwqFxrYZl01qhAj6089VX1zF2fteOO4EX0fxt5EN/z/VR3vvBceeC1gkQIECAAAECBAgQeCJw6En7/ZN9PSVAgAABAm0EmijUx0W2qdWZx0gXgdvMiOdl0u1t5KmNaQ3xLJ9z29KzQA3zJvuw6tlJ9XUINNGNWub8Kf14Hw5pIQ0rsIzmbiOfMnZd73s9LIHWCBAgQIAAAQIECBBIgf/B8KLAoRerNy/WYiMBAgQIENgtsI2X7na/XM0rTfQkL0RKhwksonhePL88bDelWwp827KcYgQIEDhGYBs7vTlmx8r2OY/+5LHsorJ+TbE7ZxHUMvJ95FxwXUSeUso5kDFKBAgQIECAAAECBAgQGF3gvxHBIdlJ7ehDJgACBAgUKXAZUR9yvCm57HWRIzR80HmB1N2//f+/+GP4oZ19iyX//noa+2r2IwmgrUD+Ps/fNU/nz5yfX4dFmkjdCjRRXb5vKGGuLSNOiQABAgQIECBAgAABAqMKNNH6oSfnTmZHHTKNEyBAoFiBJiI/9JhTcvm8ACztFriIl+4jlzzGJcV+vnsovNKDQElzY1+sqx5sVFmvwDK6tm8+ze21+/DIY510ukA6votc0hx6f3q31UCAAAECBAgQIECAAIHTBBax+yEnUk5kTvO2NwECBOYukMeRQ447pZe9nvuAv9D/JrbdRi59bEuL/+0LY2FTfwKlzY9d8a76I1JzpQK30a9d82mu29+FSVPpePfZrTRbRb6PXOrc8QGsGDyJAAECBAgQIECAAIHxBFbR9CEnVFleIkCAAAECxwpcxo6HHHdqKHt9LFZl+51Ff1aRaxjTEvtwX9l8mnp3SpwjL8Wc/2clAocI5KLXS3PJtg/HwDwWSrsF0mcZORfOa5gzPoAVAykRIECAAAECBAgQIDCeQJ6UHHJytRgvVC0TIECAQAUCTfThkONOLWVvo99zvvC7jP7fz3TspzSHmxgDaRiBKY37KbGshuHSSmUCOW9OmXc17/tH2KTPnN8TRPefpYvYch05fWoa/+yPRIAAAQIECBAgQIAAgdEEbqPltidZTmBGGyYNEyBAoCqBd9Gbtseemsq9j36fVzWSr3cmL+reR65pHEvuy+XrQ6ZERwIlz5Onsa868lDNvATOorv3kZ/OJc8/98hz61XkJvJcU75HuI6cFjXPj2X0TyJAgAABAgQIECBAgMAoAvfRatsTrrxoLxEgQIAAgVMFllFB22NPbeXyQmf2v/a0iA7eRq5t/Ervz/vaJ96E+lf6XPkY/2pCpkIpS2AR4X6cRx73W1yHVS6I1p6a6OAycl5XmNOcuI3+SgQIECBAgAABAgQIEBhF4JCTL3ePjDJEGiVAgECVAvfRq0OOQbWVzQugeadUbWkZHbqNXNt41dSfGufdFP8f1TJnVlPEFVMxAm8j0lr+LwzRj/vwSrPzYkZ4f6B5vLmInH16H3kIw6m20UT/JQIECBAgQIAAAQIECAwqkCeXh5wk1XIyOiiyxggQIEDgRYFVbD3kGFRj2T/CYBm59JQXeZeR7yPXOE619SnHSupfoJZ5s+qfSgsVC+TxwbHhuGNjuuXi6UVB86N5jNei7/MxTxOJAAECBAgQIECAAAECgwosorW2F6jyQrVEgAABAgS6EmiiorbHoNrLvQ+LReTSUhMBX0fO9wi1j1FN/cv5JvUvUMucWfVPpYXKBfKDxLX8fxizH7fhuIqci8JN5LFTjmvGsoqcsXkvsH+ep49EgAABAgQIECBAgEDPAv+n5/pLqz5P3NqmTduCyhEgQIAAgRYC2yizjryMPPeUx+O8gLqJ/ObxMR4mmc4iqrzo+2PkQ95HTLIzMw0qxy3z3Uz7r9sECAwrkL9r8tj287DNVtfaInqU+WN6iCdpm/n/Rd5EzrT589/T/2miisyZFn/++9VX38bjWeTzx589tBdIt2XkdWSJAAECBAgQIECAAIGeBP7WU72lVruKwNuejP8UZa9K7ai4CRAgQGCSAk1EdT/JyMYNahvN/xJ5Hfkh8tgpL1xeRP7n4+PY8YzRfo5DOtSS1tGRH2rpzET78d+JxnVoWLl4tzp0J+UJvCBwG9sWL2y3qT+BzYFVn0f5mo51B3a/9+KbaOG73lvRAAECBAgQIECAAAECBB4F3sVjXqBqk/OEUCJAgAABAl0L5EXhNsehuZbJY/Uy8tAXZRfR5iry+8hztf/Y7z/CIN8H3Vdm0UR/pP4EPs6f0h9X/RGpeWYCTfQ3f5+W/n9C/MbwlDmQ/w8kAgQIECBAgAABAgQIDCJwG620PYEZJCCNECBAgMDsBBbR47bHormXywXZt5EvIjeRu0q5wJl1riIf8t5gDuPxcQE4aP60r6nP19kpqTeBWubKqjchFc9RII81tfzf0A9jecwcWM3xP74+EyBAgAABAgQIEBhK4G9DNVRIO3lh86xFrJso42uLWkApQoAAAQJHCdzGXouj9rTT5pHgt8fHh3i8e3z+9CGP9+ePG/738fnTbU/Lev5B4CEe8v3P3SNI+r1/fF7Lw9fRkW0tnZlYP3JxoIb0JjqxqqEj+jAZgZxPP08mGoEQGFZgG83lsVciQIAAAQIECBAgQIBA7wJtP7m66j0SDRAgQIDAnAVyca3tMUk5VkPMgad3AD/9v3lf2Vy9fto5zzsVGGKeDtHGqlMVlRH4IHAbD0PMX21wnuIcuPCLgAABAgQIECBAgACBfgT+p59qi6y1OSDqzQFlFSVAgAABAocK5J2W60N3Up5ATwIPUe/TO4CfNvPr0x8qeL6MPjQV9EMXCBAoS+BfEe62rJBFS6Azge87q0lFBAgQIECAAAECBAh8JmAR+BNH8+npq8/y4rxEgAABAgT6FHjTZ+XqJtBSYN8CcFaxbllPScXelhSsWAkQqEIgf9fmQnA+SgTmJnARHW7m1mn9JUCAAAECBAgQIDCEgEXgT8pnn57ufXYXrzo530vkRQIECBDoQGAbdVgI7gBSFUcL5Pud7yLne59daRsv7Ht9135T3n4RwS2mHKDYCBCoUiB/l/5QZc90isDrAj+/XkQJAgQIECBAgAABAgQOFbAI/Ens/NPTvc82e1/1IgECBAgQ6E7gKqradledmgi0FniIkq8tAH+s7NePTyp6dDG6osHUFQIFCdxErBaCCxowoXYmsIyams5qUxEBAgQIECBAgAABAn8KWAQ+fCL8fvgu9iBAgAABAkcJ5ELcT0ftaScCxwvcxa5fR87HNmndplBhZRYR70VhMQuXAIE6BNbRjas6uqIXBA4ScNw9iEthAgQIECBAgAABAq8LWAT+ZPTNp6d7n7W9ILq3Ei8SIECAAIGWAjdRLrNEYAiBfJ/zXeSHAxrLsjXOUX8b+IBJoCgBAp0K5AfA1p3WqDIC0xc4m36IIiRAgAABAgQIECBQloBF4E/j1faE4+7TLp4RIECAAIFBBPKrIR8GaUkjcxbI9ziHLgB/9Pr3xycVPTbRl8uK+qMrBAiUJZDH/nVZIYuWwEkC25P2tjMBAgQIECBAgAABAs8ELAJ/Ijn79HTns83OV7xAgAABAgT6E8gF4LwYLBHoS2AdFf8jcs61Y9I6djp232PaG2qf/NvAbd4jDhWPdggQmJdAHvvv5tVlvZ2pwCb6vZ5p33WbAAECBAgQIECAQG8CFoE/0Z5/errzmRPwnTReIECAAIGeBW6i/swSga4F1lFhFx8yqHF+noXNZdfg6iNAgMABAt9F2bsDyitKoDSBnN//Ki1o8RIgQIAAAQIECBAoQcAi8GGj9PthxZUmQIAAAQKdCuRC3bbTGlU2d4GcU10sAKfjL5Vi5t3ATaV90y0CBKYv8BAhfhfZQvD0x0qEhwvkvM75nfNcIkCAAAECBAgQIECgYwGLwB9Az1q6OvFuCaUYAQIECPQikBfI3CnRC+3sKv04l9Yd9jzfJ207rG9KVeVCsESAAIGxBPJ3toXgsfS125fAzeO8zvktESBAgAABAgQIECDQg4BF4A+o5y1t71qWU4wAAQIECPQlkMeiH/qqXL2zENhGL3Mx4aaH3tZ6N/AyrJoevFRJgACBtgIPUfAfkddtd1COwIQFforY8oONOa8lAgQIECBAgAABAgR6ErAI3B52076okgQIECBAoFeBddSeWSJwqMAmdshFhPwwQR9p3UelE6nT3cATGQhhEJi5QH4QbD1zA90vVyDff+T7kKtyuyByAgQIECBAgAABAuUIWAT+MFZnLYasr4ulLZpWhAABAgQIPBPIi8COTc9YbNgjkBdc8w7ghz1lTn0p616fWslE919GXM1EYxMWAQLzEsj3APk7XSJQksCbCLbPD6KVZCFWAgQIECBAgAABAoMIWAT+wHzeQvs/LcooQoAAAQIEhhT4Lhq7G7JBbRUpkAuz+ZWLPw0U/a8DtTNGM8sxGtUmAQIEXhDI3+k/vLDdJgJTE9hEQF9HXkWWCBAgQIAAAQIECBAYUMAicHtsF9nbWylJgAABAsMI5OJeXgDOR4nASwL5/uW7yDcvvdjTtk3Uu+2p7rGr/X7sALRPgACBJwLreJ4f8vE+4AmKp5MR2EYkOT/zfUg+lwgQIECAAAECBAgQGFjAInB78LyIKhEgQIAAgakJfFzkcwF4aiMzfjzrCCEvvI7xHuaX8bvfSwRNL7WqlAABAscL3MSuFtmO97Nn9wL5nvRN5K8j5/yUCBAgQIAAAQIECBAYScAi8Af4v7/iv43X80RGIkCAAAECUxS4i6DyArBj1RRHZ/iYch7knTc/RB5rTqxHbDualggQIDArgXwf8I/Im1n1WmenKHAVQeXi72qKwYmJAAECBAgQIECAwNwELAJ/GPHmlYHfvvK6lwkQIECAwNgCeQHYQvDYozB++5sIIRcCbkYO5WECMfRBsO2jUnUSIECgA4H8vZvvA950UJcqCBwqsI4dcvH3p8g5FyUCBAgQIECAAAECBCYgYBG43SD81q6YUgQIECBAYFSBu2g9LwC7+DbqMIzSeI55XnjN8d9GnkJ6M4UgOowhjf/VYX2qIkCAQB8Cq6jUe4E+ZNX5ksA6Nn4d+YfI28gSAQIECBAgQIAAAQITErAI3G4wtu2KKUWAAAECBEYXsBA8+hAMHsAmWsy7f68Gb3l/g9t4ebO/SDGvbiPSXFTJ/18SAQIEpi6wiQBzYS4fJQJ9CKyjUou/fciqkwABAgQIECBAgECHAhaB22Fu2xVTigABAgQITEIgF6pyUdCC1SSGo7cgHqLmqd39+2Vn33y5obCf0zj7kBe6/X8qbPCES2DmAvn767vIeZzI5xKBUwU+HhP/b1T0Q+TtqRXanwABAgQIECBAgAABAkMI/Dca2ZfPhghCGwQIECBAoGOBPH7dRt53jPNamT45rk3kEtJ9BFnaPPsjYl5F9h4wEDpKpc2BXfGuOvJQDYEhBZpo7DbyrnltO5t9c+A+5s5lZMfEQJAIECBAgAABAgQIEChPYN8JT14ElAgQIECAQMkCbyP4fcc6r5XjkxdiLwqbjMvC5t9txNtElroVqOX3zKpbFrURGFQgF/Ly/LaW/4/60e9Y5vGwtPccg/6H0hgBAgQIECBAgAABAmUI7Dt5zBMfiQABAgQIlC6wjA648NvvxdJ97ye6eG0VY1jqXTj3EXsXBn3Wkf8/XOwOhJ5Sn2M3ZN2LnnxUS2AogSYaehd5yP832irHO4+F15GbyBIBAgQIECBAgAABAgSqENh3UponQBIBAgQIEKhB4Dw68T7yvuOe16bnk+9Fmsglp2UEP+W59TbiK3WBvZR5cT/xOdB2fi5KARcngVcEFvF6Lf8v2/7/VW73sTjfHy4jOxYGgkSAAAECBAgQIECAQF0C+04GV3V1VW8IECBAgMCff+t037HPa7svkg5pcxtzdVHRfL2Pvgzp16atjKkm4ylPl+sJjn+bOfJlmSkbi43AMQKr2Cnv/vxyrvu5fpMc9+vI+SFBiQABAgQIECBAgAABAtUK7DvBvai21zpGgAABAnMWWETn7yPvOwZ6bRyfHJccn9rSMjo0pTm1qg144v3J99RTGv9jYrmeuLHwCBwrkHd/5jciHPP/wj7lud3GWC8j57hLBAgQIECAAAECBAgQqFpgEb3bd+Kar0sECBAgQKBWgVV0bN9x0GvD+dzHWCwj15yyj2PPqduIoakZecJ9S/uxx/+U9s2bCU8uoXUikHP8OvIp/0/sO02//Lrny8hNZIkAAQIECBAgQIAAAQKzEVhET/edqPp07Gymgo4SIEBgtgJN9Pw28r7jodf680n7ZeQ5pIvo5FhzKb/2Mi+AS+MJ5PvqXIgYaw6c0u5yPDYtExhcoIkWryOf8n/GvuP73ccY5h3e55ElAgQIECBAgAABAgQIzFJgEb3ed4I6SxSdJkCAAIFZCiyi13nBcN9x0Wvd+dyGdZrPLWW/h55H76LNXICUxhfIcchFiT8iDz0Pjmkv56sFlECQZinQRK9L+v96zP/x2va5fxwzv7dm+V9WpwkQIECAAAECBAh8LvC3z3+c5U+L6HVe3Hkp3cXGf7z0gm0ECBAgQKBigWX07efITWSpW4GHqO4m8pvI28hzTHlh+v1AHd9GOz9E3kSWpiewiJByPpxNL7Q/58xdxPUwwdiERGBogfw/uoz8Y+QmsjQtgfxdtYn8a+R8LhEgQIAAAQIECBAgQIDAo8AiHnd9+nfX4jA8AgQIECAwB4FldPI+8q7jpO3tbdIxPfNCuvThzrK+50/evcbbbCNAgEC3AhdR3bvIff8OV/9+49sYg8vITWSJAAECBAgQIECAAAECBHYILGL7rhPMvHgoESBAgACBuQvkBd+82LjreGn7yzZ/hNl15PPI0ucCZ/HjfeQ+5s77qJf5595+IkCAQNcCTVR4Gbmv3+V9HB9KrjOdryNfRM5jqESAAAECBAgQIECAAAECLQQWUWbXyeCqxf6KECBAgACBuQjkwlpegMzFzV3HTts/3CGVF2ml/QKLeLnL+ZLz8nJ/k14lQIAAgR4E8v3B28j3kbv8vT7nuvKY9i5yHtfSVyJAgAABAgQIECBAgACBIwQWsc+uk8vlEfXZhQABAgQI1C5wFh1cRs6Lk7uOoXPa/vFCbZqkjdReYBVFu5grt1FPE1kiQIAAgXEFcsHybeT7yF38fp9LHR/fS1yGWxpKBAgQIECAAAECBAgQINCBwCLq2HVima9JBAgQIECAwG6BXPRcRp7bgnBe3M6L3BeRpdMEbmP3Xe/FXtueF82NwWn+9iZAgEBfAk1UfBk53yPk7+vXfqfP6fX78LiOnD7nkSUCBAgQIECAAAECBAgQ6EFgEXXuOtl0MtYDuCoJECBAoFqBs+jZReS8qJkXN3cdX0vcnv25jryM3ESWuhPIefM+8qHz4m3sk/tKBAgQIFCGwHmEeRl5bovC+R4i+7yKvIjs2BUIEgECBAgQIECAAAEC/Qv8rf8mJt/CIiK83RElnx0wNhMgQIAAgRYCTZRZRP42cl74zVxCeogg7yL/9viYz7eRpf4EzqLqfD923qKJbZT5IfImskSAAAEC5Qo0Efoi8jeR8/d/5jwelJoeIvC7x/yfJ89zu0SAAAECBAgQIECAAIHBBSxyfrib56U7SZoYja8HHxENEiBAgACBugUW0b3zyH9/fGziMfMY6esi8DQAAA3/SURBVOPF2m00nhdrN5G3jzkepIEFzqK968gXO9rdxvY3kdeRJQIECBCoU6CJbmVeRP7fyPmeIY8P+TiFtI0gMj9E/v3xef58Fzm3SQQIECBAgAABAgQIEJiMwN8mE4lACBAgQIAAgTkL5MXds8jNY46HP+8Mym0fUxNPMu9Ld/Hiw5MC+Twv0mbaPubcluWkaQosIqwfI188hncTj/+OvH782QMBAgQIzFPgLLp9/tj1fMyfM+WdxB+f/7kh/nn6+sdtXz4+xIa7LzZu4+f/PG57+npuzywRIECAAAECBAgQIECAAAECBAgQIECAAAECBAgQIECAAAECBAgQIECAAAECBAgQIECAAAECBAgQIECAAAECBAgQIECAAAECBAgQIECAAAECBAgQIECAAAECBAgQIECAAAECBAgQIECAAAECBAgQIECAAAECBAgQIECAAAECBAgQIECAAAECBAgQIECAAAECBAgQIECAAAECBAgQIECAAAECBAgQIECAAAECBAgQIECAAAECBAgQIECAAAECBAgQIECAAAECBAgQIECAAAECBAgQIECAAAECBAgQIECAAAECBAgQIECAAAECBAgQIECAAAECBAgQIECAAAECBAgQIECAAAECBAgQIECAAAECBAgQIECAAAECBAgQIECAAAECBAgQIECAAAECBAgQIECAAAECBAgQIECAAAECBAgQIECAAAECBAgQIECAAAECBAgQIECAAAECBAgQIECAAAECBAgQIECAAAECBAgQIECAAAECBAgQIECAAAECBAgQIECAAAECBAgQIECAAAECBAgQIECAAAECBAgQIECAAAECBAgQIECAAAECBAgQIECAAAECBAgQIECAAAECBAgQIECAAAECBAgQIECAAAECBAgQIECAAAECBAgQIECAAAECBAgQIECAAAECBAgQIECAAAECBAgQIECAAAECBAgQIECAAAECBAgQIECAAAECBAgQIECAAAECBAgQIECAAAECBAgQIECAAAECBAgQIECAAAECBAgQIECAAAECBAgQIECAAAECBAgQIECAAAECBAgQIECAAAECBAgQIECAAAECBAgQIECAAAECBAgQIECAAAECBAgQIECAAAECBAgQIECAAAECBAgQIECAAAECBAgQIECAAAECBAgQIECAAAECBAgQIECAAAECBAgQIECAAAECBAgQIECAAAECBAgQIECAAAECBAgQIECAAAECBAgQIECAAAECBAgQIECAAAECBAgQIECAAAECBAgQIECAAAECBAgQIECAAAECBAgQIECAAAECBAgQIECAAAECBAgQIECAAAECBAgQIECAAAECBAgQIECAAAECBAgQIECAAAECBAgQIECAAAECBAgQIECAAAECBAgQIECAAAECBAgQIECAAAECBAgQIECAAAECBAgQIECAAAECBAgQIECAAAECBAgQIECAAAECBAgQIECAAAECBAgQIECAAAECBAgQIECAAAECBAgQIECAAAECBAgQIECAAAECBAgQIECAAAECBAgQIECAAAECBAgQIECAAAECBAgQIECAAAECBAgQIECAAAECBAgQIECAAAECBAgQIECAAAECBAgQIECAAAECBAgQIECAAAECBAgQIECAAAECBAgQIECAAAECBAgQIECAAAECBAgQIECAAAECBAgQIECAAAECBAgQIECAAAECBAgQIECAAAECBAgQIECAAAECBAgQIECAAAECBAgQIECAAAECBAgQIECAAAECBAgQIECAAAECBAgQIECAAAECBAgQIECAAAECBAgQIECAAAECBAgQIECAAAECBAgQIECAAAECBAgQIECAAAECBAgQIECAAAECBAgQIECAAAECBAgQIECAAAECBAgQIECAAAECBAgQIECAAAECBAgQIECAAAECBAgQIECAAAECBAgQIECAAAECBAgQIECAAAECBAgQIECAAAECBAgQIECAAAECBAgQIECAAAECBAgQIECAAAECBAgQIECAAAECBAgQIECAAAECBAgQIECAAAECBAgQIECAAAECBAgQIECAAAECBAgQIECAAAECBAgQIECAAAECBAgQIECAAAECBAgQIECAAAECBAgQIECAAAECBAgQIECAAAECBAgQIECAAAECBAgQIECAAAECBAgQIECAAAECBAgQIECAAAECBAgQIECAAAECBAgQIECAAAECBAgQIECAAAECBAgQIECAAAECBAgQIECAAAECBAgQIECAAAECBAgQIECAAAECBAgQIECAAAECBAgQIECAAAECBAgQIECAAAECBAgQIECAAAECBAgQIECAAAECBAgQIECAAAECBAgQIECAAAECBAgQIECAAAECBAgQIECAAAECBAgQIECAAAECBAgQIECAAAECBAgQIECAAAECBAgQIECAAAECBAgQIECAAAECBAgQIECAAAECBAgQIECAAAECBAgQIECAAAECBAgQIECAAAECBAgQIECAAAECBAgQIECAAAECBAgQIECAAAECBAgQIECAAAECBAgQIECAAAECBAgQIECAAAECBAgQIECAAAECBAgQIECAAAECBAgQIECAAAECBAgQIECAAAECBAgQIECAAAECBAgQIECAAAECBAgQIECAAAECBAgQIECAAAECBAgQIECAAAECBAgQIECAAAECBAgQIECAAAECBAgQIECAAAECBAgQIECAAAECBAgQIECAAAECBAgQIECAAAECBAgQIECAAAECBAgQIECAAAECBAgQIECAAAECBAgQIECAAAECBAgQIECAAAECBAgQIECAAAECBAgQIECAAAECBAgQIECAAAECBAgQIECAAAECBAgQIECAAAECBAgQIECAAAECBAgQIECAAAECBAgQIECAAAECBAgQIECAAAECBAgQIECAAAECBAgQIECAAAECBAgQIECAAAECBAgQIECAAAECBAgQIECAAAECBAgQIECAAAECBAgQIECAAAECBAgQIECAAAECBAgQIECAAAECBAgQIECAAAECBAgQIECAAAECBAgQIECAAAECBAgQIECAAAECBAgQIECAAAECBAgQIECAAAECBAgQIECAAAECBAgQIECAAAECBAgQIECAAAECBAgQIECAAAECBAgQIECAAAECBAgQIECAAAECBAgQIECAAAECBAgQIECAAAECBAgQIECAAAECBAgQIECAAAECBAgQIECAAAECBAgQIECAAAECBAgQIECAAAECBAgQIECAAAECBAgQIECAAAECBAgQIECAAAECBAgQIECAAAECBAgQIECAAAECBAgQIECAAAECBAgQIECAAAECBAgQIECAAAECBAgQIECAAAECBAgQIECAAAECBAgQIECAAAECBAgQIECAAAECBAgQIECAAAECBAgQIECAAAECBAgQIECAAAECBAgQIECAAAECBAgQIECAAAECBAgQIECAAAECBAgQIECAAAECBAgQIECAAAECBAgQIECAAAECBAgQIECAAAECBAgQIECAAAECBAgQIECAAAECBAgQIECAAAECBAgQIECAAAECBAgQIECAAAECBAgQIECAAAECBAgQIECAAAECBAgQIECAAAECBAgQIECAAAECBAgQIECAAAECBAgQIECAAAECBAgQIECAAAECBAgQIECAAAECBAgQIECAAAECBAgQIECAAAECBAgQIECAAAECBAgQIECAAAECBAgQIECAAAECBAgQIECAAAECBAgQIECAAAECBAgQIECAAAECBAgQIECAAAECBAgQIECAAAECBAgQIECAAAECBAgQIECAAAECBAgQIECAAAECBAgQIECAAAECBAgQIECAAAECBAgQIECAAAECBAgQIECAAAECBAgQIECAAAECBAgQIECAAAECBAgQIECAAAECBAgQIECAAAECBAgQIECAAAECBAgQIECAAAECBAgQIECAAAECBAgQIECAAAECBAgQIECAAAECBAgQIECAAAECBAgQIECAAAECBAgQIECAAAECBAgQIECAAAECBAgQIECAAAECBAgQIECAAAECBAgQIECAAAECBAgQIECAAAECBAgQIECAAAECBAgQIECAAAECBAgQIECAAAECBAgQIECAAAECBAgQIECAAAECBAgQIECAAAECBAgQIECAAAECBAgQIECAAAECBAgQIECAAAECBAgQIECAAAECBAgQIECAAAECBAgQIECAAAECBAgQIECAAAECBAgQIECAAAECBAgQIECAAAECBAgQIECAAAECBAgQIECAAAECBAgQIECAAAECBAgQIECAAAECBAgQIECAAAECBAgQIECAAAECBAgQIECAAAECBAgQIECAAAECBAgQIECAAAECBAgQIECAAAECBAgQIECAAAECBAgQIECAAAECBAgQIECAAAECBAgQIECAAAECBAgQIECAAAECBAgQIECAAAECBAgQIECAAAECBAgQIECAAAECBAgQIECAAAECBAgQIECAAAECBAgQIECAAAECBAgQIECAAAECBAgQIECAAAECBAgQIECAAAECBAgQIECAAAECBAgQIECAAAECBAgQIECAAAECBAgQIECAAAECBAgQIECAAAECBAgQIECAAAECBAgQIECAAAECBAgQIECAAAECBAgQIECAAAECBAgQIECAAAECBAgQIECAAAECBAgQIECAAAECBAgQIECAAAECBAgQIECAAAECBAgQIECAAAECBAgQIECAAAECBAgQIECAAAECBAgQIECAAAECBAgQIECAAAECBAgQIECAAAECPQn8fzHfgjlfQN/zAAAAAElFTkSuQmCC;" vertex="1" parent="1">
          <mxGeometry x="-2200" y="90" width="179.91" height="90" as="geometry" />
        </mxCell>
      </root>
    </mxGraphModel>
  </diagram>
</mxfile>
